<svg width="182" height="62" viewBox="0 0 182 62" fill="none" xmlns="http://www.w3.org/2000/svg">
<path d="M3.26546 32.0619C3.26546 32.6723 3.26546 33.2827 3.26546 33.893C3.26546 34.0471 3.24275 34.1516 3.19663 34.2986C3.12082 34.5403 3.16911 34.8524 3.13273 35.1048C3.09001 35.4012 3.08849 35.6911 3.08849 35.9897C3.08849 36.2481 3 36.4823 3 36.7418C3 37.3205 3.00238 37.9034 3.0467 38.4795C3.08216 38.9405 3.28665 39.3948 3.35148 39.8486C3.36174 39.9204 3.38049 40.0894 3.34411 40.1485C3.17746 40.4193 3.71839 40.4176 3.87011 40.4483C4.471 40.57 5.09476 40.6892 5.70864 40.6892C6.0476 40.6892 6.32167 40.5363 6.65249 40.5123C6.78234 40.5028 6.86405 40.4037 6.98431 40.3648C7.12392 40.3196 7.24498 40.2934 7.38003 40.2321C7.56655 40.1473 7.77144 40.1787 7.95519 40.0895C8.07823 40.0297 8.22786 39.9906 8.36321 39.9813C8.489 39.9728 8.60304 39.9098 8.72944 39.8904C8.81326 39.8775 8.91229 39.8645 8.9949 39.8462C9.17474 39.8062 9.22659 39.568 9.28493 39.4258C9.39617 39.1547 9.50369 38.9099 9.50369 38.6123C9.50369 38.3415 9.58911 37.9486 9.4152 37.725C9.16777 37.4068 8.80493 37.1981 8.5328 36.9089C8.3395 36.7035 7.94313 36.5528 7.68973 36.4223C7.24228 36.1918 6.77434 36.0278 6.31821 35.8324C5.97839 35.6867 5.53108 35.734 5.17035 35.734C4.83656 35.734 4.43208 35.6665 4.10607 35.739C3.8865 35.7877 3.66585 35.911 3.4326 35.911C3.01639 35.911 4.26502 35.911 4.68123 35.911C5.52728 35.911 6.43205 35.9015 7.20306 35.5374C7.46481 35.4138 7.78981 35.2031 8.08792 35.2031C8.24365 35.2031 8.52143 35.0402 8.59917 34.918C8.88577 34.4676 8.7877 33.8419 8.45661 33.4506C8.13444 33.0699 7.74535 32.7453 7.42428 32.3618C7.15478 32.0399 6.96105 31.8123 6.55909 31.644C5.83158 31.3395 4.97907 31.3098 4.19455 31.3098C3.95574 31.3098 3.33756 31.2868 3.26546 31.5752" stroke="#DD9E5E" stroke-linecap="round"/>
<path d="M11.8043 34.3625C11.8043 34.8214 11.7385 35.2788 11.7626 35.7365C11.7777 36.0248 11.9247 36.3015 11.9371 36.5747C11.9494 36.8452 12.0239 37.1688 12.0723 37.435C12.1212 37.7041 12.114 37.975 12.114 38.2535C12.114 38.4951 12.0813 38.8139 11.9813 39.0326C11.8823 39.2493 11.7701 39.445 11.7601 39.7061C11.7479 40.0232 11.8809 40.1094 12.1558 40.264C12.3316 40.3629 12.544 40.3841 12.7236 40.4877C12.839 40.5543 12.9778 40.6575 13.1095 40.6868C13.3775 40.7464 13.6437 40.8597 13.9378 40.8662C14.1807 40.8716 14.344 40.8206 14.5646 40.7138C14.7504 40.624 14.9976 40.5708 15.1668 40.4631C15.3526 40.3449 15.708 40.1165 15.7764 39.8929C15.8877 39.5286 15.9189 39.1548 15.9189 38.777C15.9189 38.3606 15.8952 38.0885 15.6731 37.725C15.4804 37.4097 14.8771 37.3268 14.5474 37.3268C14.3337 37.3268 14.1686 37.2411 13.9624 37.1941C13.8481 37.168 13.6907 37.1785 13.5962 37.1007C13.5179 37.0362 13.4598 36.9788 13.3528 36.9729C13.1122 36.9595 12.9427 36.7959 12.6892 36.7959" stroke="#DD9E5E" stroke-linecap="round"/>
<path d="M17.6444 34.6721C17.6444 35.3704 17.6242 36.0597 17.723 36.7515C17.8049 37.3246 17.6886 37.9399 17.6886 38.5212C17.6886 38.8948 17.6444 39.2743 17.6444 39.6371C17.6444 39.7933 17.5919 39.9405 17.6001 40.114C17.6053 40.2235 17.6673 40.5122 17.7771 40.5122" stroke="#DD9E5E" stroke-linecap="round"/>
<path d="M25.2099 31.4867C25.4987 31.4867 24.9933 31.8124 24.9002 31.8849C24.6014 32.1173 24.1933 32.0797 23.8433 32.2388C23.6403 32.3311 23.3489 32.2831 23.1305 32.2831C22.8945 32.2831 22.6586 32.2831 22.4226 32.2831C22.2332 32.2831 21.6851 32.2911 21.5648 32.4207C21.3288 32.6748 21.2265 33.0403 21.0265 33.3203C20.827 33.5996 20.5202 33.7876 20.5202 34.1855C20.5202 34.4552 20.4941 34.6994 20.3899 34.9425C20.3175 35.1114 20.2547 35.3826 20.2547 35.5669C20.2547 35.711 20.1662 35.7646 20.1662 35.911C20.1662 36.0322 20.1662 36.1535 20.1662 36.2747C20.1662 36.6772 20.1326 37.0949 20.2547 37.484C20.3415 37.7608 20.4317 37.9926 20.4317 38.2902C20.4317 38.8239 20.4752 39.3747 20.9429 39.6741C21.1236 39.7897 21.3338 39.7445 21.4935 39.851C21.6162 39.9328 21.7887 39.9813 21.9384 39.9813C22.2923 39.9813 22.6327 40.1723 22.9584 40.264C23.2154 40.3363 24.2917 40.4843 24.4922 40.2468C24.7083 39.9906 24.9736 39.7837 25.1018 39.4725C25.2488 39.1153 25.3997 38.7629 25.4287 38.3714C25.4748 37.7484 25.555 37.1326 25.318 36.5402C25.1951 36.2329 25.0922 35.9338 24.9002 35.6553C24.7102 35.3799 24.4445 35.3081 24.1727 35.1244C24.0365 35.0324 23.9199 35.0554 23.7745 35.0212C23.7012 35.004 23.658 34.9392 23.5778 34.918C23.4397 34.8814 23.2824 34.8719 23.1551 34.8049C22.9878 34.7169 22.6302 34.6437 22.4496 34.741C22.3563 34.7913 22.2683 34.8491 22.1571 34.8491C22.0527 34.8491 22.0706 34.9509 21.9777 34.9819C21.7534 35.0567 21.6176 35.3098 21.3804 35.3776C21.1818 35.4343 21.0888 35.6831 21.0068 35.8471C20.9434 35.974 20.8871 36.1234 20.82 36.2453C20.7853 36.3084 20.7017 36.4558 20.6529 36.5107C20.4623 36.7251 20.1662 37.0074 20.1662 37.3267" stroke="#DD9E5E" stroke-linecap="round"/>
<path d="M27.5105 37.371C27.5929 37.3802 27.7243 37.4071 27.803 37.4374C28.0879 37.547 28.5611 37.4595 28.8574 37.4595C29.4638 37.4595 30.0953 37.5173 30.6984 37.457C31.2228 37.4046 31.7202 37.4595 32.2445 37.4595C32.3469 37.4595 33.0373 37.5032 33.0408 37.4054C33.0512 37.1149 33.047 36.8308 32.9278 36.5599C32.8345 36.3478 32.6784 36.0984 32.6402 35.8692C32.6276 35.7933 32.5314 35.7667 32.4952 35.7045C32.4184 35.5724 32.3539 35.4492 32.2715 35.3162C32.1226 35.0755 31.8979 34.8466 31.6447 34.7164C31.066 34.4188 30.5738 34.1232 29.8898 34.2396C29.4309 34.3177 28.8662 34.362 28.7395 34.8688C28.5375 35.6766 28.013 36.3493 27.5547 37.0367C27.1897 37.5843 27.1201 38.3589 27.6432 38.831C28.1635 39.3006 28.8261 39.5667 29.349 40.0059C29.5248 40.1535 29.7597 40.2485 29.966 40.3402C30.1712 40.4314 30.307 40.552 30.546 40.5983C31.4438 40.772 32.2579 40.3373 32.7311 39.6274" stroke="#DD9E5E" stroke-linecap="round"/>
<path d="M35.076 34.7607C35.076 34.9366 35.1127 35.1068 35.1203 35.2818C35.1251 35.3927 35.2009 35.4649 35.2088 35.5669C35.2236 35.7591 35.3515 35.8468 35.43 35.9995C35.8491 36.8144 35.727 37.768 35.4767 38.6024C35.3167 39.1357 35.1203 39.6624 35.1203 40.2247C35.1203 40.8242 35.1488 41.4201 35.1645 42.0165C35.1705 42.2419 35.2221 42.4333 35.2874 42.6457C35.3338 42.7963 35.4988 43.2261 35.4988 43.0685C35.4988 42.9931 35.4428 42.8674 35.4202 42.7932C35.3664 42.6171 35.3112 42.5098 35.2874 42.3164C35.2111 41.6961 35.2088 41.077 35.2088 40.4533C35.2088 40.3001 35.1178 39.3226 35.3243 39.3226C35.547 39.3226 35.7653 39.4504 35.9978 39.4504C36.0944 39.4504 36.1171 39.5389 36.2042 39.5389C36.6062 39.5389 36.8254 39.7629 37.1456 39.9617C37.2443 40.0229 37.4308 40.1378 37.5536 40.1583C37.6617 40.1763 37.7024 40.409 37.8191 40.4582C38.0323 40.548 38.4533 40.468 38.6818 40.468C39.1395 40.468 39.4538 40.2929 39.6552 39.9125C39.7628 39.7093 40.018 39.6198 40.0976 39.3546C40.1601 39.1462 40.1879 38.935 40.2303 38.7229C40.2668 38.5406 40.3587 38.3974 40.4098 38.2215C40.6274 37.4717 40.6856 36.5112 40.3213 35.8029C40.1824 35.5328 39.9138 35.1585 39.6134 35.0458C39.1932 34.8882 38.6454 34.7059 38.1927 34.6747C37.8567 34.6515 37.512 34.6722 37.1751 34.6722C36.8089 34.6722 36.4452 34.8837 36.1379 35.0729C35.9332 35.1988 35.5603 35.3801 35.4497 35.6013C35.3591 35.7825 35.3857 35.9728 35.3857 36.1765" stroke="#DD9E5E" stroke-linecap="round"/>
<path d="M42.5088 34.4509C42.7842 34.4509 42.6858 34.9689 42.6858 35.1662C42.6858 35.7888 42.656 36.3791 42.8726 36.9728C43.159 37.7578 43.0397 38.6441 43.0397 39.47C43.0397 39.6623 42.9544 40.0938 43.0643 40.2664C43.1679 40.4293 43.0648 40.6066 43.138 40.7678C43.1643 40.8256 43.5369 40.5165 43.5706 40.4925C44.0461 40.154 44.5548 39.8704 45.038 39.5438C45.5835 39.1749 45.7609 38.6562 46.0752 38.1206C46.2501 37.8227 46.4085 37.5102 46.6012 37.2235C46.8335 36.8779 47.1114 36.5633 47.2772 36.1764C47.4558 35.7597 47.5742 35.3055 47.7294 34.8786C47.7607 34.7926 47.8297 34.9005 47.8376 34.9376C47.9156 35.3054 47.8545 35.717 47.8278 36.0879C47.7869 36.6549 47.6893 37.2003 47.6188 37.7642C47.5791 38.0821 47.6029 38.4032 47.5967 38.7228C47.5905 39.0478 47.4197 39.356 47.4197 39.6912C47.4197 40.001 47.425 40.36 47.7294 40.5122" stroke="#DD9E5E" stroke-linecap="round"/>
<path d="M49.7646 34.7164C49.6077 34.4923 50.5045 34.5831 50.5708 34.5812C51.0424 34.5683 51.5185 34.5028 51.9743 34.4116C52.3689 34.3327 52.8576 34.4067 53.2598 34.4067C53.6915 34.4067 54.1117 34.4952 54.5428 34.4952C54.6967 34.4952 55.0347 34.4274 55.0737 34.5837" stroke="#DD9E5E" stroke-linecap="round"/>
<path d="M52.2422 35.0261C52.2422 35.6054 52.0653 36.1215 52.0653 36.6975C52.0653 36.9878 52.0054 37.2547 51.9792 37.543C51.9466 37.9015 51.9768 38.2747 51.9768 38.6344C51.9768 38.7906 51.8933 38.9098 51.8883 39.062C51.8817 39.2618 51.8832 39.4492 51.8539 39.647C51.8228 39.8567 51.7998 40.0531 51.7998 40.2664C51.7998 40.4143 51.823 40.5719 51.9424 40.6794C52.0645 40.7893 52.1537 40.603 52.1537 40.8662" stroke="#DD9E5E" stroke-linecap="round"/>
<path d="M56.1356 37.7692C56.4477 37.7692 56.7655 37.7249 57.0819 37.7249C57.7704 37.7249 58.5042 37.8008 59.1785 37.6389C59.5974 37.5384 60.003 37.4367 60.4247 37.3489C60.783 37.2742 61.1035 37.3279 61.4447 37.1842C61.5694 37.1317 61.6142 37.167 61.6217 37.0171C61.6309 36.8341 61.7073 36.7039 61.602 36.5206C61.5373 36.4077 61.4404 36.3316 61.3464 36.2453C61.2085 36.1187 61.1237 35.9537 60.9925 35.8225C60.7322 35.5623 60.4525 35.3015 60.1617 35.0753C59.861 34.8414 59.347 34.6722 58.9647 34.6722C58.5902 34.6722 58.2102 34.6514 57.8365 34.6722C57.4656 34.6928 57.0942 35.1147 56.8877 35.3899C56.6527 35.7033 56.3962 36.0506 56.2069 36.4001C56.0141 36.7561 56.0029 37.3004 56.0029 37.6979C56.0029 37.9315 55.9689 38.177 56.0717 38.3886C56.2545 38.765 56.479 39.0351 56.7992 39.3029C57.1982 39.6366 57.5246 39.9935 58.038 40.1362C58.3515 40.2232 58.6703 40.3708 58.9942 40.4188C59.608 40.5098 60.1115 40.1996 60.614 39.9027C60.7974 39.7943 61.2678 39.7257 61.2678 39.4504" stroke="#DD9E5E" stroke-linecap="round"/>
<path d="M66.5768 34.0085C66.6303 34.5429 66.7096 35.0868 66.7096 35.6259C66.7096 36.4705 66.8398 37.3268 66.6997 38.1674C66.5974 38.7814 66.6211 39.3974 66.6211 40.0182C66.6211 40.3668 66.7651 40.6635 66.7956 40.9989C66.8128 41.1879 66.7981 41.3841 66.7981 41.5741C66.7981 41.842 66.7096 41.5693 66.7096 41.4413" stroke="#DD9E5E" stroke-linecap="round"/>
<path d="M66.975 37.725C67.0347 37.6816 67.0902 37.6863 67.1618 37.6807C67.343 37.6668 67.5014 37.5913 67.6633 37.5136C68.0375 37.3341 68.4364 37.1731 68.7349 36.8745C68.964 36.6455 69.1112 36.3452 69.3199 36.0978C69.4421 35.953 69.5863 35.8157 69.6738 35.6456C69.8351 35.3321 69.9787 34.8878 70.2834 34.6919C70.5326 34.5317 70.8954 34.5838 71.1781 34.5838" stroke="#DD9E5E" stroke-linecap="round"/>
<path d="M68.1696 37.3268C68.3547 37.3268 68.3238 37.5983 68.3736 37.7201C68.4869 37.997 68.6607 38.2406 68.7669 38.5238C68.8723 38.8048 68.971 39.0914 69.0987 39.3619C69.1928 39.5613 69.3647 39.6722 69.4428 39.883C69.5474 40.1654 69.8385 40.2148 70.0942 40.3132C70.2843 40.3863 70.402 40.4632 70.6128 40.5024C70.7475 40.5275 70.8513 40.5222 70.9127 40.645" stroke="#DD9E5E" stroke-linecap="round"/>
<path d="M72.6824 34.6721C72.808 35.1606 72.9478 35.5804 72.9478 36.0879C72.9478 36.4922 72.8979 36.873 73.0806 37.2382C73.3187 37.7145 73.3648 38.2794 73.6016 38.7621C73.8026 39.1717 74.0898 39.5646 74.3636 39.937C74.432 40.03 74.9925 40.7493 75.1256 40.6695C75.7159 40.3153 75.886 39.6036 76.0448 38.9981C76.2159 38.3458 76.3408 37.7152 76.5757 37.0809C76.7644 36.5715 77.1299 36.1465 77.3377 35.6553C77.4694 35.3441 77.6162 35.0695 77.7162 34.736C77.8085 34.4283 77.5348 35.3554 77.3967 35.6455C77.2807 35.8891 77.2354 36.1245 77.1509 36.3779C77.047 36.6895 76.8743 36.9705 76.7281 37.2628C76.5229 37.6733 76.2068 38.0737 76.0694 38.5065C76.0149 38.678 75.9015 38.8197 75.8433 38.9882C75.7917 39.1375 75.8017 39.301 75.7499 39.4503C75.6654 39.6936 75.641 39.9965 75.5385 40.227C75.4318 40.4671 75.4514 40.7262 75.3615 40.9693C75.3194 41.0832 75.3237 41.2754 75.2583 41.3626C75.1107 41.5594 74.953 41.7564 74.7716 41.9378C74.415 42.2943 74.1305 42.7166 73.7786 43.0684C73.5542 43.2928 73.4921 43.3437 73.1789 43.3437C73.0978 43.3437 72.8984 43.3806 72.8348 43.324C72.7111 43.2141 72.7266 42.9561 72.7266 42.8128" stroke="#DD9E5E" stroke-linecap="round"/>
<path d="M79.6727 34.4952C79.6848 34.9309 79.8056 35.3956 79.8743 35.8274C79.9439 36.2649 80.0135 36.7191 80.1152 37.1498C80.2803 37.8493 80.4691 38.5419 80.4691 39.2636C80.4691 39.9074 80.435 40.5453 80.4249 41.1857C80.4201 41.4836 80.2479 41.6953 80.2479 41.9722C80.2479 42.1889 80.2036 42.407 80.2036 42.6162C80.2036 42.6933 80.208 43.1267 80.2036 42.8374C80.1977 42.4419 80.1201 42.0453 80.1643 41.6478C80.2129 41.2108 80.4085 40.7958 80.4249 40.3549C80.4333 40.1264 80.4328 39.811 80.5133 39.5979C80.591 39.3924 80.7424 38.7483 81.0344 39.1161C81.2206 39.3505 81.5031 39.5766 81.6391 39.8486C81.7027 39.9757 81.8297 40.0146 81.9291 40.114C82.0489 40.2338 82.1252 40.3775 82.3076 40.4213C82.9359 40.572 83.4347 40.5293 84.0306 40.291C84.5552 40.0812 85.0322 39.7379 85.3358 39.2488C85.563 38.8829 85.7089 38.5288 85.8569 38.1231C86.0918 37.4791 85.9994 36.6964 85.9994 36.0289C85.9994 34.559 84.0021 33.9587 82.7894 34.2125C82.4135 34.2912 82.0569 34.4303 81.6833 34.5149C81.5084 34.5544 81.3255 34.646 81.1524 34.7017C81.0533 34.7335 80.8333 34.8149 80.7591 34.8958C80.5596 35.1135 80.476 35.3955 80.415 35.6701C80.3824 35.8171 80.3674 35.9983 80.2479 36.0879" stroke="#DD9E5E" stroke-linecap="round"/>
<path d="M92.3261 36.088C92.3028 35.6916 91.5789 35.3554 91.3135 35.1195C91.0895 34.9205 90.8715 34.7826 90.6228 34.6255C90.3973 34.4831 90.0876 34.5447 89.8289 34.4977C89.6471 34.4646 89.4799 34.4067 89.2931 34.4067C88.966 34.4067 88.2797 34.6553 88.0592 34.8959C87.8196 35.1572 87.9019 35.5884 87.9019 35.911C87.9019 36.4314 87.9904 36.9325 87.9904 37.4595C87.9904 37.944 88.147 38.303 88.3001 38.7622C88.4991 39.3592 88.8086 39.851 89.3717 40.178C89.7237 40.3824 90.1673 40.5076 90.5761 40.5122C90.8128 40.5149 91.0497 40.5122 91.2864 40.5122C91.519 40.5122 91.6706 40.4043 91.8739 40.3058C92.1075 40.1926 92.7132 39.8673 92.803 39.5979C92.8769 39.376 92.8571 39.0668 92.8571 38.831" stroke="#DD9E5E" stroke-linecap="round"/>
<path d="M97.5025 34.5394C97.3416 34.7648 97.2583 35.1046 97.2027 35.3702C97.1432 35.6546 97.0239 35.9752 97.0159 36.2649C97.0022 36.7564 97.0214 37.2334 96.9495 37.7225C96.8803 38.1932 96.7354 38.6499 96.6521 39.1161C96.5802 39.5185 96.4966 40.2524 96.7308 40.6204C96.7996 40.7285 96.9432 41.0059 97.038 41.048C97.4711 41.2405 97.7882 41.1265 98.2006 40.8465C98.7989 40.4402 98.935 39.7736 99.0953 39.121C99.171 38.8127 99.3116 38.5754 99.4517 38.2951C99.6105 37.9775 99.724 37.64 99.8917 37.3267C100.026 37.0764 100.277 36.885 100.501 36.7172C100.714 36.5576 100.886 36.3598 101.086 36.1862C101.383 35.9282 101.532 35.5127 101.838 35.2719C101.881 35.2384 102.038 35.0625 102.062 35.1269C102.175 35.4283 102.148 35.7359 102.148 36.0535C102.148 36.6197 102.148 37.1858 102.148 37.7519C102.148 38.1854 102.148 38.6188 102.148 39.0522C102.148 39.2968 102.071 39.5222 102.06 39.7601C102.051 39.9329 102.157 40.8661 101.883 40.8661" stroke="#DD9E5E" stroke-linecap="round"/>
<path d="M107.767 40.9104C107.915 40.8059 107.939 40.5662 107.998 40.4041C108.111 40.0941 108.181 39.7814 108.2 39.4504C108.247 38.6159 108.064 37.8227 107.978 37.0072C107.915 36.3982 107.703 35.8215 107.6 35.2228C107.539 34.8687 107.468 34.5733 107.742 34.2986C108.034 34.0068 108.176 34.0749 108.566 34.1437C108.862 34.196 109.104 34.3182 109.414 34.3182C109.773 34.3182 110.115 34.3285 110.466 34.2494C110.802 34.1735 111.355 34.1701 111.682 34.2961C112.039 34.4333 112.675 34.5368 112.877 34.918C112.965 35.0835 112.943 35.2642 112.943 35.4464C112.943 35.6919 112.825 35.7885 112.771 36.0044C112.637 36.5423 112.483 37.0779 112.358 37.6168C112.217 38.2305 112.147 38.8797 112.147 39.5168C112.147 39.9141 112.147 40.3115 112.147 40.7089C112.147 40.8908 112.137 41.0755 112.149 41.257C112.168 41.5359 112.235 41.2496 112.235 41.1316" stroke="#DD9E5E" stroke-linecap="round"/>
<path d="M115.908 34.7607C115.59 35.0518 115.175 35.2972 115.047 35.7341C114.904 36.2252 114.802 36.657 114.802 37.1695C114.802 37.5792 114.802 37.9888 114.802 38.3985C114.802 38.7941 114.945 39.1156 115.121 39.4701C115.318 39.867 115.478 40.2767 115.971 40.3255C116.589 40.3866 117.233 40.3353 117.854 40.3353C118.521 40.3353 119.067 39.9713 119.622 39.625C119.859 39.4767 120.039 39.1605 120.133 38.8999C120.274 38.5076 120.29 37.9961 120.219 37.5874C120.058 36.6666 119.929 35.4641 119.204 34.7853C118.812 34.4185 118.438 34.2941 117.903 34.2347C117.697 34.2118 117.458 34.1075 117.255 34.1463C117.092 34.1771 116.827 34.3035 116.684 34.3871C116.524 34.4813 116.354 34.5021 116.198 34.6034C116.046 34.7018 115.777 34.7955 115.731 34.982" stroke="#DD9E5E" stroke-linecap="round"/>
<path d="M122.102 40.6449C122.29 40.6449 122.19 39.4668 122.19 39.2832C122.19 38.5778 122.19 37.8724 122.19 37.1669C122.19 36.5249 122.146 35.8852 122.146 35.2448C122.146 34.9871 122.05 34.6739 122.352 34.5935C122.751 34.4874 123.211 34.5298 123.621 34.505C123.936 34.4859 124.253 34.4952 124.569 34.4952C125.074 34.4952 125.579 34.4952 126.083 34.4952C126.365 34.4952 126.576 34.7894 126.855 34.8049C127.05 34.8157 127.235 34.8491 127.433 34.8491C127.575 34.8491 127.65 35.0602 127.696 35.1834C127.894 35.7216 127.564 36.3385 127.543 36.8745C127.53 37.2103 127.455 37.5194 127.455 37.8675C127.455 38.0648 127.437 38.2425 127.413 38.4352C127.324 39.1457 126.855 39.7735 127.101 40.5122" stroke="#DD9E5E" stroke-linecap="round"/>
<path d="M130.242 43.1226C130.472 43.3268 130.371 42.5502 130.365 42.4639C130.323 41.7832 130.331 41.1031 130.331 40.4213C130.331 39.4675 130.46 38.5401 130.505 37.5898C130.535 36.9713 130.547 36.2445 130.35 35.6554C130.237 35.3156 130.242 34.8502 130.242 34.4952" stroke="#DD9E5E" stroke-linecap="round"/>
<path d="M130.286 35.5129C130.303 35.6491 131.213 35.2573 131.358 35.1737C131.648 35.0064 131.839 34.8547 132.179 34.8492C132.357 34.8464 132.585 34.8898 132.754 34.8296C132.891 34.7808 132.965 34.7607 133.118 34.7607C133.617 34.7607 134.274 34.7864 134.534 35.2917C134.824 35.856 134.711 36.5526 134.711 37.1744C134.711 37.5589 134.869 37.7791 134.996 38.1257C135.103 38.4176 135.109 38.7071 135.109 39.013C135.109 39.3747 135.088 39.6472 134.753 39.8487C134.426 40.0444 134.033 40.1998 133.669 40.3108C133.436 40.3815 133.141 40.3807 132.897 40.4214C132.743 40.447 132.593 40.5123 132.437 40.5123C132.271 40.5123 132.142 40.6869 131.987 40.5983C131.876 40.5349 131.786 40.5467 131.678 40.5074C131.582 40.4725 131.534 40.3695 131.437 40.328C131.253 40.2492 131.195 39.8863 131.127 39.7159" stroke="#DD9E5E" stroke-linecap="round"/>
<path d="M137.631 37.3268C137.622 37.4767 137.544 37.6118 137.518 37.7594C137.482 37.9562 137.486 38.1803 137.508 38.3788C137.545 38.7045 137.65 39.0172 137.827 39.2931C138.175 39.8335 138.509 40.2374 139.047 40.5909C139.206 40.6961 139.419 40.6886 139.602 40.7089C140.012 40.7545 140.464 40.8328 140.875 40.7581C141.272 40.6858 141.553 40.4196 141.844 40.1583C142.132 39.899 142.411 39.6256 142.674 39.3423C143.021 38.9696 143.178 38.256 143.203 37.7643C143.225 37.3231 143.214 36.7694 143.051 36.3559C142.925 36.0389 142.931 35.7002 142.738 35.4022C142.546 35.1057 142.395 34.7923 142.124 34.5493C141.837 34.292 141.402 34.2581 141.037 34.2126C140.279 34.1177 138.927 34.1256 138.518 34.9426C138.293 35.3926 138.221 35.876 138.154 36.3633C138.095 36.8003 137.675 37.1704 137.675 37.5922" stroke="#DD9E5E" stroke-linecap="round"/>
<path d="M149.665 31.6637C149.434 31.6637 149.248 31.8243 149.011 31.8407C148.84 31.8525 148.695 31.9292 148.507 31.9292C148.104 31.9292 147.69 31.9817 147.288 32.0152C147.006 32.0387 146.777 31.8924 146.499 31.8849C146.247 31.8781 146.111 31.9289 145.929 32.1061C145.792 32.2393 145.629 32.3525 145.511 32.5043C145.45 32.5823 145.316 32.7295 145.29 32.8165C145.208 33.0809 145.066 33.3494 144.95 33.6104C144.852 33.8318 144.982 34.1268 144.909 34.36C144.885 34.435 144.898 34.5096 144.877 34.5837C144.843 34.7018 144.754 34.7588 144.754 34.891C144.754 35.1752 144.754 35.452 144.719 35.734C144.677 36.0789 144.698 36.4367 144.621 36.7762C144.581 36.9535 144.559 37.038 144.663 37.194C144.794 37.3914 144.814 37.6476 144.877 37.8675C144.976 38.2168 145.03 38.5607 145.174 38.8974C145.261 39.1002 145.315 39.2762 145.417 39.4701C145.554 39.7293 145.789 39.798 146.039 39.9125C146.273 40.0195 146.545 39.9993 146.789 40.0944C147.012 40.1812 147.223 40.3193 147.462 40.3353C147.617 40.3456 147.741 40.4551 147.897 40.4655C148.049 40.4757 148.188 40.4701 148.337 40.5024C148.538 40.5458 148.774 40.5123 148.979 40.5123C149.45 40.5123 149.938 39.8928 150.107 39.4947C150.441 38.7101 150.516 37.8235 150.407 36.9728C150.38 36.76 150.271 36.569 150.245 36.3583C150.23 36.2387 150.24 36.1042 150.166 35.9995C150.077 35.872 149.977 35.7155 149.864 35.6087C149.752 35.5031 149.583 35.3216 149.439 35.2719C149.062 35.1424 148.682 34.9772 148.313 34.8295C148.15 34.7645 148.079 34.6722 147.897 34.6722C147.779 34.6722 147.66 34.6722 147.541 34.6722C147.226 34.6722 146.91 34.6722 146.595 34.6722C146.442 34.6722 146.424 34.7057 146.317 34.8246C146.116 35.0489 145.89 35.3156 145.639 35.4833C145.269 35.7296 145.092 36.0379 145.017 36.4862C144.988 36.6575 144.902 37.1498 144.665 37.1498" stroke="#DD9E5E" stroke-linecap="round"/>
<path d="M156.744 34.7607C156.537 34.7814 156.433 35.0562 156.323 35.1983C156.052 35.5479 155.794 35.8575 155.628 36.2748C155.452 36.7164 155.251 37.1585 155.178 37.6316C155.11 38.0689 155.107 38.5176 155.107 38.9589C155.107 39.5482 155.137 40.1981 154.93 40.7581C154.766 41.1994 154.54 41.6237 154.443 42.0854C154.333 42.606 154.046 43.0837 153.959 43.6093C153.885 44.049 153.656 44.086 153.268 44.0517C153.148 44.0411 152.983 43.7111 152.941 43.6068C152.879 43.4513 152.894 43.2867 152.894 43.1226C152.894 42.886 152.761 42.7219 152.673 42.5032" stroke="#DD9E5E" stroke-linecap="round"/>
<path d="M154.664 41.1758C154.664 40.9052 154.46 40.5636 154.33 40.3352C154.051 39.8451 153.753 39.3623 153.467 38.8752C153.269 38.5377 153.077 38.2654 152.914 37.9215C152.817 37.7165 152.835 37.4747 152.762 37.2628C152.7 37.0836 152.725 36.8975 152.693 36.7122C152.652 36.4781 152.584 36.2431 152.521 36.0142C152.49 35.9025 152.417 35.8209 152.383 35.7143C152.34 35.5794 152.373 35.4364 152.319 35.3014C152.249 35.1246 152.187 35.046 152.187 34.8491" stroke="#DD9E5E" stroke-linecap="round"/>
<path d="M158.956 34.5837C159.148 34.8097 159.272 35.342 159.307 35.6333C159.373 36.1712 159.398 36.6976 159.398 37.2383C159.398 37.9712 159.535 38.6376 159.642 39.3595C159.68 39.6239 159.67 39.9008 159.664 40.1682C159.662 40.2409 159.577 40.3546 159.654 40.3255C159.881 40.2389 160.096 39.9999 160.283 39.8486C160.732 39.4863 161.143 39.086 161.424 38.5754C161.793 37.9026 161.924 37.1236 162.274 36.4419C162.448 36.1028 162.79 35.7267 163.075 35.4735C163.287 35.2853 163.575 35.225 163.783 35.0262C163.795 35.015 163.962 34.7705 163.98 34.7705C164.227 34.7705 164.132 35.7961 164.132 35.9331C164.132 36.4092 163.968 36.8575 163.886 37.3219C163.818 37.7149 163.645 38.0598 163.645 38.4673C163.645 38.6541 163.645 38.8409 163.645 39.0277C163.645 39.5294 163.557 40.0091 163.557 40.5123" stroke="#DD9E5E" stroke-linecap="round"/>
<path d="M159.796 31.4424C159.914 31.768 160.114 32.0852 160.293 32.3814C160.527 32.7683 160.702 32.9582 161.195 33.013C161.72 33.0714 162.393 32.9388 162.871 32.7181C163.082 32.621 163.304 32.1249 163.37 31.9193C163.461 31.6353 163.452 31.2868 163.38 31" stroke="#DD9E5E" stroke-linecap="round"/>
<path d="M165.99 34.8492C167.315 34.8492 168.649 34.921 169.962 34.7386C170.645 34.6438 171.263 34.3625 171.963 34.3625" stroke="#DD9E5E" stroke-linecap="round"/>
<path d="M168.512 34.9376C168.512 36.174 168.424 37.4002 168.424 38.6368C168.424 39.1328 168.247 39.5915 168.247 40.0894C168.247 40.2009 168.247 40.3123 168.247 40.4237C168.247 40.7011 168.074 40.884 167.981 41.1316" stroke="#DD9E5E" stroke-linecap="round"/>
<path d="M172.14 37.6807C172.15 37.5252 172.392 37.5922 172.504 37.5922C172.99 37.5922 173.46 37.5504 173.944 37.5135C174.653 37.4594 175.341 37.476 176.051 37.371C176.325 37.3304 176.647 37.3183 176.901 37.2136C177.144 37.1137 177.518 37.2059 177.67 36.9629C177.977 36.4761 177.438 36.0438 177.12 35.734C176.952 35.5708 176.749 35.449 176.562 35.3112C176.294 35.114 176 34.8496 175.684 34.741C175.245 34.5899 174.715 34.6721 174.254 34.6721C173.903 34.6721 173.505 34.8849 173.295 35.1736C173.225 35.2704 173.184 35.4212 173.133 35.5324C173.097 35.6112 173.117 35.7101 173.113 35.793C173.103 36.0167 173.017 36.1854 172.944 36.3902C172.83 36.7087 172.683 37.0711 172.484 37.3464C172.2 37.7393 171.668 38.1489 171.653 38.6786C171.651 38.7761 171.618 38.9608 171.703 39.0276C171.94 39.2141 172.156 39.398 172.45 39.4922C172.799 39.6039 173.183 39.6813 173.546 39.7257C173.761 39.7518 174.007 39.7246 174.215 39.7822C174.351 39.82 174.491 39.786 174.628 39.824C174.88 39.8943 175.102 39.9775 175.37 39.9813C175.85 39.988 176.361 39.8678 176.803 39.6716C176.976 39.5945 177.145 39.5644 177.317 39.4504" stroke="#DD9E5E" stroke-linecap="round"/>
<path d="M1.49049 51.0057C1.49049 50.7525 1.84661 50.2978 2.13201 50.2978C2.30081 50.2978 2.44222 50.1208 2.64326 50.1208C2.89211 50.1208 3.16527 50.0982 3.39785 50.0077C3.78758 49.8562 4.21517 49.8553 4.63173 49.8553C5.22867 49.8553 5.67132 49.8713 6.0475 50.3764C6.31735 50.7388 6.44568 51.1253 6.44568 51.5612C6.44568 51.7556 6.386 51.8767 6.33262 52.0577C6.28662 52.2135 6.17559 52.3595 6.14336 52.5099C6.08536 52.7806 5.91847 52.7072 5.67635 52.8417C5.29518 53.0535 4.92984 53.309 4.52358 53.4587C4.43712 53.4905 4.33952 53.4622 4.25812 53.5029C4.11457 53.5747 3.98321 53.6436 3.83536 53.7069C3.59269 53.8109 3.43784 53.8372 3.17418 53.8372C3.12463 53.8372 2.81456 53.8042 2.87185 53.906C2.91327 53.9797 3.31043 53.9257 3.40276 53.9257C3.7208 53.9257 4.09963 53.9849 4.41052 53.9159C4.59277 53.8754 4.70824 53.7865 4.90702 53.8667C5.37105 54.0538 6.05429 54.0815 6.40144 54.5058C6.66126 54.8233 6.63011 55.2024 6.7775 55.5627C6.86345 55.7728 6.9893 56.0093 7.0405 56.2288C7.12066 56.5723 7.22346 56.9891 7.09949 57.3324C6.95427 57.7345 6.65292 57.9015 6.31296 58.114C5.92698 58.3552 5.5606 58.51 5.09382 58.5269C4.6672 58.5424 4.25632 58.5126 3.83536 58.4483C3.51172 58.3988 3.20498 58.189 2.8866 58.0943C2.48549 57.9751 2.12996 57.6838 1.7412 57.5634C1.65748 57.5375 1.67315 57.4651 1.57898 57.4651C1.45242 57.4651 1.3131 57.422 1.20046 57.3668C0.955762 57.2467 1.00382 57.0859 1.00382 56.8457" stroke="#DD9E5E" stroke-linecap="round"/>
<path d="M9.7196 50.5633C9.7196 50.7184 9.68099 50.8635 9.67536 51.0156C9.66862 51.1976 9.48501 51.3403 9.42957 51.517C9.37133 51.7026 9.32497 51.8916 9.32142 52.0872C9.31605 52.3827 9.1781 52.6524 9.1002 52.9328C8.96001 53.4375 8.7241 54.0017 8.80034 54.5353C8.83243 54.76 8.92499 54.9704 8.95764 55.199C8.99254 55.4433 9.02591 55.6807 9.1002 55.9167C9.26728 56.4474 9.3332 56.9161 9.67536 57.3865C9.99014 57.8194 10.375 58.1852 10.7618 58.5516C10.8412 58.6268 10.9463 58.7395 11.0469 58.7826C11.2035 58.8498 11.5115 58.7964 11.6761 58.7925C12.2649 58.7785 12.7189 58.4814 13.2049 58.1927C13.676 57.9131 13.9307 57.2748 14.3553 56.9097C14.6649 56.6434 14.8756 56.3725 15.0828 56.0248C15.2977 55.6644 15.5568 55.3532 15.6825 54.9434C15.9922 53.9341 15.7162 52.8858 15.4515 51.9004C15.2934 51.3121 15.0765 50.5212 14.6109 50.0914C14.404 49.9005 14.2923 49.6655 14.0554 49.5015C13.801 49.3254 13.5988 49.1664 13.2836 49.1033C12.9456 49.0357 12.5941 49.0591 12.2513 49.0591C12.1134 49.0591 11.9085 49.0227 11.7793 49.0886C11.3329 49.316 11.0165 49.7463 10.7175 50.1307C10.5176 50.3878 10.1376 50.4305 9.88183 50.6076C9.6093 50.7962 9.67536 51.0234 9.67536 51.3597" stroke="#DD9E5E" stroke-linecap="round"/>
<path d="M19.63 60.5621C19.7895 60.5621 19.7889 59.7936 19.8291 59.633C19.9233 59.256 20.0616 58.8798 20.1068 58.4925C20.1492 58.1302 20.0828 58.1997 20.4239 58.2565C20.7633 58.3131 21.0584 58.3499 21.4095 58.3499C22.1169 58.3499 22.8177 58.2694 23.5234 58.2615C23.809 58.2582 24.0599 58.173 24.3419 58.173C24.5678 58.173 24.7786 58.241 25.003 58.259C25.345 58.2864 25.6522 58.3942 26.0034 58.3942C26.1303 58.3942 26.2349 58.4184 26.3549 58.4384C26.5211 58.4661 26.462 58.7954 26.5098 58.9005C26.6528 59.2152 26.6204 59.54 26.6204 59.8984C26.6204 60.0626 26.6204 60.1706 26.5515 60.3212C26.4688 60.5023 26.6039 60.5621 26.3549 60.5621" stroke="#DD9E5E" stroke-linecap="round"/>
<path d="M24.9391 58.1288C24.9391 57.7781 24.9055 57.5172 24.7818 57.1898C24.6851 56.9338 24.6025 56.5643 24.5827 56.2976C24.5569 55.9487 24.4082 55.6293 24.4082 55.2726C24.4082 54.8368 24.3477 54.353 24.4426 53.9257C24.5139 53.6048 24.5156 52.9663 24.278 52.7287C24.1272 52.5779 24.0278 52.4635 23.7937 52.4313C23.2614 52.3578 22.6747 52.4214 22.1371 52.4214C21.6293 52.4214 21.5324 52.8948 21.5324 53.326C21.5324 53.5341 21.5788 53.8117 21.5226 54.0142C21.4472 54.2858 21.2868 54.5432 21.1933 54.8155C20.9793 55.4378 20.7979 56.0542 20.5444 56.6589C20.3828 57.0443 20.3379 57.451 20.3379 57.8633" stroke="#DD9E5E" stroke-linecap="round"/>
<path d="M28.744 51.8905C28.744 52.4575 28.744 53.0244 28.744 53.5914C28.744 53.991 28.7502 54.3913 28.744 54.7909C28.737 55.2332 28.6047 55.6558 28.5572 56.0936C28.5048 56.575 28.5227 57.0599 28.5227 57.5437C28.5227 57.8659 28.39 58.119 28.39 58.4384" stroke="#DD9E5E" stroke-linecap="round"/>
<path d="M28.921 55.1203C29.2333 55.1203 29.3537 55.4131 29.6289 55.543C29.8513 55.6481 30.1758 55.6627 30.4179 55.693C30.5928 55.7148 30.7813 55.7594 30.9586 55.7372C31.1695 55.7109 31.3638 55.6954 31.5805 55.6954C32.1117 55.6954 32.3026 55.3408 32.7259 55.0957C32.8327 55.0339 32.9556 54.9153 33.0798 54.9015C33.2014 54.888 33.3014 54.8588 33.3895 54.7663C33.6339 54.5097 33.5665 53.896 33.5665 53.5742C33.5665 53.128 33.5223 52.6825 33.5223 52.2347C33.5223 51.9774 33.478 51.9249 33.478 52.247C33.478 52.7843 33.4745 53.3213 33.4289 53.8569C33.3898 54.3165 33.1181 54.7305 33.0798 55.1891C33.0711 55.2946 32.9914 55.3682 32.9914 55.4767C32.9914 55.6151 32.9914 55.7536 32.9914 55.8921C32.9914 56.2105 32.9102 56.6491 33.0135 56.9588C33.0719 57.1342 33.1001 57.237 33.1904 57.3816C33.2792 57.5236 33.1683 57.8253 33.1683 57.9862C33.1683 58.2818 33.2487 58.5994 32.9914 58.7924" stroke="#DD9E5E" stroke-linecap="round"/>
<path d="M35.5132 55.43C35.9327 55.43 36.3522 55.43 36.7717 55.43C37.0434 55.43 37.318 55.5144 37.5901 55.5406C37.8823 55.5687 38.1745 55.5627 38.4676 55.5627C38.6784 55.5627 38.8791 55.5116 39.087 55.4841C39.3389 55.4507 39.5981 55.4851 39.8514 55.4718C40.1565 55.4557 40.4523 55.3912 40.7486 55.3218C40.9856 55.2664 41.227 55.273 41.4516 55.1842C41.921 54.9986 40.5049 53.6695 40.3357 53.4735C39.6211 52.6461 38.5278 52.6427 37.5041 52.6427C37.116 52.6427 36.7878 52.6712 36.4128 52.7312C36.2976 52.7496 36.0419 52.7313 35.9802 52.8492C35.8486 53.1003 35.7583 53.403 35.6656 53.6701C35.5545 53.9903 35.5099 54.3347 35.405 54.6582C35.2956 54.996 35.2035 55.3124 35.2035 55.6709C35.2035 56.0797 35.2477 56.483 35.2477 56.8949C35.2477 58.1329 37.1784 57.9961 38.0252 57.9961C38.4267 57.9961 38.8281 57.9961 39.2296 57.9961C39.4515 57.9961 39.6181 57.9934 39.8219 57.9076C39.93 57.8621 39.9667 57.6524 40.026 57.5536" stroke="#DD9E5E" stroke-linecap="round"/>
<path d="M43.4569 52.1495C43.3068 52.2696 43.3103 52.7223 43.2695 52.8994C43.1735 53.3153 43.1313 53.745 43.0612 54.1659C42.9969 54.5517 43.0309 54.9745 42.9987 55.3657C42.9598 55.8375 42.8945 56.2952 42.8945 56.7696C42.8945 57.206 42.9695 57.6368 42.9695 58.0715C42.9695 58.2098 42.9369 58.561 43.107 58.561C43.6492 58.561 44.1549 58.1004 44.3547 57.6257C44.481 57.3257 44.5061 56.9961 44.638 56.6863C44.7711 56.3738 44.8577 56.0332 45.0525 55.751C45.3068 55.3828 45.567 55.0243 45.8566 54.6825C46.1508 54.3352 46.4255 53.9979 46.7856 53.716C46.9914 53.5548 47.2139 53.4621 47.4313 53.3243C47.6567 53.1815 47.8062 53.0745 47.8062 52.8119C47.8062 52.6689 47.8062 52.5259 47.8062 52.3828C47.8062 52.3456 47.8062 52.6701 47.8062 52.7369C47.8062 53.7319 47.8062 54.7269 47.8062 55.7219C47.8062 56.4153 47.7592 57.098 47.9375 57.7716C47.9668 57.8823 47.9937 57.9761 47.9937 58.0903C47.9937 58.1557 48.0549 58.1939 48.0687 58.2631C48.0828 58.3337 48.1617 58.7754 48.0687 58.636" stroke="#DD9E5E" stroke-linecap="round"/>
<path d="M43.7568 49.1875C43.783 49.5019 44.1444 49.901 44.3567 50.1248C44.5287 50.3061 44.7184 50.4055 44.9192 50.5393C45.2616 50.7676 45.8611 50.5092 46.1669 50.3206C46.7174 49.9811 46.9302 49.6141 46.9813 49" stroke="#DD9E5E" stroke-linecap="round"/>
<path d="M115.205 52.187C115.205 52.4021 115.201 52.6111 115.166 52.8244C115.136 53.0007 115.093 53.1514 115.093 53.3327C115.093 53.4296 115.105 53.5352 115.074 53.6284C115.012 53.8145 115.112 53.9931 115.147 54.1742C115.184 54.3667 115.167 54.5638 115.205 54.7574C115.236 54.9109 115.28 55.0404 115.28 55.199C115.28 55.5314 115.308 55.8802 115.251 56.2072C115.212 56.435 115.269 56.6674 115.214 56.8946C115.167 57.0878 115.093 57.2976 115.093 57.4945C115.093 57.8691 114.994 58.4811 115.299 58.7526C115.378 58.8229 115.414 58.9088 115.514 58.9651C115.693 59.0664 115.92 59.0484 116.118 59.0484C116.458 59.0484 116.798 59.0484 117.138 59.0484C117.195 59.0484 117.305 59.069 117.361 59.0442C117.641 58.9197 117.845 58.594 118.111 58.4318C118.314 58.308 118.503 58.2343 118.696 58.1111C118.86 58.0069 119.126 57.925 119.311 57.884C119.408 57.8625 119.555 57.8712 119.555 57.7569C119.555 57.494 119.505 57.3328 119.388 57.0987C119.242 56.8072 119.045 56.6509 118.851 56.403C118.667 56.1685 118.252 55.9913 117.967 55.9072C117.893 55.8853 117.831 55.8038 117.755 55.7656C117.606 55.6913 117.479 55.5825 117.334 55.5031C116.973 55.3049 115.726 55.1865 116.139 55.1865C116.672 55.1865 117.206 55.149 117.738 55.149C117.993 55.149 118.226 55.1394 118.476 55.0907C118.581 55.0702 118.729 55.1077 118.824 55.0553C119.163 54.8666 119.553 54.8312 119.659 54.3825C119.753 53.9865 119.365 53.5042 119.209 53.1743C118.981 52.6943 118.624 52.258 118.242 51.887C117.879 51.534 117.309 51.4041 116.818 51.3996C116.398 51.3958 115.963 51.3567 115.559 51.4913C115.051 51.6609 115.24 52.2645 114.943 52.5619" stroke="#DD9E5E" stroke-linecap="round"/>
<path d="M126.791 53.7992C126.74 53.7864 126.732 53.6906 126.714 53.6492C126.654 53.509 126.551 53.4045 126.452 53.2909C126.172 52.9708 125.88 52.7603 125.535 52.5244C125.006 52.163 124.463 51.9818 123.829 51.9995C123.388 52.0117 122.89 52.3389 122.779 52.7681C122.686 53.1284 122.409 53.4032 122.315 53.7658C122.265 53.9589 122.205 54.1677 122.181 54.3658C122.158 54.5619 122.074 54.7167 122.036 54.9032C121.926 55.435 121.624 56.0708 121.879 56.6112C122.061 56.9947 122.285 57.3963 122.571 57.7111C122.766 57.9258 123.066 58.2871 123.346 58.388C123.633 58.4919 124.071 58.5628 124.371 58.5068C124.748 58.4362 125.1 58.099 125.433 57.911C125.549 57.8455 125.684 57.8645 125.8 57.7819C125.907 57.705 126.005 57.6154 126.116 57.5486" stroke="#DD9E5E" stroke-linecap="round"/>
<path d="M129.191 54.9991C129.208 55.0964 129.324 55.1464 129.416 55.1491C129.688 55.1569 129.953 55.2058 130.226 55.222C130.87 55.2602 131.536 55.3076 132.178 55.2241C132.322 55.2052 132.457 55.1491 132.603 55.1491C132.921 55.1491 133.2 55.0741 133.519 55.0741C133.606 55.0741 133.778 55.1204 133.757 54.9908C133.72 54.7643 133.643 54.5905 133.559 54.3784C133.431 54.0559 133.248 53.6355 133.24 53.2827C133.235 53.048 133.325 52.6723 133.128 52.5037C132.8 52.2243 132.085 52.2474 131.686 52.2079C131.246 52.1643 130.823 52.1098 130.39 52.0454C130.229 52.0214 129.69 51.9018 129.528 52.0246C129.326 52.1775 129.181 52.5246 129.095 52.7495C128.969 53.0793 128.834 53.4806 128.784 53.8305C128.722 54.2705 128.703 54.7378 128.703 55.1824C128.703 55.6574 128.685 56.1367 128.705 56.6113C128.73 57.1683 129.181 57.466 129.582 57.7737C130.105 58.1744 130.721 58.1486 131.349 58.1486C131.806 58.1486 132.388 58.2443 132.828 58.1236C133.343 57.9821 133.779 57.6926 134.244 57.4529C134.547 57.2963 134.627 57.3013 134.627 56.9488" stroke="#DD9E5E" stroke-linecap="round"/>
<path d="M136.277 58.8985C136.277 57.4301 136.352 55.9633 136.352 54.495C136.352 54.0381 136.352 53.5813 136.352 53.1244C136.352 52.8883 136.352 52.6522 136.352 52.4162C136.352 52.241 136.281 52.1846 136.481 52.1954C137.248 52.2367 138.013 52.262 138.781 52.262C139.031 52.262 139.306 52.2923 139.551 52.2433C139.875 52.1785 140.2 52.3745 140.514 52.3745" stroke="#DD9E5E" stroke-linecap="round"/>
<path d="M142.426 52.9744C142.051 53.0012 141.612 53.009 141.468 53.416C141.236 54.0719 141.281 54.8326 141.376 55.5074C141.444 55.9886 141.451 56.4553 141.451 56.9405C141.451 57.1319 141.417 57.2966 141.589 57.4237C142.09 57.7955 142.722 57.8388 143.326 57.8487C143.498 57.8515 143.905 57.8606 144.047 57.9903C144.236 58.164 144.415 58.2986 144.676 58.2986C145.063 58.2986 145.379 58.1751 145.717 57.982C146.019 57.8096 146.23 57.4513 146.438 57.1821C146.721 56.8144 146.711 56.2143 146.73 55.7698C146.751 55.2616 146.603 54.7551 146.552 54.2513C146.519 53.9218 146.431 53.6801 146.25 53.4035C146.106 53.1825 145.986 52.9223 145.78 52.7536C145.584 52.5937 145.372 52.4322 145.146 52.3162C144.614 52.0425 144.172 51.8496 143.568 51.8496C143.082 51.8496 142.763 52.0711 142.359 52.3079C142.167 52.4208 141.962 52.5544 141.847 52.7495C141.732 52.945 141.538 53.0743 141.418 53.2702C141.336 53.4035 141.27 53.5126 141.151 53.6118" stroke="#DD9E5E" stroke-linecap="round"/>
<path d="M151.5 53.4243C151.625 53.4243 151.75 53.4286 151.875 53.416C152.248 53.3782 152.517 53.1989 152.845 53.0348C153.134 52.8905 153.395 52.7506 153.633 52.5266C153.779 52.3881 153.945 52.2361 154.124 52.1412C154.638 51.8697 155.166 52.0272 155.641 52.3203C155.913 52.4885 156.176 52.6446 156.374 52.8994C156.506 53.0688 156.69 53.2121 156.784 53.4077C156.917 53.6842 156.571 54.0522 156.411 54.2409C156.143 54.5595 155.757 54.7556 155.424 54.9991C155.086 55.2468 154.669 55.6034 154.237 55.6698C154.01 55.7047 153.588 55.7092 153.395 55.574C153.27 55.4859 152.972 55.1217 153.083 54.9408C153.126 54.8697 153.538 54.9261 153.608 54.9324C153.961 54.9646 154.195 55.1422 154.516 55.2574C154.884 55.3894 155.234 55.5992 155.586 55.7656C155.75 55.843 155.837 56.0367 155.982 56.1197C156.176 56.2302 156.153 56.5298 156.011 56.7051C155.628 57.1809 154.979 57.3455 154.47 57.6445C154.281 57.7553 154.177 57.8209 153.958 57.8653C153.72 57.9134 153.451 57.9573 153.222 58.0382C153.083 58.0872 152.935 58.1203 152.791 58.1465C152.6 58.1812 152.322 57.5426 152.25 57.4154C152.037 57.0437 151.945 56.6639 151.612 56.3864" stroke="#DD9E5E" stroke-linecap="round"/>
<path d="M158.361 53.5743C158.361 53.4732 158.467 53.4217 158.54 53.366C158.638 53.2915 158.693 53.1497 158.765 53.0494C158.869 52.9044 158.855 52.7614 158.894 52.5911C158.971 52.2546 159.43 52.2995 159.682 52.2995C159.954 52.2995 160.226 52.2995 160.498 52.2995C160.68 52.2995 160.794 52.3409 160.956 52.3703C161.235 52.4209 161.518 52.3747 161.798 52.4307C162.089 52.4889 162.384 52.5201 162.633 52.6911C162.885 52.8642 162.84 53.1039 162.879 53.3868C162.919 53.6723 162.894 53.9627 162.927 54.2492C162.947 54.4256 162.901 54.5382 162.852 54.6991C162.822 54.7974 162.716 54.8465 162.71 54.9449C162.705 55.0389 162.723 55.1302 162.673 55.2157C162.629 55.2894 162.568 55.3614 162.56 55.449C162.54 55.6973 162.485 55.9287 162.485 56.1822C162.485 56.3437 162.509 56.4784 162.525 56.6321C162.559 56.9547 162.561 57.4328 162.806 57.6778C162.898 57.7698 162.925 58.5473 162.823 58.5985" stroke="#DD9E5E" stroke-linecap="round"/>
<path d="M162.11 55.2989C161.965 55.2627 161.877 55.149 161.717 55.149C161.589 55.149 161.494 55.0794 161.369 55.074C161.173 55.0654 160.907 55.0807 160.723 55.0073C160.511 54.9227 160.139 55.0395 159.936 55.0823C159.736 55.1243 159.526 55.1212 159.365 55.2531C159.241 55.3547 159.061 55.3884 158.944 55.5052C158.872 55.5776 158.81 55.654 158.728 55.7114C158.645 55.7685 158.373 56.0122 158.361 56.1155C158.341 56.2822 158.286 56.4198 158.286 56.5946C158.286 56.7732 158.398 56.8804 158.398 57.0612C158.398 57.1722 158.435 57.3496 158.528 57.4028C158.576 57.4306 158.603 57.596 158.615 57.6444C158.637 57.7321 158.722 57.8161 158.734 57.8881C158.75 57.9873 158.985 58.111 159.092 58.111C159.323 58.111 159.689 58.1831 159.9 58.0881C160.126 57.9866 160.358 57.9286 160.59 57.8444C160.676 57.8129 160.743 57.7367 160.844 57.7069C160.926 57.6827 161.024 57.6452 161.102 57.6277C161.507 57.5377 161.981 57.6794 162.373 57.5486" stroke="#DD9E5E" stroke-linecap="round"/>
<path d="M167.884 51.6996C167.726 51.5309 167.977 51.4605 168.134 51.3955C168.492 51.2476 168.824 51.0049 169.176 50.8372C169.494 50.6858 169.787 50.706 170.007 50.4185C170.186 50.1856 170.474 49.8538 170.547 49.5645C170.607 49.3221 170.903 50.057 170.93 50.1165C171.099 50.4967 171.175 50.8616 171.24 51.2684C171.318 51.7485 171.31 52.3929 171.167 52.8619C170.822 53.998 170.446 55.169 170.638 56.378C170.763 57.1638 170.996 57.9146 170.996 58.711" stroke="#DD9E5E" stroke-linecap="round"/>
<path d="M173.921 54.6991C174.592 54.6991 175.262 54.6991 175.933 54.6991C176.194 54.6991 176.454 54.6991 176.714 54.6991C176.827 54.6991 176.939 54.6991 177.052 54.6991C177.192 54.6991 177.308 54.6317 177.445 54.6241C177.85 54.6016 178.252 54.5224 178.649 54.4783C178.836 54.4576 179.018 54.44 179.193 54.4012C179.246 54.3893 179.305 54.4101 179.358 54.3949C179.429 54.3746 179.478 54.3035 179.553 54.2783C179.742 54.2154 179.937 54.1032 180.07 53.9575C180.238 53.7737 180.511 53.6247 180.61 53.3826C180.715 53.1259 180.61 52.7614 180.635 52.4869C180.653 52.2815 180.67 52.0863 180.67 51.8787C180.67 51.3374 180.391 50.8804 180.147 50.4227C180.053 50.2455 179.942 50.1067 179.812 49.9602C179.765 49.9071 179.642 49.8885 179.578 49.8602C179.352 49.7598 179.128 49.6888 178.891 49.6207C178.135 49.4038 177.373 49.4499 176.594 49.4499C176.226 49.4499 175.701 49.3906 175.571 49.8248C175.495 50.0787 175.473 50.3089 175.429 50.5664C175.384 50.832 175.334 51.1158 175.306 51.3829C175.254 51.8801 175.151 52.3792 175.158 52.8785C175.162 53.1476 175.261 53.4021 175.271 53.6659C175.28 53.9294 175.308 54.1883 175.308 54.4533C175.308 55.036 175.335 55.6288 175.346 56.2155C175.356 56.7724 175.546 57.2556 175.702 57.7756C175.747 57.9264 175.838 58.0413 175.889 58.186C175.925 58.2845 176.026 58.3145 175.908 58.3735" stroke="#DD9E5E" stroke-linecap="round"/>
<path d="M173.958 57.2487C174.015 56.9464 174.161 56.9778 174.452 56.9467C174.838 56.9053 175.228 56.8363 175.617 56.8363C176.121 56.8363 176.615 56.8402 177.114 56.7633C177.734 56.668 178.481 56.6622 179.095 56.7988" stroke="#DD9E5E" stroke-linecap="round"/>
<path d="M53.4493 58.5214C53.3796 57.5476 53.3282 56.5663 53.2208 55.5992C53.1877 55.3019 53.2527 55.0089 53.2571 54.7149C53.2592 54.5729 53.2493 54.4321 53.2763 54.292C53.3107 54.1129 53.3948 53.9341 53.4087 53.7537C53.4311 53.4624 53.4109 53.1615 53.4109 52.8693C53.4109 52.7611 53.3553 52.409 53.4173 52.3161C53.486 52.213 54.0895 52.2932 54.1969 52.2926C54.5247 52.2907 54.9587 52.3316 55.2778 52.2371C56.0253 52.0156 56.8813 52.1004 57.6595 52.1004C58.0809 52.1004 58.5149 52.6806 58.6207 53.0616C58.794 53.6855 58.4536 54.3666 58.217 54.9242C57.9784 55.4868 57.9863 56.1928 57.9863 56.7954C57.9863 57.3734 58.0248 57.9452 58.0248 58.5214" stroke="#DD9E5E" stroke-linecap="round"/>
<path d="M60.7931 53.7152C60.3774 54.1309 60.3751 55.1843 60.5838 55.706C60.7418 56.1011 60.9436 56.4744 61.1263 56.8595C61.2711 57.1645 61.5301 57.4389 61.8099 57.62C61.9376 57.7026 62.0774 57.8039 62.1965 57.9019C62.2889 57.978 62.5705 58.0104 62.6963 58.0237C63.0463 58.0605 63.336 58.0804 63.6704 57.9617C64.3976 57.7037 65.1606 57.5042 65.454 56.7143C65.5885 56.3523 65.5993 55.9544 65.5993 55.5693C65.5993 55.0986 65.6392 54.6065 65.5907 54.1382C65.5311 53.5614 65.2412 52.9283 64.8986 52.4635C64.5696 52.0169 63.6917 52.1605 63.2197 52.1794C63.0278 52.187 62.8502 52.2541 62.6579 52.2541C62.5279 52.2541 62.4602 52.3824 62.3482 52.4442C62.031 52.6192 61.6619 52.7017 61.4104 52.9847C61.2425 53.1735 61.0333 53.3409 60.9469 53.5785C60.8867 53.7439 60.8316 53.9074 60.7547 54.0613" stroke="#DD9E5E" stroke-linecap="round"/>
<path d="M67.0988 60.6361C67.0988 60.1776 67.0988 59.719 67.0988 59.2605C67.0988 59.0517 67.6034 58.6749 67.7909 58.5812C67.9125 58.5204 68.0475 58.4694 68.1754 58.4146C68.4629 58.2914 68.7777 58.2884 69.0768 58.1924C69.724 57.9848 70.3497 57.9831 71.0463 57.9831C71.6629 57.9831 72.2795 57.9831 72.8961 57.9831C73.0914 57.9831 73.2828 58.0853 73.4814 58.0963C73.6896 58.1079 73.9162 58.1678 74.0774 58.312C74.2665 58.4813 74.3015 58.6302 74.3358 58.8674C74.3678 59.0884 74.4811 59.2926 74.4811 59.5211C74.4811 59.6948 74.4811 59.8685 74.4811 60.0423C74.4811 60.1223 74.525 60.3706 74.4042 60.2901" stroke="#DD9E5E" stroke-linecap="round"/>
<path d="M72.9431 57.8677C72.9267 57.6872 72.8662 57.535 72.8662 57.3465C72.8662 57.2129 72.8622 57.0785 72.8662 56.945C72.8697 56.8308 72.9087 56.6952 72.9346 56.5818C72.971 56.4227 72.9231 56.2514 72.9517 56.0905C72.981 55.9255 73.0527 55.7811 73.0884 55.6206C73.1458 55.3624 73.1102 55.0064 73.0884 54.7491C73.0641 54.463 72.9755 54.2113 72.9132 53.9374C72.882 53.7999 72.8663 53.6286 72.8086 53.5016C72.6862 53.2323 72.674 52.8731 72.674 52.581C72.674 52.4859 72.7103 52.2857 72.5779 52.2563C72.3926 52.2151 72.238 52.1172 72.0396 52.1025C71.8795 52.0906 71.6763 52.0755 71.5162 52.1046C71.386 52.1283 71.268 52.2025 71.1381 52.2328C71.0393 52.2558 70.9429 52.2483 70.8498 52.2926C70.6726 52.377 70.442 52.322 70.2495 52.3503C70.0567 52.3786 69.8609 52.3695 69.6664 52.3695C69.5938 52.3695 69.3601 52.3292 69.299 52.378C69.1831 52.4708 69.2611 52.7649 69.3075 52.8693C69.4855 53.2698 69.4058 53.7787 69.4058 54.2151C69.4058 54.6427 69.2583 55.0766 69.1452 55.4839C69.0717 55.7485 69.01 56.0448 68.8867 56.2913C68.6139 56.8369 68.3548 57.3882 68.0387 57.8848C67.9894 57.9623 67.9038 58.0153 67.8507 58.0835C67.7978 58.1515 67.7879 58.2614 67.7332 58.327C67.6868 58.3827 67.6397 58.4882 67.5816 58.5214C67.4893 58.5741 67.3862 58.6118 67.2911 58.6752" stroke="#DD9E5E" stroke-linecap="round"/>
<path d="M76.019 58.6752C76.019 58.1614 75.8802 57.6267 75.8076 57.118C75.7539 56.7424 75.7831 56.3595 75.7413 55.9837C75.701 55.6211 75.762 55.3189 75.7905 54.9627C75.8029 54.807 75.9145 54.6869 75.9507 54.5355C75.9969 54.342 76.0569 54.1185 76.1194 53.931C76.2402 53.5686 76.2426 53.2706 76.2497 52.8864C76.2516 52.7847 76.2382 52.4007 76.2946 52.3161C76.3529 52.2286 76.7165 52.2266 76.7901 52.2136C77.1771 52.1453 77.5692 52.1046 77.9629 52.1004C78.5081 52.0944 79.0355 52.1714 79.5777 52.1773C80.0166 52.182 80.4538 52.2796 80.8807 52.3695C81.1841 52.4334 81.2272 52.4633 81.372 52.7241C81.5484 53.0415 81.4788 53.4402 81.4788 53.7943C81.4788 54.1297 81.4728 54.4653 81.4212 54.7961C81.3118 55.4957 81.246 56.2298 80.9576 56.8852C80.748 57.3617 80.6714 57.8876 80.6714 58.406" stroke="#DD9E5E" stroke-linecap="round"/>
<path d="M83.6285 52.4331C83.4698 52.4728 83.5849 54.4007 83.5849 54.765C83.5849 55.2228 83.5413 55.6775 83.5413 56.138C83.5413 56.5096 83.5849 56.8694 83.5849 57.2373C83.5849 57.6148 83.6285 57.9829 83.6285 58.3609C83.6285 58.3761 83.6157 58.5883 83.6479 58.5837C83.8044 58.5613 84.0368 58.1922 84.1467 58.0897C84.3961 57.8571 84.5976 57.6401 84.7787 57.3584C84.9108 57.1529 85.0321 56.9671 85.1831 56.7676C85.477 56.3792 85.7081 55.9271 86.0451 55.5713C86.2658 55.3384 86.4918 55.0539 86.6699 54.7868C86.8501 54.5164 87.0703 54.1527 87.3116 53.9368C87.6032 53.6759 88.0362 53.1916 88.1179 52.8036C88.2433 52.2079 88.5143 52.8604 88.5877 53.145C88.7196 53.657 88.6441 54.2292 88.5635 54.7432C88.4635 55.3806 88.354 56.0221 88.2898 56.6634C88.2323 57.2393 88.0743 57.7782 88.0743 58.3609" stroke="#DD9E5E" stroke-linecap="round"/>
<path d="M95.2662 57.184C95.2314 57.3578 94.8805 57.652 94.7625 57.77C94.5731 57.9595 94.3643 58.0878 94.1329 58.2035C93.7242 58.4078 93.0775 58.2737 92.6267 58.2737C92.3432 58.2737 92.0831 58.0993 91.801 58.0993C90.7921 58.0993 90.7767 56.3496 90.7767 55.6101C90.7767 55.141 90.8513 54.7097 90.8978 54.2443C90.9257 53.9649 90.9676 53.4688 91.1351 53.2176C91.2785 53.0026 91.2536 52.7357 91.5516 52.6946C91.6364 52.6829 91.7046 52.5958 91.7792 52.559C91.8918 52.5035 92.0213 52.4813 92.1376 52.4331C92.3918 52.3277 92.6556 52.2321 92.927 52.1812C93.1608 52.1374 93.4498 52.1639 93.6874 52.1716C94.12 52.1855 94.4582 52.5249 94.7722 52.7818C94.932 52.9126 95.0966 53.1043 95.2662 53.208C95.4274 53.3065 95.4401 53.4791 95.6584 53.5227" stroke="#DD9E5E" stroke-linecap="round"/>
<path d="M98.0993 52.1716C98.0822 52.5129 97.9685 52.8321 97.9685 53.1765C97.9685 53.4504 97.984 53.7082 98.0097 53.978C98.0649 54.5576 98.0557 55.1406 98.0557 55.7263C98.0557 56.2931 98.0384 56.8479 97.9152 57.402C97.8699 57.6058 97.7664 57.8031 97.6973 58.0025C97.6513 58.1353 97.5327 58.3114 97.5327 58.448" stroke="#DD9E5E" stroke-linecap="round"/>
<path d="M98.0557 55.4842C98.2334 55.3633 98.3102 55.1924 98.4674 55.0483C98.6605 54.8713 98.9205 54.7733 99.1284 54.6294C99.2982 54.5119 99.5039 54.4064 99.6878 54.3073C99.8261 54.2329 99.9491 54.1574 100.061 54.0458C100.149 53.9579 100.26 53.9308 100.344 53.8473C100.532 53.6591 100.759 53.4988 100.962 53.3291C101.098 53.2143 101.258 53.1731 101.388 53.0433C101.474 52.9574 101.553 52.7967 101.664 52.7479C101.817 52.6807 101.967 52.4883 102.085 52.3702C102.197 52.2587 102.414 52.1739 102.414 52.0408" stroke="#DD9E5E" stroke-linecap="round"/>
<path d="M99.0582 54.7868C99.0582 55.1407 99.3494 55.2646 99.4602 55.5714C99.5572 55.8399 99.8596 56.1137 100.053 56.3075C100.251 56.5051 100.372 56.7878 100.56 57C100.839 57.3159 101.128 57.5615 101.48 57.7701C101.57 57.8238 101.646 57.9992 101.744 58.0752C101.814 58.1296 101.982 58.0994 102.066 58.0994" stroke="#DD9E5E" stroke-linecap="round"/>
<path d="M109.519 58.5352C109.519 57.7363 109.563 56.9381 109.563 56.1379C109.563 55.5328 109.555 54.94 109.71 54.3533C109.771 54.1238 109.731 53.8643 109.737 53.6293C109.742 53.4275 109.911 53.2904 109.911 53.0845C109.911 52.8793 109.997 52.5009 109.8 52.4113C109.095 52.0907 108.347 52.7896 108.081 53.4017C107.779 54.0952 107.641 54.8442 107.243 55.4938C107.03 55.8408 106.747 56.1192 106.502 56.4431C106.272 56.7474 106.085 57.0344 105.88 57.3535C105.779 57.5096 105.683 57.6677 105.587 57.8281C105.527 57.9276 105.368 58.0445 105.335 58.1454C105.307 58.2285 105.049 58.5516 104.964 58.5328C104.578 58.447 104.594 57.7271 104.594 57.4431C104.594 56.8515 104.594 56.2598 104.594 55.6682C104.594 55.1338 104.681 54.6036 104.681 54.07C104.681 53.718 104.685 53.3755 104.724 53.0336C104.738 52.9157 104.855 52.8485 104.855 52.714C104.855 52.5283 104.986 52.3926 104.986 52.2151" stroke="#DD9E5E" stroke-linecap="round"/>
<path d="M56 26.1601C56 24.891 56 23.622 56 22.3529C56 21.3274 56.5953 20.6979 56.6621 19.7965C56.8292 17.5408 57.505 15.3912 58.2438 13.3225C58.8528 11.6173 59.245 10.7452 60.7083 9.68096C62.2361 8.56983 65.5669 9.27634 67.403 9.27634C69.9486 9.27634 72.765 12.5049 74.3551 14.095C74.6783 14.4183 74.3707 15.0259 74.8884 15.1985C75.4745 15.3939 75.5347 15.3337 75.7896 15.971C76.2377 17.091 80.651 17.7598 81.675 17.8469C88.6388 18.4396 95.456 19.6024 101.667 15.4008C106.031 12.4489 111.617 6.94411 111.617 1.33105" stroke="#DD9E5E" stroke-linecap="round"/>
<path d="M110.955 1C109.808 1 107.785 2.13329 106.725 2.65527C103.842 4.07452 99.5499 4.22007 96.3885 4.64159" stroke="#DD9E5E" stroke-linecap="round"/>
<path d="M110.293 1.66211C112.233 1.66211 113.005 2.03007 114.413 3.46451C115.57 4.64355 117.69 8.61423 119.562 8.61423" stroke="#DD9E5E" stroke-linecap="round"/>
</svg>
