<svg width="2727" height="262" viewBox="0 0 2727 262" fill="none" xmlns="http://www.w3.org/2000/svg">
<path d="M34.0298 9.14307C36.1247 23.5247 40.6212 37.1494 42.7069 51.4678C44.6705 64.9479 54.6827 74.5414 57.9861 87.3823C59.4526 93.0832 66.1027 97.0646 69.064 102.115C72.0999 107.294 74.7624 113.551 78.9227 118.062C87.0729 126.9 93.4493 137.527 103.895 143.873C121.358 154.482 131.619 170.28 151.614 178.305C172.175 186.558 194.874 191.51 216.721 196.064C239.009 200.71 256.228 206.13 277.418 214.207M32.936 6.97852C36.0946 8.27515 38.3036 11.0378 40.9765 12.9587C43.7885 14.9794 46.7464 15.6915 50.0228 16.9951C57.8881 20.1246 65.6777 20.9018 74.0821 22.0647C80.3886 22.9373 86.2555 25.0929 92.3483 26.6302M28.111 3C29.9616 15.7049 22.0876 27.4493 18.895 39.3692C15.6094 51.6363 10.659 62.5157 3 72.0407M1072.37 241.123C1072.37 240.507 1072.06 240.1 1072.06 239.523V238.128C1072.06 236.816 1072.57 235.514 1072.68 234.215C1072.84 232.461 1072.98 230.788 1072.98 229.017C1072.98 228.016 1072.37 227.333 1072.37 226.363C1072.37 225.49 1072.3 224.586 1072.39 223.717C1072.54 222.023 1072.98 220.494 1072.98 218.766V197.974C1072.98 197.262 1072.97 196.984 1073.63 196.562C1074.06 196.287 1074.46 196.126 1074.92 195.983C1080.6 194.237 1087.08 195.49 1092.98 195.49C1095.81 195.49 1098.57 195.685 1101.4 195.805C1102.52 195.853 1103.63 195.949 1104.76 195.949C1105.48 195.949 1105.16 197.666 1105.13 198.161C1105.07 199.347 1104.4 200.421 1104.37 201.615C1104.33 204.104 1104.61 206.711 1105.14 209.135C1105.43 210.488 1106.11 211.695 1106.49 213.015C1106.82 214.144 1106.67 215.426 1106.67 216.588C1106.67 218.006 1106.76 219.435 1106.43 220.824C1106.19 221.84 1105.79 222.829 1105.6 223.853C1104.52 229.593 1104.99 235.597 1104.99 241.429M1129.18 235.151C1129.9 235.548 1130.5 236.2 1131.33 236.367C1132.09 236.519 1132.8 236.594 1133.54 236.835C1136.29 237.735 1138.89 237.754 1141.74 237.754C1144.19 237.754 1146.72 237.636 1148.87 236.452C1149.73 235.982 1151.13 235.738 1151.84 235.082C1152.35 234.616 1152.72 234.005 1153.14 233.466C1153.62 232.845 1154.23 232.345 1154.68 231.697C1156.22 229.496 1156.35 226.907 1156.81 224.346C1157.1 222.721 1157.73 221.321 1157.81 219.625C1157.87 218.147 1157.97 216.634 1157.97 215.159C1157.97 212.484 1157.91 210.101 1157.25 207.485C1156.12 202.987 1153.29 199.007 1149.46 196.409C1147.89 195.343 1145.89 193.82 1143.95 193.652C1142.97 193.568 1142.14 193.04 1141.12 193.04C1138.8 193.04 1136.49 192.733 1134.17 192.733C1133.38 192.733 1132.46 192.589 1131.71 192.81C1130.64 193.124 1129.98 193.758 1129.15 194.503C1127.81 195.691 1126.39 196.659 1125.2 198.016C1124.52 198.785 1123.68 199.345 1123 200.101C1122.26 200.92 1121.65 201.88 1120.99 202.764C1119.77 204.39 1118.4 205.935 1117.47 207.74C1116.66 209.32 1116.32 210.367 1116.32 212.138C1116.32 214.373 1117.13 216.635 1117.66 218.783C1118.04 220.343 1118.46 221.892 1118.87 223.445C1119.31 225.106 1120.09 226.35 1120.91 227.8C1122.23 230.143 1124.73 231.894 1126.93 233.304C1127.69 233.791 1128.32 234.446 1129.11 234.878C1129.54 235.112 1130.06 235.418 1130.4 235.763M1166.39 236.988C1168.73 236.988 1171.07 237.038 1173.41 236.844C1174.92 236.718 1175.75 235.007 1176.27 233.789C1176.65 232.893 1177.15 232.059 1177.57 231.186C1178.22 229.834 1178.14 228.206 1178.45 226.763C1178.78 225.251 1178.82 223.712 1179.03 222.186C1179.33 220.087 1179.36 217.888 1179.41 215.771C1179.44 214.303 1179.9 212.867 1180.03 211.398C1180.16 209.863 1180.4 208.282 1180.77 206.788C1181.04 205.709 1181.57 204.707 1181.77 203.614C1182.06 202.057 1182.29 200.483 1182.63 198.935C1182.83 198.046 1183.06 197.189 1183.08 196.273C1183.09 196.062 1183 195.622 1183.11 195.422C1183.5 194.694 1186.17 194.458 1186.82 194.333C1188.21 194.071 1189.73 193.528 1191.15 193.499C1192.9 193.464 1194.65 193.499 1196.4 193.499C1199.18 193.499 1201.88 193.53 1204.64 193.806C1206.21 193.962 1206.98 194.262 1206.58 196.026C1206.37 196.939 1206.1 197.83 1205.9 198.74C1205.64 199.884 1205.74 201.097 1205.74 202.262C1205.74 206.137 1205.18 209.978 1205.51 213.866C1205.82 217.578 1206.82 221.238 1207.87 224.797C1208.25 226.095 1208.76 227.37 1208.81 228.736C1208.82 229.147 1208.73 229.57 1208.96 229.936C1209.31 230.492 1208.87 231.187 1208.65 231.731C1208.19 232.839 1207.82 233.88 1207.57 235.049C1207.39 235.944 1206.81 236.846 1206.66 237.754C1206.5 238.794 1206.36 239.738 1206.36 240.816M1222.59 192.887C1222.81 193.609 1223.38 194.324 1223.68 195.039C1224.27 196.441 1224.97 197.82 1225.62 199.199C1226.58 201.245 1227.71 203.012 1228.26 205.222C1228.72 207.101 1228.78 208.994 1229.26 210.871C1229.79 212.949 1229.92 215.028 1230.59 217.081C1231.19 218.953 1232.11 220.566 1233.07 222.254C1233.37 222.781 1233.78 223.162 1233.92 223.776C1234.22 225.103 1234.49 226.568 1235.15 227.766C1235.9 229.105 1236.88 230.852 1236.98 232.428C1237.04 233.331 1237.37 234.457 1237.67 235.304C1237.81 235.679 1238.14 236.852 1238.46 237.048C1239.35 237.58 1240.92 236.024 1241.36 235.372C1241.78 234.731 1241.95 233.957 1242.41 233.339C1242.85 232.753 1243.21 232.135 1243.45 231.441C1243.73 230.638 1243.93 229.813 1244.26 229.025C1244.7 227.96 1245.38 227.066 1245.9 226.043M1245.9 226.043C1245.91 226.022 1245.92 226.001 1245.93 225.98C1246.96 223.927 1248.2 221.818 1249 219.667C1250.11 216.641 1250.56 213.279 1251.38 210.156C1251.5 209.699 1251.6 209.239 1251.7 208.778M1245.9 226.043C1245.91 225.994 1245.92 225.944 1245.93 225.895C1246.44 223.331 1247.61 221.002 1248.4 218.527C1248.96 216.776 1249.86 215.107 1250.19 213.287C1250.4 212.079 1250.89 210.668 1251.38 209.544C1251.49 209.289 1251.6 209.034 1251.7 208.778M1245.9 226.043C1245.72 226.852 1245.35 227.557 1245.1 228.353C1244.76 229.442 1244.8 230.582 1244.5 231.68C1244.03 233.36 1243.65 234.909 1242.26 236.188C1241.46 236.926 1240.99 237.905 1240.28 238.673C1239.48 239.546 1238.59 240.583 1238.04 241.642C1237.28 243.095 1236.87 244.675 1236.37 246.227C1235.75 248.151 1235.09 250.064 1234.47 251.986C1234.11 253.089 1233.3 254.714 1232.39 255.432C1230.24 257.13 1228.31 257.843 1225.81 256.589M1251.7 208.778C1252.08 207.071 1252.38 205.355 1253.14 203.759C1253.44 203.113 1253.86 202.558 1254.28 202.016M1251.7 208.778C1252.63 206.542 1253.39 204.263 1254.28 202.016M1254.28 202.016C1255.01 201.082 1255.79 200.186 1256.14 198.927C1256.39 198.027 1256.3 197.153 1256.65 196.264C1256.82 195.849 1256.89 195.456 1256.89 195.014C1256.89 194.379 1256.63 196.256 1256.43 196.86C1256.04 198.076 1255.5 199.159 1254.98 200.322C1254.74 200.884 1254.51 201.449 1254.28 202.016ZM1271.74 192.734C1271.21 195.423 1269.32 197.731 1268.65 200.39C1267.96 203.082 1267.94 206.39 1268.61 209.102C1269.2 211.452 1271.13 213.588 1273.3 214.623C1274.57 215.229 1275.99 215.508 1277.32 215.925C1278.69 216.35 1279.68 217.411 1281.07 217.847C1282.36 218.253 1283.94 218.498 1285.29 218.613C1286.22 218.692 1287.12 218.919 1288.06 218.919C1289.04 218.919 1289.83 218.577 1290.76 218.307C1292.27 217.867 1294.29 217.427 1295.6 216.52C1296.57 215.846 1297.25 214.696 1298.08 213.866C1298.99 212.963 1299.86 212.525 1300.57 211.416C1301.44 210.048 1302.22 208.742 1302.75 207.336M1302.75 207.336C1303.18 206.181 1303.44 204.959 1303.44 203.581C1303.44 202.733 1303.5 201.891 1303.54 201.048M1302.75 207.336C1302.77 207.238 1302.8 207.14 1302.82 207.043C1303.18 205.652 1303.05 204.18 1303.32 202.772C1303.43 202.192 1303.5 201.62 1303.54 201.048M1302.75 207.336C1302.4 208.748 1302.18 210.176 1301.84 211.594C1300.27 218.317 1301.19 225.532 1302.22 232.241C1302.39 233.365 1302.74 234.537 1302.82 235.661C1302.87 236.384 1302.87 237.308 1303.14 237.975C1303.41 238.627 1303.43 239.3 1303.66 239.932C1303.87 240.485 1304.21 240.972 1304.21 241.582M1303.54 201.048C1303.56 200.699 1303.57 200.349 1303.58 200M1303.54 201.048C1303.56 200.699 1303.58 200.35 1303.58 200M1303.58 200C1303.59 199.824 1303.59 199.648 1303.6 199.472C1303.6 199.372 1303.6 199.271 1303.59 199.17M1303.58 200C1303.59 199.724 1303.59 199.448 1303.59 199.17M1303.59 199.17C1303.58 197.956 1303.43 196.639 1303.76 195.482C1303.97 194.746 1304.03 194.099 1304.05 193.346C1304.08 192.567 1304.17 194.077 1304.14 194.299C1303.92 195.719 1303.6 197.039 1303.6 198.485V198.553C1303.6 198.76 1303.6 198.965 1303.59 199.17ZM1323.5 192.427C1323.5 194.971 1323.28 197.395 1323.05 199.923L1323.04 199.999C1322.48 206.141 1322.89 212.465 1322.89 218.63C1322.89 221.83 1323.2 225.01 1323.2 228.209C1323.2 229.873 1323.2 231.492 1323.42 233.143C1323.62 234.681 1323.49 236.086 1323.93 237.567C1323.95 237.651 1323.92 238.149 1324 238.179C1324.68 238.451 1326.59 236.763 1327.06 236.393C1329.34 234.574 1331.25 232.668 1332.55 230.063C1334.03 227.115 1335.48 224.036 1337.22 221.233C1338.3 219.477 1339.73 218.003 1340.94 216.341C1342.08 214.775 1343.33 213.656 1344.79 212.419C1346.01 211.381 1347.48 210.191 1348.24 208.744C1349.26 206.803 1350.24 205.124 1351.64 203.402C1353.26 201.421 1355.3 199.632 1355.98 197.072C1356.14 196.465 1356.36 195.873 1356.58 195.281M1356.58 195.281C1356.77 194.764 1356.96 194.247 1357.11 193.72C1357.3 193.028 1357.23 193.144 1356.95 193.695C1356.69 194.212 1356.64 194.725 1356.58 195.281ZM1356.58 195.281C1356.57 195.336 1356.57 195.391 1356.56 195.447C1356.4 196.794 1356.1 198.123 1355.93 199.471C1355.6 202.113 1355.07 204.703 1354.89 207.366C1354.72 209.989 1354.33 212.773 1354.5 215.397C1354.67 217.932 1355.16 220.464 1355.2 223.002C1355.23 225.23 1355.2 227.461 1355.2 229.689C1355.2 230.657 1355.25 231.58 1355.34 232.539C1355.4 233.049 1355.56 233.235 1355.72 233.713C1356.04 234.663 1356.14 235.844 1356.34 236.835C1356.54 237.805 1356.58 238.76 1356.58 239.744M1370.97 194.265C1374.88 194.265 1378.7 194.043 1382.59 193.721C1384.79 193.538 1386.87 193.07 1389.03 192.649C1390.68 192.327 1392.41 191.815 1394.09 191.815C1395.46 191.815 1396.68 191.998 1398.02 192.189C1400.43 192.533 1402.68 192.31 1404.78 193.618C1405.34 193.966 1406.68 194.776 1406.96 195.337M1389.19 193.958C1388.87 196.233 1388.32 198.618 1387.81 200.858C1387.42 202.524 1387.61 204.151 1387.43 205.835C1387.29 207.223 1387.4 208.608 1387.2 209.995C1386.91 212.09 1386.87 214.27 1386.91 216.384C1386.97 219.43 1387.36 222.451 1387.36 225.503C1387.36 226.211 1387.64 226.835 1387.66 227.528C1387.69 228.331 1387.66 229.14 1387.66 229.944C1387.66 231.736 1387.82 233.519 1387.82 235.304C1387.82 237.511 1388.36 239.557 1388.58 241.735M1417.68 214.938C1418.44 214.874 1419.18 214.67 1419.94 214.58C1421.57 214.389 1423.24 214.478 1424.87 214.478H1430.24C1433 214.478 1435.75 214.793 1438.51 214.759C1440.99 214.729 1443.42 214.325 1445.9 214.325C1447.4 214.325 1448.89 213.624 1449.99 212.573C1450.49 212.093 1451.09 211.692 1451.64 211.263C1452 210.981 1452.16 210.223 1452.34 209.816C1452.64 209.123 1452.5 207.825 1452.34 207.103C1451.95 205.241 1450.86 203.757 1449.84 202.185C1448.11 199.49 1445.32 197.716 1442.34 196.571C1439.52 195.485 1436.65 195.126 1433.74 194.427C1432.22 194.062 1430.42 194.112 1428.86 194.112C1428.05 194.112 1427.01 193.998 1426.38 194.631C1424.95 196.059 1423.85 197.836 1422.48 199.318C1421.28 200.608 1420.04 201.811 1419.12 203.334C1417.66 205.769 1417.55 208.451 1416.96 211.143C1416.35 213.925 1415.86 216.752 1416.83 219.472C1417.24 220.646 1417.39 221.942 1417.99 223.045C1418.71 224.375 1419.54 225.586 1420.43 226.805C1421.64 228.444 1423.02 229.94 1424.35 231.476C1425.86 233.228 1427.24 235.115 1428.87 236.767C1429.85 237.759 1430.78 237.67 1432.22 237.72C1436.85 237.88 1441.64 238.001 1446.26 237.686C1448.54 237.531 1452.03 236.991 1453.7 235.27C1454.55 234.393 1455.4 232.243 1454.12 231.476M1490.72 192.887C1490.72 195.717 1489.45 198.402 1488.96 201.156C1487.22 210.889 1488.64 220.849 1489.96 230.531C1490.49 234.414 1490.98 238.259 1491.3 242.161C1491.35 242.808 1491.33 243.46 1491.33 244.109C1491.33 244.278 1490.26 242.68 1490.11 242.348M1488.58 215.55C1489.28 215.503 1489.91 215.168 1490.6 215.108C1491.83 215.001 1493.11 215.091 1494.34 215.091C1495.75 215.091 1497.2 215.19 1498.6 215.006C1499.37 214.904 1500.04 214.639 1500.78 214.487C1505 213.612 1509.36 213.559 1513.67 213.559C1515.79 213.559 1517.86 214.44 1519.72 213.186M1519.72 213.186C1519.79 213.133 1519.87 213.076 1519.95 213.015C1521.61 211.715 1521.96 208.89 1521.96 206.975V201.568M1519.72 213.186C1519.75 213.003 1519.8 212.821 1519.85 212.641C1520.17 211.496 1520.08 210.327 1520.43 209.187C1520.76 208.086 1521.08 206.881 1521.28 205.75C1521.52 204.38 1521.77 202.977 1521.96 201.568M1519.72 213.186C1519.32 215.072 1519.51 217.073 1519.51 218.987C1519.51 222.524 1520.94 225.577 1521.62 228.991C1522.09 231.339 1522.22 233.73 1522.45 236.103C1522.56 237.18 1522.42 238.351 1522.64 239.404C1522.74 239.893 1523.03 240.308 1523.03 240.816M1521.96 201.568V198.365C1521.96 197.3 1521.87 195.297 1521.77 193.601M1521.96 201.568C1522.16 200.083 1522.29 198.591 1522.26 197.123C1522.24 195.94 1521.98 194.773 1521.77 193.601M1521.77 193.601C1521.64 191.459 1521.5 189.807 1521.5 191.151C1521.5 191.974 1521.62 192.789 1521.77 193.601ZM1539.42 227.341C1539.72 228.623 1540.69 229.44 1541.48 230.412C1542.17 231.25 1542.74 232.122 1543.45 232.939C1544.99 234.709 1547.26 236.13 1549.52 236.716C1553.62 237.778 1557.61 238.213 1561.82 238.213C1563.53 238.213 1565.16 238.357 1566.67 237.414C1567.82 236.698 1568.75 235.659 1569.9 234.921C1571.33 233.992 1571.84 232.903 1572.55 231.402L1572.56 231.374C1573.65 229.048 1574.89 226.83 1575.84 224.44C1576.5 222.791 1576.52 220.824 1576.66 219.072C1576.98 215.171 1576.67 211.449 1575.06 207.809C1574.28 206.049 1573.18 204.423 1572.19 202.781C1571.65 201.887 1571.02 201.088 1570.42 200.237C1569.98 199.626 1569.7 198.901 1569.12 198.408C1568.36 197.757 1567.82 196.815 1567.13 196.069C1566.37 195.242 1565.27 194.777 1564.22 194.427C1561.83 193.628 1559.24 195.236 1557.02 195.95C1555.74 196.361 1554.29 196.665 1553.2 197.481C1551.94 198.418 1551.07 199.789 1550.21 201.071C1548.38 203.789 1547.26 206.976 1545.23 209.578C1544.71 210.258 1544.51 211.036 1544.04 211.722C1543.74 212.166 1543.8 212.716 1543.46 213.109C1541.88 214.972 1540.97 217.206 1540.49 219.591C1540.1 221.48 1539.74 223.374 1539.49 225.282C1539.38 226.185 1539.04 228.494 1539.72 229.179M1596.23 215.09C1599.22 215.09 1602.07 214.82 1605.04 214.546C1606.51 214.411 1607.91 214.449 1609.37 214.24C1612.03 213.859 1614.95 213.766 1617.21 212.181C1619.24 210.766 1621.01 209.305 1622.33 207.196C1622.7 206.599 1623.22 206.12 1623.55 205.494C1624.04 204.583 1624.06 203.593 1624.26 202.602C1624.57 201.04 1625.16 198.848 1624.4 197.327C1624.08 196.681 1623.42 196.462 1622.77 196.245L1622.75 196.238C1621 195.655 1619.19 195.514 1617.38 195.252C1612.7 194.575 1608.01 194.112 1603.28 194.112C1601.6 194.112 1599.15 193.729 1597.77 194.971C1595.08 197.389 1594.39 201.947 1594.39 205.358C1594.39 208.099 1594.7 210.825 1594.7 213.576V222.628C1594.7 225.688 1594.9 228.66 1596.23 231.475C1596.57 232.2 1596.83 233.157 1597.06 233.934C1597.2 234.407 1597.14 234.92 1597.15 235.406C1597.16 236.169 1597.43 236.882 1597.45 237.635C1597.46 238.036 1597.33 238.515 1597.81 238.664C1598.72 238.947 1599.68 239.08 1600.62 239.217C1603.82 239.686 1606.94 239.898 1610.18 239.898C1612.29 239.898 1614.09 239.645 1616.09 238.86C1617.54 238.291 1619.01 237.627 1620.35 236.835C1621.42 236.205 1622.11 235.247 1622.94 234.351C1624.67 232.471 1626.59 230.6 1628.05 228.489C1629.32 226.661 1629.08 225.266 1627.67 223.598C1625.29 220.773 1621.46 219.802 1617.94 219.31C1614.53 218.834 1611.09 218.366 1607.66 218.119L1607.57 218.113C1605.74 217.981 1603.88 217.847 1602.05 217.847M1642.17 194.112C1642.17 195.455 1641.96 196.755 1641.79 198.085C1641.53 200.154 1641.55 202.221 1641.55 204.303V210.293C1641.55 211.37 1641.54 212.361 1641.83 213.406C1643.62 220.018 1644 227.048 1644 233.858C1644 234.98 1643.92 235.851 1643.66 236.903C1643.48 237.642 1642.95 238.812 1643.94 239.081C1647.12 239.949 1650.48 239.55 1653.74 239.438C1655.3 239.384 1657.11 237.909 1658.36 237.107C1660.35 235.837 1662.21 234.457 1663.84 232.735C1664.57 231.965 1665.22 231.1 1665.97 230.353C1666.29 230.029 1666.69 229.826 1666.97 229.451C1668.5 227.46 1668.03 224.242 1666.6 222.407C1664.8 220.105 1663.38 217.541 1661.49 215.329C1660.14 213.745 1658.83 212.663 1656.87 211.96C1654.41 211.084 1651.75 211.191 1649.18 211.109C1648.51 211.088 1647.92 210.803 1647.24 210.803C1646.68 210.803 1646.12 210.792 1645.57 210.803L1645.54 210.804C1644.98 210.815 1643.98 210.835 1643.54 211.177C1643.17 211.462 1644.46 211.262 1644.92 211.262M1682.59 192.274C1681.3 192.274 1681.72 193.875 1681.79 194.827C1681.96 197.039 1681.95 199.229 1681.98 201.445C1682.02 204.853 1682.61 208.3 1682.95 211.688C1683.36 215.831 1682.67 220.019 1683.58 224.125C1684.1 226.493 1684.74 228.842 1685.28 231.203C1685.57 232.453 1685.92 233.91 1685.96 235.185C1686 236.297 1685.84 237.411 1685.26 238.367C1685 238.808 1684.43 239.54 1684.43 240.051M1703.11 193.5C1703.28 193.523 1703.11 200.372 1703.11 200.935C1703.14 206.739 1704.41 212.419 1703.86 218.239C1703.45 222.574 1702.81 226.865 1702.81 231.229V235.794C1702.8 236.401 1702.8 238.779 1703.62 238.162C1705.16 237.004 1706.46 235.563 1708 234.411C1709.58 233.233 1711.17 232.144 1712.57 230.744C1714.48 228.838 1715.91 226.459 1717.2 224.1C1718.69 221.372 1720.13 218.597 1721.25 215.703C1722.63 212.144 1724.26 208.838 1727.12 206.243C1728.7 204.811 1730.31 203.398 1731.83 201.913C1732.68 201.087 1733.34 200.146 1734.04 199.199C1734.55 198.515 1735.23 197.933 1735.64 197.183C1735.65 197.179 1735.84 196.81 1735.85 196.817C1736.18 197.042 1736.23 199.109 1736.27 199.421C1736.56 201.694 1736.44 203.974 1736.77 206.243C1737.24 209.535 1737.43 213.233 1737 216.537C1736.43 221.055 1735.42 225.425 1735.42 230.004C1735.42 231.563 1735.44 233.103 1735.54 234.657C1735.61 235.63 1735.48 236.631 1735.66 237.592C1735.8 238.338 1735.88 238.992 1735.88 239.745M1707.86 176.655C1708.01 180.33 1710.29 184.038 1713.66 185.604C1716.62 186.981 1719.95 187.26 1723.17 186.94C1727.84 186.476 1731.94 184.472 1734.81 180.789M1774.93 194.112C1774.93 201.001 1775.39 207.86 1775.39 214.75C1775.39 217.201 1775.5 219.681 1775.3 222.126C1775.15 224.02 1774.98 225.916 1774.94 227.817C1774.86 231.332 1774.89 234.81 1775.27 238.298C1775.35 238.989 1775.42 239.66 1775.39 240.357C1775.35 241.274 1775.08 238.993 1775.08 238.673M1776.15 214.325C1780.29 215.54 1784.94 214.542 1789.15 214.478C1791.27 214.446 1793.38 214.512 1795.5 214.359C1797.01 214.249 1798.5 213.998 1799.96 213.593C1800.71 213.385 1801.87 213.282 1802.53 212.879C1802.91 212.644 1803.77 212.069 1804.18 212.028C1804.85 211.96 1805.75 213.16 1806.1 213.678C1806.19 213.821 1806.12 214.222 1806.18 213.908C1806.28 213.47 1806.47 213.067 1806.61 212.643M1806.61 212.643C1806.67 212.465 1806.72 212.284 1806.75 212.096C1807 210.568 1806.74 208.823 1806.47 207.332C1806.37 206.756 1806.27 206.178 1806.17 205.6M1806.61 212.643C1806.36 210.48 1806.17 208.313 1806.17 206.141C1806.17 205.96 1806.17 205.78 1806.17 205.6M1806.61 212.643C1806.86 214.823 1807.18 216.999 1807.43 219.174C1807.85 222.828 1808.01 226.389 1808.01 230.063C1808.01 232.414 1808.01 234.612 1808.46 236.92C1808.53 237.269 1809.18 239.462 1808.92 239.591M1806.17 205.6C1805.66 202.667 1805.22 199.707 1804.98 196.749C1804.88 195.592 1804.82 194.501 1805.44 193.499C1805.55 193.32 1806.13 193.1 1806.32 193.057C1806.94 192.918 1806.79 193.562 1806.78 193.993C1806.74 195.844 1806.48 197.72 1806.32 199.565C1806.14 201.574 1806.16 203.585 1806.17 205.6ZM1828.52 203.3C1828.8 201.265 1830.03 199.772 1831.12 198.11C1831.52 197.497 1832.27 195.786 1833.03 195.507C1833.28 195.417 1833.73 195.489 1833.97 195.482C1835.15 195.445 1836.34 195.37 1837.53 195.303C1840.75 195.121 1844.03 195.064 1847.22 194.571C1849.4 194.236 1851.54 193.959 1853.75 193.959C1854.78 193.959 1855.88 193.812 1856.77 194.427C1857.84 195.166 1858.18 196.676 1858.49 197.855C1859.33 201.146 1859 204.673 1859 208.047C1859 211.024 1858.36 213.807 1858.76 216.784C1858.97 218.343 1858.97 219.919 1859 221.488C1859.03 223.353 1859.6 225.152 1859.61 227.035C1859.62 228.305 1859.61 229.576 1859.61 230.846C1859.61 231.965 1860.08 232.779 1860.23 233.858C1860.42 235.222 1861.14 236.517 1861.14 237.907M1855.32 217.541C1853.29 217.378 1851.2 216.797 1849.18 216.477C1847.2 216.165 1845.14 216.316 1843.14 216.316C1838.93 216.316 1834.82 216.739 1830.63 217.081C1829.23 217.195 1827.72 217.488 1826.36 217.847C1825.16 218.166 1825.3 220.513 1825.16 221.445C1824.64 224.678 1824.72 229.032 1826.38 231.935C1827.12 233.231 1827.61 234.445 1828.59 235.602C1829.18 236.285 1829.89 236.959 1830.67 237.414C1832.69 238.589 1835.74 238.213 1837.97 238.213C1839.48 238.213 1841.09 238.177 1842.46 237.431C1844.12 236.523 1845.97 236.059 1847.36 234.691C1849 233.07 1850.38 231.683 1852.39 230.421C1854.62 229.012 1856.01 227.352 1857.7 225.384C1858.14 224.879 1858.88 224.87 1859 224.278M1877.83 194.877C1877.78 195.203 1877.72 195.527 1877.65 195.849M1877.65 195.849C1877.04 198.813 1875.9 201.651 1875.45 204.661C1875.06 207.303 1874.62 209.915 1874.62 212.589C1874.62 214.391 1874.62 216.177 1874.65 217.957M1877.65 195.849C1878.53 195.458 1879.42 195.096 1880.32 194.784C1882.99 193.859 1886.05 194.086 1888.82 194.367C1891.71 194.66 1894.68 195.348 1897.31 196.596C1899.16 197.473 1900.94 198.637 1902.63 199.786C1904.33 200.941 1905.84 202.476 1906.08 204.576C1906.2 205.658 1906.15 206.58 1905.74 207.587C1905.39 208.422 1905.49 209.334 1905.02 210.156C1904.24 211.525 1902.16 212.174 1900.79 212.725C1898.86 213.503 1896.94 214.54 1894.96 215.159C1893.32 215.67 1891.64 216.109 1889.93 216.475M1877.65 195.849C1877.41 195.957 1877.17 196.067 1876.93 196.179C1876.54 196.359 1874.59 197.021 1875.84 197.021M1874.65 217.957C1874.65 218.075 1874.65 218.193 1874.65 218.312M1874.65 217.957C1873.85 218.007 1873.06 218.072 1872.27 218.153C1871.79 218.202 1871.58 218.299 1872.2 218.306C1873.02 218.316 1873.84 218.319 1874.65 218.312M1874.65 217.957C1875.64 217.895 1876.63 217.858 1877.61 217.847C1879.03 217.831 1880.47 217.765 1881.91 217.649M1874.65 218.312C1874.72 222.1 1874.9 225.863 1875.37 229.68C1875.64 231.81 1875.83 233.951 1876.22 236.061C1876.47 237.463 1876.7 239.056 1876.76 240.476C1876.79 241.195 1876.78 242.331 1877.65 242.348C1881.31 242.416 1884.88 241.558 1888.53 241.446C1891.31 241.36 1894.18 241.513 1896.94 241.199C1898.49 241.023 1900 240.412 1901.5 239.983C1905.73 238.768 1907.53 234.925 1908.97 231.042C1909.57 229.432 1910.25 227.668 1909.86 225.929C1909.21 223.023 1906.43 221.307 1903.88 220.263C1899.4 218.43 1894.71 217.294 1889.94 216.477C1889.93 216.477 1889.93 216.476 1889.93 216.475M1874.65 218.312C1874.97 218.309 1875.28 218.304 1875.6 218.298C1877.72 218.255 1879.83 218.064 1881.91 217.649M1889.93 216.475C1887.82 216.117 1885.98 216.591 1883.96 217.158C1883.28 217.348 1882.6 217.511 1881.91 217.649M1889.93 216.475C1887.29 217.041 1884.59 217.432 1881.91 217.649M1922.55 193.5C1922.55 196.054 1921.93 198.564 1921.44 201.071C1920.99 203.418 1920.16 205.655 1919.55 207.962C1918.76 210.965 1918.18 214.035 1917.68 217.099C1917.03 221.068 1916.47 224.971 1916.58 229C1916.61 229.779 1916.72 230.528 1916.88 231.289C1916.98 231.762 1916.92 232.376 1917.1 232.82C1917.51 233.834 1918.66 235.12 1919.54 235.687C1920.88 236.545 1922.73 237.517 1924.35 237.754C1928.01 238.292 1931.85 237.366 1935.51 237.15C1938.62 236.967 1941.75 237.014 1944.85 236.767C1946.76 236.616 1948.99 236.755 1950.81 236.044C1952.39 235.425 1954.27 234.322 1954.79 232.599C1955.64 229.778 1954.48 226.481 1953.48 223.87C1952.68 221.792 1951.42 219.99 1950.14 218.187C1948.53 215.908 1946.86 214.315 1944.09 213.585C1940.14 212.546 1935.74 212.947 1931.7 212.947C1929.36 212.947 1927 212.969 1924.67 213.338C1923.45 213.532 1922.01 213.484 1920.86 213.866M1964.81 194.877C1964.81 198.278 1964.84 201.635 1964.42 205.018C1963.99 208.471 1963.26 211.871 1962.77 215.312C1962.3 218.565 1962.22 221.931 1962.07 225.214C1961.91 228.936 1961.9 232.571 1963.47 236.001C1963.84 236.825 1964.39 237.583 1964.88 238.332C1965.28 238.94 1965.31 239.636 1965.42 240.357M1987.47 192.734C1985.87 196.525 1986.1 201.228 1986.1 205.257C1986.1 211.311 1986.06 217.358 1985.95 223.411C1985.89 226.765 1986.56 230.088 1986.56 233.449V238.214M1987.78 218.46C1989.48 218.12 1991.1 217.096 1992.71 216.469C1994.61 215.725 1996.6 215.102 1998.43 214.172C2001.74 212.487 2005.36 210.992 2008.01 208.277C2010.11 206.128 2011.27 203.424 2012.62 200.799C2013.09 199.892 2013.88 198.834 2014.08 197.821C2014.22 197.187 2014.69 196.688 2014.73 196.069C2014.77 195.42 2015.09 194.89 2015.19 194.265M1989.62 217.388C1991.46 217.146 1993.24 216.928 1995.1 216.928C1996.16 216.928 1996.67 217.639 1997.27 218.474L1997.27 218.477C1998.69 220.446 2000.1 222.284 2001.26 224.423C2002.2 226.15 2003.35 228.045 2004.79 229.4C2007.97 232.387 2012.62 232.721 2016.5 234.232C2017.4 234.584 2017.69 235.905 2018.25 236.614C2018.46 236.871 2018.77 237.302 2018.87 237.601M2088.08 205.903C2086.88 203.694 2085.53 201.44 2084.08 199.395C2082.96 197.812 2082.06 196.488 2080.48 195.32C2078.26 193.685 2075.86 193.5 2073.18 193.5C2069.65 193.5 2066.02 194.136 2062.56 194.793C2061.47 195 2060.42 195.148 2059.56 195.933C2058.29 197.099 2057.22 198.659 2056.26 200.084C2055.34 201.462 2054.21 202.748 2053.55 204.278C2053.13 205.267 2052.56 206.117 2052.25 207.162C2051.89 208.355 2051.82 209.6 2051.47 210.795C2050.78 213.233 2051.02 215.792 2051.02 218.315C2051.02 222.248 2052.91 226.61 2054.7 230.098C2055.79 232.215 2057.76 234.158 2059.53 235.729C2060.93 236.968 2061.42 238.754 2063.48 239.217C2067.42 240.104 2071.51 238.865 2075.23 237.601C2076.54 237.157 2077.82 236.3 2078.95 235.525C2080.61 234.392 2081.5 232.625 2082.84 231.187C2084.12 229.814 2086.38 230.423 2087.62 229.179M2119.32 195.949C2116.81 195.949 2114.73 196.457 2112.31 197.225C2109.81 198.021 2106.69 198.499 2104.79 200.458C2103.44 201.847 2102.54 203.637 2101.79 205.392C2100.99 207.283 2100.03 209.197 2099.63 211.228C2099.24 213.253 2099.01 215.551 2099.11 217.626C2099.35 222.205 2101.88 225.906 2104.01 229.799C2106.21 233.845 2110.06 237.364 2114.73 238.145C2116.83 238.498 2119.08 238.423 2121.21 238.332C2123.03 238.255 2124.91 237.984 2126.53 237.107C2129.04 235.752 2131.12 233.418 2133.1 231.407C2136.73 227.713 2137.42 222.893 2137.39 217.932C2137.36 213.53 2136.3 208.908 2134.24 204.992C2133.38 203.368 2132.36 201.58 2130.92 200.381C2130.21 199.783 2129.33 199.43 2128.59 198.85C2127.85 198.265 2127.24 197.855 2126.36 197.481C2125.07 196.924 2123.96 196.647 2122.56 196.553C2121.62 196.49 2120.73 196.102 2119.78 196.102M2209.21 204.678C2209.66 204.621 2208.72 203.449 2208.59 203.325C2207.86 202.647 2207.14 202.053 2206.53 201.258C2206.11 200.7 2205.33 200.124 2204.77 199.71C2203.98 199.136 2203.39 198.373 2202.62 197.796C2201.42 196.898 2200.44 196.158 2199.1 195.49C2198.12 194.999 2197.17 194.385 2196.16 193.959C2195.3 193.6 2194.26 193.532 2193.35 193.38C2192.95 193.315 2192.54 193.346 2192.14 193.346C2191.25 193.346 2190.38 193.04 2189.46 193.04C2188.66 193.04 2187.45 192.914 2186.84 193.585C2186.29 194.193 2185.66 194.67 2185.16 195.337C2184.54 196.158 2183.59 196.625 2182.87 197.345C2180.88 199.33 2178.89 201.306 2176.9 203.291C2175.59 204.609 2174.21 206.066 2173.59 207.86C2172.76 210.291 2173.67 213.311 2174.26 215.703C2174.54 216.843 2174.6 217.962 2174.6 219.132C2174.6 220.522 2174.97 221.827 2175.06 223.207C2175.24 226.158 2175.8 229.189 2177.22 231.791C2180.06 236.992 2186.48 237.091 2191.68 236.767C2194.3 236.604 2197.01 236.483 2199.61 236.155C2200.48 236.045 2201.32 235.917 2201.89 235.202C2202.78 234.085 2203.69 232.901 2204.46 231.697C2204.82 231.135 2205.22 230.595 2205.87 230.37C2207.35 229.861 2208.67 230.558 2209.82 229.179M2225.69 192.101C2225.59 193.406 2224.91 194.606 2224.64 195.885C2224.18 198.087 2223.71 200.235 2223.45 202.48C2222.76 208.363 2222.73 214.156 2223.33 220.052C2223.54 222.101 2223.92 224.089 2223.92 226.157C2223.92 228.279 2223.96 230.407 2224.13 232.523C2224.31 234.656 2224.66 236.739 2224.66 238.882M2223.92 214.315C2227.55 214.315 2231.21 213.815 2234.5 212.173C2235.53 211.659 2236.31 210.618 2237.08 209.787C2238.86 207.872 2241.21 206.689 2242.87 204.654C2244.94 202.118 2246.2 199.402 2248.93 197.528C2249.82 196.914 2250.68 196.225 2251.58 195.599C2252.19 195.174 2252.86 194.752 2253.32 194.16C2253.58 193.827 2253.76 193.534 2254.08 193.278M2231.13 215.05C2231.99 215.319 2232.49 215.968 2233.07 216.628C2234.38 218.134 2235.57 219.738 2236.8 221.311C2238.29 223.216 2239.53 225.346 2241.13 227.154C2242.86 229.097 2245.03 230.686 2246.95 232.426C2247.76 233.154 2248.54 233.901 2249.47 234.469C2250.77 235.26 2252.2 235.738 2253.56 236.414C2254.43 236.85 2255.46 238 2256.43 238M2273.2 194.308C2272.63 198.399 2272.97 202.579 2272.84 206.698C2272.68 211.891 2272.32 217.044 2272.32 222.242C2272.32 226.722 2272.28 231.16 2274.02 235.368C2274.31 236.067 2274.72 236.7 2275.03 237.387C2275.09 237.505 2275.2 237.982 2275.29 238.057C2275.68 238.385 2277.05 236.935 2277.24 236.725C2278.67 235.144 2279.9 233.448 2280.82 231.527C2283.06 226.858 2284.23 221.804 2286.39 217.126C2288.25 213.103 2291.31 209.439 2294.09 206.011C2296.3 203.294 2298.91 201.501 2302.12 200.192C2304.65 199.161 2306.71 198.18 2308.4 196.053M2308.4 196.053C2308.44 196.011 2308.47 195.969 2308.5 195.926C2309.03 195.245 2309.29 194.533 2309.54 193.719C2309.55 193.671 2310 192.368 2309.65 192.575C2308.89 193.029 2308.69 195.029 2308.48 195.779C2308.45 195.87 2308.43 195.962 2308.4 196.053ZM2308.4 196.053C2307.71 198.626 2307.37 201.285 2307.12 203.935C2306.67 208.813 2306.34 213.993 2306.91 218.875C2307.42 223.3 2308.39 227.691 2308.62 232.148C2308.72 233.954 2308.78 235.791 2308.29 237.542C2308.03 238.467 2307.77 239.534 2307.77 240.5M2319.69 254.181C2320.03 250.957 2321.28 247.926 2321.65 244.709C2321.78 243.606 2321.75 242.491 2321.75 241.383V239.045C2321.75 238.144 2322.39 238.074 2323.22 237.967C2325.6 237.659 2327.94 236.822 2330.35 236.822C2335.73 236.822 2341.1 237.006 2346.47 236.896C2350.06 236.822 2353.66 236.696 2357.25 236.675C2360.33 236.657 2363.41 237.151 2366.47 237.411C2367.53 237.501 2368.6 237.59 2369.66 237.672C2370.36 237.727 2370.83 237.725 2370.86 238.539C2370.92 239.963 2370.42 241.035 2369.56 242.118C2368.72 243.19 2367.68 244.461 2367.31 245.796C2366.97 247.02 2366.81 248.287 2366.62 249.539C2366.53 250.133 2366.22 253.031 2367.5 252.71M2361.18 236.234C2359.74 235.137 2359.32 232.622 2359.04 230.952L2359.03 230.906C2358.6 228.286 2358.42 225.353 2358.56 222.7C2358.69 220.369 2358.8 218.021 2359.48 215.77C2360.03 213.915 2360.85 212.082 2361.55 210.277C2362.67 207.409 2362.16 204.388 2361.5 201.467C2361.09 199.651 2360.81 197.803 2359.93 196.138C2358.85 194.075 2355.56 193.61 2353.53 193.343C2350.48 192.945 2347.1 192.842 2344.05 193.049C2342.37 193.162 2340.75 193.554 2339.11 193.858C2337.95 194.073 2336.71 194.189 2335.63 194.684C2334.24 195.318 2334.08 197.153 2333.81 198.459C2333.22 201.343 2332.53 204.044 2332.28 206.992C2332.05 209.595 2331.75 212.104 2331.75 214.723C2331.75 217.572 2331.8 220.424 2331.75 223.272C2331.74 224.481 2331.42 225.456 2331.12 226.607C2330.83 227.666 2330.87 228.741 2330.87 229.827C2330.87 231.975 2330.94 234 2331.46 236.087M2380.01 238.588C2379.17 237.406 2379.01 235.734 2378.84 234.346C2378.45 231.171 2378.5 227.975 2378.23 224.792C2377.8 219.583 2377.2 214.418 2376.59 209.231C2376.4 207.627 2376.33 206.063 2376.33 204.45C2376.33 201.568 2377.4 198.73 2378.15 195.975C2378.39 195.095 2378.67 194.426 2379.42 193.866M2378.98 221.817C2379.3 220.902 2381.02 220.511 2381.83 220.28C2383.34 219.852 2384.88 219.282 2386.35 218.711C2388.25 217.971 2390.17 217.28 2392.07 216.521C2393.84 215.812 2395.8 215.131 2397.08 213.644C2399.59 210.729 2400.31 207.291 2401.81 203.869C2402.41 202.505 2402.9 201.094 2403.54 199.75C2404.01 198.783 2404.28 197.881 2404.28 196.808M2392.36 217.845C2392.77 221.992 2395.56 224.715 2398.49 227.522C2400.79 229.715 2403.27 231.491 2405.91 233.226C2407.41 234.207 2408.83 235.312 2409.99 236.684C2411.14 238.036 2412.01 239.629 2413.12 241.015C2414.8 243.116 2417.33 244.937 2419.58 246.385M2436.79 196.808C2436.03 197.07 2435.17 197.301 2434.47 197.724C2433.37 198.389 2432.52 199.679 2431.76 200.666C2431.01 201.629 2430.11 202.707 2429.76 203.902C2429.51 204.75 2429.5 205.592 2429.42 206.46C2429.03 210.86 2429.09 215.254 2429.14 219.676C2429.18 223.463 2428.27 227.296 2430.31 230.709C2430.82 231.558 2431.32 232.344 2432.01 233.063C2432.87 233.969 2433.9 234.482 2434.9 235.204C2436.33 236.243 2437.72 236.381 2439.48 236.381C2443.39 236.381 2447.32 235.469 2451.18 234.902C2453.95 234.495 2457.82 233.833 2458.71 230.709C2460.24 225.365 2459.99 219.723 2460.38 214.233C2460.73 209.232 2460.31 203.477 2458.11 198.884C2457.38 197.367 2456.5 195.673 2455.29 194.487C2453.99 193.227 2452.12 192.437 2450.44 191.847C2448.32 191.105 2444.97 190.732 2442.81 191.545C2441.1 192.188 2439.32 193.053 2437.98 194.324C2437.36 194.908 2436.86 195.584 2436.21 196.138C2435.88 196.418 2435.46 196.687 2435.32 197.103M2479.89 194.749C2480.8 197.386 2480.74 200.149 2480.56 202.913C2480.11 209.911 2478.5 216.832 2478.29 223.844C2478.2 226.804 2478.28 229.775 2478.28 232.736C2478.28 234.046 2478.5 235.237 2478.58 236.52C2478.67 238.086 2478.98 237.255 2479.74 236.332C2482.25 233.296 2485.05 230.503 2487.56 227.465C2489.12 225.574 2490.78 223.748 2492.25 221.785C2493.73 219.812 2494.88 217.634 2496.24 215.581C2499.22 211.081 2503.13 207.334 2506.12 202.864C2508.07 199.948 2509.65 196.882 2512.23 194.455C2513.02 193.709 2513.93 193.101 2514.71 192.346C2514.91 192.153 2515.16 191.403 2515.2 191.676C2515.46 193.259 2515.27 194.816 2515.12 196.4C2514.84 199.443 2514.98 202.525 2514.66 205.553C2514.15 210.356 2513.57 215.117 2513.21 219.937C2512.73 226.213 2513.11 232.416 2513.81 238.653C2513.95 239.861 2514.04 241.05 2514.02 242.266C2514.01 242.98 2513.75 243.516 2513.58 244.178M2489.6 180.038C2488.94 180.154 2489.15 181.42 2489.18 181.885C2489.31 183.833 2490.78 185.59 2492.25 186.764C2493.43 187.706 2495.29 187.034 2496.52 186.56C2498.94 185.622 2501.3 184.34 2503.29 182.686M2590.82 176.507C2588.74 176.593 2586.69 176.948 2584.6 176.948C2582.83 176.948 2581.06 176.801 2579.28 176.801C2575.91 176.801 2572.58 176.948 2569.21 176.948C2566.62 176.948 2564.07 176.507 2561.49 176.507C2560.38 176.507 2560.51 176.648 2560.07 177.757C2559.55 179.05 2559.02 180.4 2558.68 181.737C2557.55 186.264 2557.91 191.069 2556.72 195.599C2556.1 197.97 2556.25 200.566 2556.25 202.97C2556.25 203.546 2556.13 204.25 2556.25 204.809C2556.32 205.111 2561.43 202.698 2562.13 202.545C2564.8 201.966 2566.99 200.176 2569.5 199.195C2570.33 198.873 2571.41 198.898 2572.29 198.729C2573.25 198.542 2574.21 198.573 2575.19 198.573C2577.13 198.573 2579.05 198.634 2580.96 198.982C2583.31 199.409 2584.43 202.456 2586.03 203.943C2587.39 205.212 2587.89 207.068 2589.04 208.463C2590.04 209.666 2590.75 210.648 2591.27 212.116C2592.8 216.455 2589.68 221.232 2588.38 225.201C2587.69 227.296 2587.4 229.585 2586.96 231.739C2586.65 233.261 2586.32 235.358 2585.13 236.495C2584.43 237.163 2583.37 237.242 2582.47 237.419C2580.64 237.781 2578.88 237.852 2577.02 237.852C2574.74 237.852 2572.31 238.08 2570.04 237.828C2568.7 237.678 2567.57 236.83 2566.4 236.234C2564.7 235.376 2563.09 234.362 2561.39 233.529C2559.9 232.796 2558.41 231.882 2556.82 231.379C2556.45 231.263 2556.09 231.036 2555.84 230.742C2555.17 229.971 2554.42 229.28 2553.71 228.551C2553.32 228.15 2553.09 227.613 2552.72 227.244C2552.31 226.831 2553.66 226.258 2553.89 226.165C2554.47 225.932 2554.63 225.636 2554.63 225.053M2609.35 202.104C2609.35 204.515 2609.06 206.904 2609.06 209.313C2609.06 210.761 2609.46 211.93 2609.53 213.35C2609.68 216.267 2610.57 218.697 2611.2 221.49C2611.77 224.031 2612.07 226.67 2612.51 229.238C2612.86 231.248 2614.58 233.359 2616.45 234.175C2618.34 235.004 2620.57 235.096 2622.59 235.351C2624.89 235.64 2627.18 235.955 2629.48 236.161C2630.94 236.291 2632.5 236.336 2633.94 236.071C2636.21 235.653 2639.06 235.783 2641.1 234.6C2643.97 232.942 2644.65 228.939 2644.92 225.969C2645.13 223.675 2646.33 221.779 2646.98 219.611C2647.56 217.643 2648.96 215.673 2649.06 213.587C2649.16 211.593 2648.9 209.679 2648.79 207.703C2648.64 204.808 2648.71 202.041 2648.22 199.162C2647.81 196.724 2647.88 194.2 2647.54 191.741C2647.38 190.62 2647.27 189.493 2647.01 188.39C2646.73 187.181 2646.82 185.995 2646.65 184.778C2646.49 183.557 2646.13 182.057 2645.1 181.296C2643.65 180.229 2642.38 179.345 2640.67 178.697C2637.86 177.632 2635.02 176.801 2632.01 176.801C2630.62 176.801 2629.39 177.332 2628.1 177.798C2627.16 178.138 2626.3 178.299 2625.29 178.428C2623.11 178.706 2621.06 179.644 2618.87 179.956C2618.18 180.055 2617.24 180.06 2616.63 180.43C2614.93 181.445 2613.95 183.55 2613.11 185.252C2612.28 186.939 2611.9 188.797 2611.56 190.63C2611.25 192.256 2611.04 193.837 2610.86 195.484C2610.7 196.885 2610.6 198.523 2610.23 199.881C2609.91 201.024 2609.35 202.214 2609.35 203.428M2665.55 189.453C2665.55 190.729 2665.71 191.784 2665.96 193.016L2665.96 193.034C2666.11 193.78 2666.38 195.112 2666.79 195.746C2667.77 197.248 2669.64 197.975 2671.2 198.639L2671.31 198.685C2672.72 199.283 2674.12 199.876 2675.58 200.339C2676.58 200.654 2677.58 200.736 2678.56 201.009C2679.22 201.195 2680.29 201.333 2680.86 201.728C2682.35 202.771 2683.86 199.773 2684.3 198.895L2684.31 198.868C2685.34 196.824 2684.97 194.355 2684.97 192.133C2684.97 189.464 2684.38 186.843 2684.38 184.173C2684.38 181.948 2683.13 178.206 2681.08 177.087C2680.23 176.625 2679.13 176.267 2678.16 176.139C2675.92 175.844 2673.06 175.768 2671.02 176.948C2669.95 177.573 2669.01 178.488 2667.9 179.09C2666.74 179.72 2666.21 181.675 2666.15 182.906C2666.1 183.761 2666.14 184.625 2666.14 185.481C2666.14 186.302 2665.83 186.964 2665.63 187.745C2665.43 188.515 2665.62 189.169 2665.25 189.894M2670.26 239.176C2671.03 239.131 2671.3 237.954 2671.68 237.427C2672.74 235.95 2674.23 234.702 2675.45 233.357C2676.3 232.427 2677.17 231.572 2677.92 230.562C2678.71 229.5 2679.43 228.426 2680.23 227.375C2681.42 225.815 2681.68 223.842 2682.33 222.046C2682.96 220.309 2683.33 218.52 2683.86 216.75C2685.32 211.822 2688.82 208.508 2692.54 205.194C2695.44 202.598 2697.94 199.502 2700.5 196.572C2702 194.854 2703.51 193.182 2704.7 191.218C2705.14 190.481 2705.34 189.647 2705.73 188.881C2706.68 186.975 2707.84 185.123 2709.05 183.372C2710.35 181.49 2711.94 179.806 2713.15 177.864C2714.05 176.416 2715.15 175.05 2716.45 173.933C2717.54 172.994 2718.55 171.904 2719.54 170.917M2702.62 218.286C2702.62 220.317 2702.41 222.383 2703.05 224.334C2703.81 226.681 2704.46 229.146 2705.33 231.445C2706.18 233.663 2707.45 235.7 2709.13 237.378C2711.47 239.717 2715.3 237.983 2717.52 236.455C2719.04 235.406 2720.12 234.425 2720.9 232.736C2721.95 230.453 2722.89 228.11 2723.36 225.634C2723.98 222.382 2723.65 217.748 2721.09 215.279C2718.85 213.115 2715.24 212.676 2712.39 213.563C2711.05 213.978 2709.62 213.678 2708.28 213.947C2707.63 214.076 2706.95 214.02 2706.3 214.02C2705.72 214.02 2704.59 213.803 2704.09 214.2C2703.02 215.048 2702.52 216.765 2702.06 217.976C2701.72 218.891 2701.07 219.935 2701.01 220.934C2700.95 221.936 2701.51 222.652 2702.03 223.435M338.034 174.458C338.034 176.553 337.312 178.54 337.312 180.612C337.312 182.999 337.673 185.262 337.673 187.669C337.673 191.705 337.081 195.924 337.683 199.936C337.875 201.217 338.246 202.468 338.466 203.741C338.784 205.581 338.757 207.513 338.757 209.372V216.118C338.757 218.016 338.353 219.737 338.135 221.609C337.958 223.12 338.122 224.635 338.014 226.147C337.897 227.781 337.508 229.364 337.492 231.015C337.477 232.611 337.492 234.208 337.492 235.804V237.56C337.492 238.859 337.897 238.799 339.209 238.875C344.851 239.203 350.559 238.562 356.184 239.106C357.402 239.224 358.653 239.542 359.878 239.508C362.191 239.444 364.758 238.026 366.724 236.898C370.089 234.968 372.986 232.791 375.538 229.851C376.725 228.484 378.429 227.148 379.072 225.414C379.51 224.231 379.637 222.928 379.584 221.68C379.297 214.947 371.975 211.723 366.564 209.694C362.721 208.252 358.52 207.831 354.578 206.722C349.615 205.326 344.528 204.933 339.48 204.092M341.106 205.176C344.511 205.438 347.877 205.403 351.285 205.548C353.122 205.626 354.928 206.085 356.786 205.879C358.561 205.682 360.261 204.82 361.846 204.052C363.756 203.126 365.18 201.51 367.026 200.518C367.857 200.072 368.755 199.605 369.495 199.013C371.33 197.544 372.93 196.019 374.896 194.696C376.279 193.765 377.787 193.183 377.787 191.383C377.787 189.549 377.211 188.183 376.602 186.444C375.754 184.021 375.317 181.587 373.45 179.679C371.625 177.813 369.81 177.47 367.327 177.069C365.107 176.709 362.897 176.204 360.681 175.804C357.588 175.245 354.531 175.036 351.406 174.74C347.146 174.335 334.297 174.278 338.577 174.278M396.398 194.876C396.398 196.994 396.315 199.08 396.227 201.191C396.165 202.692 396.485 204.092 396.619 205.577C396.971 209.489 397.537 213.407 397.442 217.343C397.307 222.937 396.291 228.533 396.84 234.147C396.965 235.429 397.065 237.398 397.663 238.594C397.811 238.891 397.899 239.187 397.984 239.508C398.173 240.221 399.564 239.84 400.092 239.789C403.122 239.497 406.188 238.946 409.207 238.524C410.241 238.379 411.269 238.518 412.299 238.403C415.535 238.044 418.846 236.085 419.627 232.752C420.186 230.366 420.381 227.66 421.414 225.414C421.644 224.912 421.842 224.39 421.886 223.848C422.087 221.336 420.797 219.256 419.005 217.463C415.786 214.244 411.435 212.422 407.049 211.51C404.874 211.058 402.776 209.937 400.534 209.874C399.753 209.852 398.499 209.532 398.205 210.416M436.692 193.612C436.502 195.513 437.488 197.192 438.038 198.972C439.188 202.7 438.843 207.131 438.489 210.958C438.231 213.76 438.044 216.546 438.248 219.361C438.363 220.942 438.968 222.309 439.192 223.838C439.339 224.84 439.254 226.027 439.212 227.03C439.157 228.359 438.861 229.634 438.861 230.975C438.861 231.817 438.944 232.712 438.821 233.545C438.651 234.689 438.68 235.821 438.68 236.978C438.68 238.49 438.352 240.297 439.041 241.676M491.804 174.278C491.7 173.411 489.931 172.964 489.194 173.093C486.439 173.578 484.149 175.089 481.725 176.366C479.973 177.289 478.8 177.324 476.887 177.35C475.026 177.375 473.19 178.28 471.395 178.705C469.718 179.102 468.041 179.442 466.426 180.06C464.69 180.725 462.468 181.311 461.086 182.59C459.884 183.701 459.286 184.487 458.717 186.063C457.935 188.229 457.656 190.79 457.492 193.08C457.357 194.971 457.274 196.877 457.091 198.762C456.898 200.738 456.429 202.584 456.388 204.594C456.352 206.336 456.134 207.845 456.468 209.613C456.853 211.648 456.93 213.84 456.93 215.918C456.93 218.766 457.347 221.376 457.733 224.189C457.874 225.216 458.318 226.048 458.516 227.04C459.153 230.224 456.993 235.612 461.036 237.259C463.769 238.373 466.731 238.424 469.639 238.424C471.193 238.424 472.775 238.509 474.327 238.404C474.964 238.361 475.544 238.062 476.174 238.062C480.093 238.062 484.315 236.575 487.547 234.408C488.549 233.737 489.703 233.352 490.679 232.642C491.741 231.869 492.53 230.835 493.249 229.751C494.646 227.645 495.353 225.642 495.408 223.105C495.455 220.899 495.207 218.887 494.434 216.811C494.062 215.813 493.641 214.848 493.33 213.83C493.012 212.789 492.641 211.761 492.245 210.748C491.592 209.075 491.258 207.286 490.398 205.698C489.355 203.772 488.512 201.725 487.387 199.836C486.584 198.489 485.377 197.2 483.763 196.885C481.452 196.434 479.154 196.761 476.866 197.126C473.407 197.677 469.715 197.856 466.507 199.394C465.15 200.045 464.415 200.705 463.294 201.743C462.362 202.607 461.435 203.487 460.524 204.373C459.97 204.912 459.263 205.311 458.757 205.889C458.514 206.166 458.586 206.383 458.526 206.722C458.344 207.753 458 208.742 457.823 209.774C457.656 210.75 457.111 211.549 457.111 212.585M506.259 214.753H509.177M509.177 214.753H534.568C536.74 214.753 538.524 214.678 540.561 213.769C541.855 213.191 542.871 212.401 544.024 211.601C544.728 211.111 545.825 210.747 546.343 210.035C546.904 209.263 546.917 207.529 546.614 206.682C545.798 204.405 543.882 202.703 542.297 200.96C540.491 198.972 537.855 196.918 535.331 195.961C529.208 193.638 523.019 196.686 517.111 198.39C514.513 199.139 512.169 200.9 510.777 203.228C508.886 206.389 509.054 210.37 509.16 213.919C509.169 214.194 509.174 214.472 509.177 214.753ZM509.177 214.753C509.207 217.75 508.99 221.045 509.733 223.888C510.549 227.014 512.018 230.312 513.949 232.922C516.813 236.794 522.209 236.713 526.557 236.958C531.145 237.216 536.811 238.08 541.033 235.723C541.749 235.323 542.336 234.598 543.06 234.267C543.951 233.861 544.884 233.346 545.429 232.481C546.522 230.746 546.4 228.08 546.012 226.136M561.19 255.047C560.883 255.047 560.265 255.166 560.025 254.927C559.31 254.211 558.661 253.025 558.399 252.066C557.482 248.701 557.237 244.693 557.656 241.234C557.952 238.798 558.877 236.382 559.383 233.976C559.984 231.122 560.48 228.253 561.11 225.404C561.772 222.407 562.826 219.62 563.157 216.54C563.466 213.671 563.358 210.768 563.358 207.886C563.358 204.843 563.287 201.653 562.676 198.671C562.443 197.538 563.474 197.471 564.121 196.824C564.496 196.449 564.922 196.572 565.346 196.302C565.914 195.94 566.282 195.382 566.791 194.957C568.681 193.382 570.561 191.449 572.945 190.64C575.964 189.616 578.794 188.552 582.03 188.552C584.684 188.552 585.683 191.005 586.868 193.08C587.804 194.717 589.181 196.164 589.84 197.948C590.446 199.59 590.958 201.293 591.466 202.968C592.165 205.271 592.237 207.67 592.731 210.015C593.027 211.423 592.992 212.821 592.992 214.251C592.992 215.937 593.148 217.714 592.771 219.37C592.208 221.842 590.478 223.442 588.655 225.062C586.32 227.138 584.142 229.384 581.799 231.457C580.24 232.836 578.616 234.634 576.428 234.87C572.895 235.25 568.431 231.717 566.932 228.626C565.391 225.45 564.799 221.883 562.816 218.909M615.036 194.696C615.141 197.725 615.177 200.739 615.217 203.771C615.273 207.979 616.565 212.011 617.094 216.158C617.558 219.802 617.385 223.516 617.385 227.18C617.385 230.009 617.024 232.802 617.024 235.613C617.024 236.675 616.993 237.744 617.064 238.805C617.097 239.3 617.041 240.295 617.516 239.427C618.145 238.278 618.845 237.222 619.634 236.175C621.075 234.261 622.053 232.164 623.328 230.152C624.357 228.528 625.5 227.037 626.42 225.343C627.231 223.85 628.044 222.311 628.97 220.886C629.805 219.6 630.485 218.249 631.278 216.941C632.424 215.054 633.887 213.446 635.193 211.681C637.009 209.226 638.182 206.363 639.831 203.811C641.265 201.591 643.038 199.458 644.941 197.617C645.453 197.121 646.156 196.817 646.758 196.442C647.193 196.171 647.521 195.664 647.601 196.342C647.72 197.35 647.742 198.35 647.742 199.364C647.742 201.375 648.094 203.244 648.364 205.226C649.915 216.599 651.565 227.946 653.564 239.247C653.894 241.114 654.066 242.855 654.066 244.748C654.066 245.684 654.293 246.854 653.704 247.639M661.474 195.057C665.35 195.057 669.223 195.328 673.099 195.198C676.896 195.07 680.68 194.756 684.482 194.917C687.428 195.041 690.637 195.63 693.557 195.017C695.031 194.708 696.474 193.612 697.974 193.612M677.014 195.78C677.425 199.891 678.05 203.985 678.319 208.108C678.51 211.045 679.247 213.907 679.503 216.841C679.793 220.164 679.724 223.507 679.724 226.839C679.724 230.375 679.859 233.904 679.503 237.42C679.359 238.845 679.261 240.264 679.543 241.676M710.984 213.669C711.058 213.713 711.133 213.756 711.208 213.797M711.208 213.797C712.484 214.501 713.936 214.866 715.381 215.004C718.136 215.268 720.967 215.283 723.733 215.295C727.087 215.309 730.525 215.059 733.872 215.335C736.224 215.529 738.335 215.843 739.754 213.669C740.712 212.201 741.448 210.953 742.073 209.312C742.471 208.269 742.605 207.457 742.605 206.341C742.605 205.297 742.833 204.388 742.946 203.369C743.506 198.335 735.157 196.631 731.673 196.262C729.881 196.073 728.08 196.172 726.283 196.142C724.872 196.118 723.504 195.78 722.087 195.78C720.789 195.78 719.466 195.702 718.172 195.78C716.588 195.876 715.706 197.936 715.22 199.213C714.051 202.287 714.179 205.613 712.891 208.69C712.159 210.439 711.572 212.081 711.208 213.797ZM711.208 213.797C710.972 214.911 710.83 216.057 710.803 217.283C710.776 218.516 710.315 219.671 710.271 220.907C710.217 222.413 710.555 223.725 711.125 225.113C712.75 229.074 718.162 231.274 722.036 232.089C725.38 232.793 728.863 232.964 732.155 233.826C734.736 234.502 737.446 234.268 740.096 234.268C742.326 234.268 745.501 234.444 746.57 232.16C747.078 231.075 747.829 228.297 746.4 227.582M780.731 194.696C779.712 194.979 779.693 197.12 779.567 197.948C778.973 201.841 778.924 205.744 778.924 209.673C778.924 215.253 780.646 220.752 781.715 226.217C782.186 228.625 782.386 230.952 782.659 233.384C782.897 235.515 783.622 237.578 783.622 239.728C783.622 240.291 784.02 241.812 783.622 241.415C783.049 240.842 782.765 239.703 782.538 238.966M778.924 216.741C782.649 215.864 786.36 216.241 790.117 215.747C791.543 215.559 792.63 215.548 793.761 214.492C795.751 212.635 796.616 210.011 797.787 207.626C798.779 205.605 799.213 203.36 800.326 201.382C801.588 199.139 803.536 197.241 805.369 195.454L805.406 195.419C805.967 194.872 807.192 194.562 807.915 194.254C809.327 193.655 810.762 193.132 812.172 192.528M789.405 216.018C789.444 216.367 789.841 216.635 790.067 216.861C790.85 217.643 791.572 218.472 792.316 219.29C793.981 221.122 795.38 223.148 796.994 225.012C798.013 226.189 799.049 227.308 800.146 228.405C801.538 229.797 802.47 231.258 804.141 232.42C805.77 233.553 807.616 234.352 809.522 234.89C810.14 235.064 810.852 235.414 811.269 235.934C811.647 236.407 812.296 236.466 812.694 236.978C813.045 237.43 813.304 237.953 813.618 238.423M961.473 203.983C961.219 203.821 960.956 203.228 960.809 202.949C960.512 202.387 960.122 201.936 959.784 201.408C959.515 200.987 959.354 200.512 959.148 200.061C958.559 198.772 957.34 198.095 956.162 197.398C954.974 196.695 953.797 196.261 952.484 195.88C951.381 195.56 950.271 195.428 949.153 195.188C948.176 194.977 947.023 194.763 946.024 194.763C944.461 194.763 942.849 195.542 941.373 195.991C940.045 196.394 938.666 196.575 937.331 196.941C936.525 197.162 936.077 197.535 935.471 198.053C933.912 199.385 933.014 201.16 932.273 203.028C931.98 203.766 931.826 204.472 931.65 205.243C931.171 207.338 930.04 209.254 929.2 211.218C928.191 213.578 927.661 216.077 927.382 218.62C927.076 221.401 926.964 224.35 927.294 227.138C927.482 228.725 928.39 230.042 929.537 231.102C930.392 231.892 931.321 232.551 932.305 233.169C933.303 233.796 934.193 234.392 935.319 234.78C938.099 235.737 941.04 235.838 943.949 235.938L944.086 235.943C945.568 235.993 947.146 236.083 948.608 235.795C950.209 235.48 951.728 234.702 953.283 234.221C955.316 233.592 957.276 233.127 959.106 231.988C960.216 231.297 960.524 230.561 960.984 229.385C961.473 228.136 962.113 226.954 962.548 225.685C962.707 225.221 962.968 224.829 962.968 224.333M996.525 193.767C997.07 193.895 996.855 196.079 996.857 196.499C996.864 198.295 996.868 200.092 996.857 201.888C996.843 204.181 996.697 206.469 996.691 208.764C996.684 211.231 996.364 213.625 996.109 216.073C995.897 218.11 995.823 220.135 995.869 222.183C995.915 224.186 996.238 226.16 996.405 228.154C996.587 230.338 996.696 232.536 996.894 234.715C996.981 235.674 997.023 236.604 997.023 237.567C997.023 237.716 997.013 238.585 997.06 238.453C997.469 237.301 998.338 236.231 999.183 235.371C999.835 234.706 1000.55 234.103 1001.2 233.442C1002.27 232.371 1003.21 231.212 1004.15 230.036C1005.6 228.226 1007.1 226.47 1008.48 224.601C1009.48 223.228 1010.25 221.737 1011.2 220.328C1013.78 216.486 1016.64 212.821 1019.48 209.174C1021.3 206.847 1023.13 204.522 1025.04 202.276C1026.08 201.065 1027.26 199.993 1028.27 198.76C1029.09 197.765 1029.65 196.638 1029.99 195.405C1030.12 194.967 1030.27 194.532 1030.36 194.085C1030.4 193.892 1030.37 193.599 1030.56 193.471C1030.76 193.335 1031.26 194.575 1031.33 194.736C1031.86 195.959 1031.88 197.396 1031.93 198.704C1031.98 200.188 1032.08 201.706 1031.95 203.189C1031.83 204.607 1031.48 205.988 1031.33 207.402C1030.94 210.893 1031 214.476 1031.09 217.983C1031.13 219.961 1031.41 221.893 1031.99 223.784C1032.51 225.453 1033.17 227.156 1033.37 228.901C1033.76 232.388 1033.9 235.855 1033.9 239.367M876.304 257.154C876.218 256.722 875.89 256.294 875.766 255.85C875.52 254.968 875.593 253.954 875.63 253.045C875.737 250.372 876.153 247.688 876.168 245.009C876.177 243.462 875.942 241.935 875.903 240.391C875.862 238.793 875.895 237.191 875.895 235.592C875.895 232.74 875.507 229.852 875.38 226.995C875.211 223.225 875.315 219.469 875.084 215.698C874.861 212.056 875.219 208.438 875.561 204.811C875.887 201.362 875.349 197.965 875.349 194.515M876.168 194.515C881.62 194.515 886.827 192.634 892.286 192.347C894.772 192.216 897.288 192.331 899.777 192.331C901.536 192.331 903.353 192.196 905.099 192.415C906.22 192.555 907.356 192.842 908.42 193.218C909.339 193.544 910.43 193.8 911.21 194.409C912.963 195.777 913.094 198.155 914.106 199.974C914.536 200.746 914.928 201.475 915.259 202.294C915.625 203.2 915.706 203.998 915.888 204.955C916.241 206.807 916.29 208.573 916.29 210.451C916.29 212.429 915.214 213.693 914.47 215.448C913.852 216.906 913.408 218.423 912.165 219.496C910.553 220.889 909.034 221.933 906.889 221.945C903.238 221.966 899.597 221.87 895.948 221.801C892.523 221.736 889.251 220.835 885.857 220.58C883.348 220.392 880.868 220.171 878.351 220.171M825.811 192.332C825.289 192.397 825.538 194.608 825.538 195.031C825.538 195.558 825.44 196.163 825.69 196.645C826.085 197.409 826.638 198.093 826.979 198.882C827.559 200.225 828.105 201.62 828.813 202.9C829.669 204.444 830.65 205.912 831.406 207.51C832.569 209.967 833.53 212.431 834.333 215.016C835.145 217.633 835.832 220.332 836.486 222.992C837.137 225.639 837.643 228.396 838.669 230.922C839.328 232.543 839.844 234.164 840.337 235.835C840.431 236.153 840.634 236.455 840.754 236.767C840.976 237.343 840.903 237.883 841.232 238.458M822.536 257.836C823.591 257.836 824.607 258.139 825.659 258.109C829.408 258.005 832.444 254.951 834.878 252.438C836.117 251.159 836.644 249.589 837.517 248.071C838.265 246.772 838.903 245.523 839.458 244.129C840.076 242.576 840.557 240.968 841.202 239.428C841.921 237.708 843.042 236.176 843.688 234.417C844.998 230.853 846.529 227.361 848.07 223.894C849.226 221.293 850.751 218.77 851.581 216.047C852.23 213.916 852.83 211.782 853.438 209.64C854.126 207.219 854.913 204.893 855.849 202.551C856.62 200.623 857.558 198.858 858.146 196.858C858.397 196.005 858.581 195.153 858.7 194.272C858.787 193.631 858.768 192.942 859.049 192.347C859.337 191.736 859.58 191.056 859.792 190.421" stroke="#DD9E5E" stroke-width="6" stroke-linecap="round"/>
</svg>
