<svg width="417" height="48" viewBox="0 0 417 48" fill="none" xmlns="http://www.w3.org/2000/svg">
<path d="M6.59036 6.09386C6.93247 8.44248 7.66679 10.6675 8.0074 13.0058C8.32807 15.2072 9.96313 16.7739 10.5026 18.8709C10.7421 19.8019 11.8281 20.4521 12.3117 21.2768C12.8075 22.1226 13.2423 23.1444 13.9217 23.8811C15.2527 25.3244 16.294 27.0599 17.9998 28.0962C20.8517 29.8288 22.5274 32.4087 25.7927 33.7193C29.1505 35.067 32.8574 35.8758 36.4252 36.6195C40.065 37.3782 42.8769 38.2633 46.3375 39.5823" stroke="#DD9E5E" stroke-linecap="round"/>
<path d="M6.41154 5.74041C6.92736 5.95216 7.2881 6.40332 7.72461 6.71701C8.18383 7.04701 8.66687 7.1633 9.20193 7.37619C10.4864 7.88727 11.7585 8.01419 13.131 8.20409C14.1609 8.3466 15.119 8.69862 16.114 8.94967" stroke="#DD9E5E" stroke-linecap="round"/>
<path d="M5.62387 5.09064C5.92609 7.16545 4.64021 9.08339 4.11883 11.03C3.58226 13.0333 2.77383 14.81 1.52306 16.3655" stroke="#DD9E5E" stroke-linecap="round"/>
<path d="M57.2655 35.0619C57.2655 35.6723 57.2655 36.2827 57.2655 36.893C57.2655 37.0471 57.2428 37.1516 57.1966 37.2986C57.1208 37.5403 57.1691 37.8524 57.1327 38.1048C57.09 38.4012 57.0885 38.6911 57.0885 38.9897C57.0885 39.2481 57 39.4823 57 39.7418C57 40.3205 57.0024 40.9034 57.0467 41.4795C57.0822 41.9405 57.2866 42.3948 57.3515 42.8486C57.3617 42.9204 57.3805 43.0894 57.3441 43.1485C57.1775 43.4193 57.7184 43.4176 57.8701 43.4483C58.471 43.57 59.0948 43.6892 59.7086 43.6892C60.0476 43.6892 60.3217 43.5363 60.6525 43.5123C60.7823 43.5028 60.864 43.4037 60.9843 43.3648C61.1239 43.3196 61.245 43.2934 61.38 43.2321C61.5665 43.1473 61.7714 43.1787 61.9552 43.0895C62.0782 43.0297 62.2279 42.9906 62.3632 42.9813C62.489 42.9728 62.603 42.9098 62.7294 42.8904C62.8133 42.8775 62.9123 42.8645 62.9949 42.8462C63.1747 42.8062 63.2266 42.568 63.2849 42.4258C63.3962 42.1547 63.5037 41.9099 63.5037 41.6123C63.5037 41.3415 63.5891 40.9486 63.4152 40.725C63.1678 40.4068 62.8049 40.1981 62.5328 39.9089C62.3395 39.7035 61.9431 39.5528 61.6897 39.4223C61.2423 39.1918 60.7743 39.0278 60.3182 38.8324C59.9784 38.6867 59.5311 38.734 59.1704 38.734C58.8366 38.734 58.4321 38.6665 58.1061 38.739C57.8865 38.7877 57.6659 38.911 57.4326 38.911C57.0164 38.911 58.265 38.911 58.6812 38.911C59.5273 38.911 60.432 38.9015 61.2031 38.5374C61.4648 38.4138 61.7898 38.2031 62.0879 38.2031C62.2436 38.2031 62.5214 38.0402 62.5992 37.918C62.8858 37.4676 62.7877 36.8419 62.4566 36.4506C62.1344 36.0699 61.7453 35.7453 61.4243 35.3618C61.1548 35.0399 60.9611 34.8123 60.5591 34.644C59.8316 34.3395 58.9791 34.3098 58.1946 34.3098C57.9557 34.3098 57.3376 34.2868 57.2655 34.5752" stroke="#DD9E5E" stroke-linecap="round"/>
<path d="M65.8043 37.3625C65.8043 37.8214 65.7385 38.2788 65.7626 38.7365C65.7777 39.0248 65.9247 39.3015 65.9371 39.5747C65.9494 39.8452 66.0239 40.1688 66.0723 40.435C66.1212 40.7041 66.114 40.975 66.114 41.2535C66.114 41.4951 66.0813 41.8139 65.9813 42.0326C65.8823 42.2493 65.7701 42.445 65.7601 42.7061C65.7479 43.0232 65.8809 43.1094 66.1558 43.264C66.3316 43.3629 66.544 43.3841 66.7236 43.4877C66.839 43.5543 66.9778 43.6575 67.1095 43.6868C67.3775 43.7464 67.6437 43.8597 67.9378 43.8662C68.1807 43.8716 68.344 43.8206 68.5646 43.7138C68.7504 43.624 68.9976 43.5708 69.1668 43.4631C69.3526 43.3449 69.708 43.1165 69.7764 42.8929C69.8877 42.5286 69.9189 42.1548 69.9189 41.777C69.9189 41.3606 69.8952 41.0885 69.6731 40.725C69.4804 40.4097 68.8771 40.3268 68.5474 40.3268C68.3337 40.3268 68.1686 40.2411 67.9624 40.1941C67.8481 40.168 67.6907 40.1785 67.5962 40.1007C67.5179 40.0362 67.4598 39.9788 67.3528 39.9729C67.1122 39.9595 66.9427 39.7959 66.6892 39.7959" stroke="#DD9E5E" stroke-linecap="round"/>
<path d="M71.6444 37.6721C71.6444 38.3704 71.6242 39.0597 71.723 39.7515C71.8049 40.3246 71.6886 40.9399 71.6886 41.5212C71.6886 41.8948 71.6444 42.2743 71.6444 42.6371C71.6444 42.7933 71.5919 42.9405 71.6001 43.114C71.6053 43.2235 71.6673 43.5122 71.7771 43.5122" stroke="#DD9E5E" stroke-linecap="round"/>
<path d="M79.2099 34.4867C79.4987 34.4867 78.9933 34.8124 78.9002 34.8849C78.6014 35.1173 78.1933 35.0797 77.8433 35.2388C77.6403 35.3311 77.3489 35.2831 77.1305 35.2831C76.8945 35.2831 76.6586 35.2831 76.4226 35.2831C76.2332 35.2831 75.6851 35.2911 75.5648 35.4207C75.3288 35.6748 75.2265 36.0403 75.0265 36.3203C74.827 36.5996 74.5202 36.7876 74.5202 37.1855C74.5202 37.4552 74.4941 37.6994 74.3899 37.9425C74.3175 38.1114 74.2547 38.3826 74.2547 38.5669C74.2547 38.711 74.1662 38.7646 74.1662 38.911C74.1662 39.0322 74.1662 39.1535 74.1662 39.2747C74.1662 39.6772 74.1326 40.0949 74.2547 40.484C74.3415 40.7608 74.4317 40.9926 74.4317 41.2902C74.4317 41.8239 74.4752 42.3747 74.9429 42.6741C75.1236 42.7897 75.3338 42.7445 75.4935 42.851C75.6162 42.9328 75.7887 42.9813 75.9384 42.9813C76.2923 42.9813 76.6327 43.1723 76.9584 43.264C77.2154 43.3363 78.2917 43.4843 78.4922 43.2468C78.7083 42.9906 78.9736 42.7837 79.1018 42.4725C79.2488 42.1153 79.3997 41.7629 79.4287 41.3714C79.4748 40.7484 79.555 40.1326 79.318 39.5402C79.1951 39.2329 79.0922 38.9338 78.9002 38.6553C78.7102 38.3799 78.4445 38.3081 78.1727 38.1244C78.0365 38.0324 77.9199 38.0554 77.7745 38.0212C77.7012 38.004 77.658 37.9392 77.5778 37.918C77.4397 37.8814 77.2824 37.8719 77.1551 37.8049C76.9878 37.7169 76.6302 37.6437 76.4496 37.741C76.3563 37.7913 76.2683 37.8491 76.1571 37.8491C76.0527 37.8491 76.0706 37.9509 75.9777 37.9819C75.7534 38.0567 75.6176 38.3098 75.3804 38.3776C75.1818 38.4343 75.0888 38.6831 75.0068 38.8471C74.9434 38.974 74.8871 39.1234 74.82 39.2453C74.7853 39.3084 74.7017 39.4558 74.6529 39.5107C74.4623 39.7251 74.1662 40.0074 74.1662 40.3267" stroke="#DD9E5E" stroke-linecap="round"/>
<path d="M81.5105 40.371C81.5929 40.3802 81.7243 40.4071 81.803 40.4374C82.0879 40.547 82.5611 40.4595 82.8574 40.4595C83.4638 40.4595 84.0953 40.5173 84.6984 40.457C85.2228 40.4046 85.7202 40.4595 86.2445 40.4595C86.3469 40.4595 87.0373 40.5032 87.0408 40.4054C87.0512 40.1149 87.047 39.8308 86.9278 39.5599C86.8345 39.3478 86.6784 39.0984 86.6402 38.8692C86.6276 38.7933 86.5314 38.7667 86.4952 38.7045C86.4184 38.5724 86.3539 38.4492 86.2715 38.3162C86.1226 38.0755 85.8979 37.8466 85.6447 37.7164C85.066 37.4188 84.5738 37.1232 83.8898 37.2396C83.4309 37.3177 82.8662 37.362 82.7395 37.8688C82.5375 38.6766 82.013 39.3493 81.5547 40.0367C81.1897 40.5843 81.1201 41.3589 81.6432 41.831C82.1635 42.3006 82.8261 42.5667 83.349 43.0059C83.5248 43.1535 83.7597 43.2485 83.966 43.3402C84.1712 43.4314 84.307 43.552 84.546 43.5983C85.4438 43.772 86.2579 43.3373 86.7311 42.6274" stroke="#DD9E5E" stroke-linecap="round"/>
<path d="M89.076 37.7607C89.076 37.9366 89.1127 38.1068 89.1203 38.2818C89.1251 38.3927 89.2009 38.4649 89.2088 38.5669C89.2236 38.7591 89.3515 38.8468 89.43 38.9995C89.8491 39.8144 89.727 40.768 89.4767 41.6024C89.3167 42.1357 89.1203 42.6624 89.1203 43.2247C89.1203 43.8242 89.1488 44.4201 89.1645 45.0165C89.1705 45.2419 89.2221 45.4333 89.2874 45.6457C89.3338 45.7963 89.4988 46.2261 89.4988 46.0685C89.4988 45.9931 89.4428 45.8674 89.4202 45.7932C89.3664 45.6171 89.3112 45.5098 89.2874 45.3164C89.2111 44.6961 89.2088 44.077 89.2088 43.4533C89.2088 43.3001 89.1178 42.3226 89.3243 42.3226C89.547 42.3226 89.7653 42.4504 89.9978 42.4504C90.0944 42.4504 90.1171 42.5389 90.2042 42.5389C90.6062 42.5389 90.8254 42.7629 91.1456 42.9617C91.2443 43.0229 91.4308 43.1378 91.5536 43.1583C91.6617 43.1763 91.7024 43.409 91.8191 43.4582C92.0323 43.548 92.4533 43.468 92.6818 43.468C93.1395 43.468 93.4538 43.2929 93.6552 42.9125C93.7628 42.7093 94.018 42.6198 94.0976 42.3546C94.1601 42.1462 94.1879 41.935 94.2303 41.7229C94.2668 41.5406 94.3587 41.3974 94.4098 41.2215C94.6274 40.4717 94.6856 39.5112 94.3213 38.8029C94.1824 38.5328 93.9138 38.1585 93.6134 38.0458C93.1932 37.8882 92.6454 37.7059 92.1927 37.6747C91.8567 37.6515 91.512 37.6722 91.1751 37.6722C90.8089 37.6722 90.4452 37.8837 90.1379 38.0729C89.9332 38.1988 89.5603 38.3801 89.4497 38.6013C89.3591 38.7825 89.3857 38.9728 89.3857 39.1765" stroke="#DD9E5E" stroke-linecap="round"/>
<path d="M96.5088 37.4509C96.7842 37.4509 96.6858 37.9689 96.6858 38.1662C96.6858 38.7888 96.656 39.3791 96.8726 39.9728C97.159 40.7578 97.0397 41.6441 97.0397 42.47C97.0397 42.6623 96.9544 43.0938 97.0643 43.2664C97.1679 43.4293 97.0648 43.6066 97.138 43.7678C97.1643 43.8256 97.5369 43.5165 97.5706 43.4925C98.0461 43.154 98.5548 42.8704 99.038 42.5438C99.5835 42.1749 99.7609 41.6562 100.075 41.1206C100.25 40.8227 100.409 40.5102 100.601 40.2235C100.834 39.8779 101.111 39.5633 101.277 39.1764C101.456 38.7597 101.574 38.3055 101.729 37.8786C101.761 37.7926 101.83 37.9005 101.838 37.9376C101.916 38.3054 101.854 38.717 101.828 39.0879C101.787 39.6549 101.689 40.2003 101.619 40.7642C101.579 41.0821 101.603 41.4032 101.597 41.7228C101.59 42.0478 101.42 42.356 101.42 42.6912C101.42 43.001 101.425 43.36 101.729 43.5122" stroke="#DD9E5E" stroke-linecap="round"/>
<path d="M103.765 37.7164C103.608 37.4923 104.505 37.5831 104.571 37.5812C105.042 37.5683 105.518 37.5028 105.974 37.4116C106.369 37.3327 106.858 37.4067 107.26 37.4067C107.691 37.4067 108.112 37.4952 108.543 37.4952C108.697 37.4952 109.035 37.4274 109.074 37.5837" stroke="#DD9E5E" stroke-linecap="round"/>
<path d="M106.242 38.0261C106.242 38.6054 106.065 39.1215 106.065 39.6975C106.065 39.9878 106.005 40.2547 105.979 40.543C105.947 40.9015 105.977 41.2747 105.977 41.6344C105.977 41.7906 105.893 41.9098 105.888 42.062C105.882 42.2618 105.883 42.4492 105.854 42.647C105.823 42.8567 105.8 43.0531 105.8 43.2664C105.8 43.4143 105.823 43.5719 105.942 43.6794C106.065 43.7893 106.154 43.603 106.154 43.8662" stroke="#DD9E5E" stroke-linecap="round"/>
<path d="M110.136 40.7692C110.448 40.7692 110.766 40.7249 111.082 40.7249C111.77 40.7249 112.504 40.8008 113.179 40.6389C113.597 40.5384 114.003 40.4367 114.425 40.3489C114.783 40.2742 115.103 40.3279 115.445 40.1842C115.569 40.1317 115.614 40.167 115.622 40.0171C115.631 39.8341 115.707 39.7039 115.602 39.5206C115.537 39.4077 115.44 39.3316 115.346 39.2453C115.209 39.1187 115.124 38.9537 114.992 38.8225C114.732 38.5623 114.453 38.3015 114.162 38.0753C113.861 37.8414 113.347 37.6722 112.965 37.6722C112.59 37.6722 112.21 37.6514 111.836 37.6722C111.466 37.6928 111.094 38.1147 110.888 38.3899C110.653 38.7033 110.396 39.0506 110.207 39.4001C110.014 39.7561 110.003 40.3004 110.003 40.6979C110.003 40.9315 109.969 41.177 110.072 41.3886C110.255 41.765 110.479 42.0351 110.799 42.3029C111.198 42.6366 111.525 42.9935 112.038 43.1362C112.351 43.2232 112.67 43.3708 112.994 43.4188C113.608 43.5098 114.112 43.1996 114.614 42.9027C114.797 42.7943 115.268 42.7257 115.268 42.4504" stroke="#DD9E5E" stroke-linecap="round"/>
<path d="M120.577 37.0085C120.63 37.5429 120.71 38.0868 120.71 38.6259C120.71 39.4705 120.84 40.3268 120.7 41.1674C120.597 41.7814 120.621 42.3974 120.621 43.0182C120.621 43.3668 120.765 43.6635 120.796 43.9989C120.813 44.1879 120.798 44.3841 120.798 44.5741C120.798 44.842 120.71 44.5693 120.71 44.4413" stroke="#DD9E5E" stroke-linecap="round"/>
<path d="M120.975 40.725C121.035 40.6816 121.09 40.6863 121.162 40.6807C121.343 40.6668 121.501 40.5913 121.663 40.5136C122.037 40.3341 122.436 40.1731 122.735 39.8745C122.964 39.6455 123.111 39.3452 123.32 39.0978C123.442 38.953 123.586 38.8157 123.674 38.6456C123.835 38.3321 123.979 37.8878 124.283 37.6919C124.533 37.5317 124.895 37.5838 125.178 37.5838" stroke="#DD9E5E" stroke-linecap="round"/>
<path d="M122.17 40.3268C122.355 40.3268 122.324 40.5983 122.374 40.7201C122.487 40.997 122.661 41.2406 122.767 41.5238C122.872 41.8048 122.971 42.0914 123.099 42.3619C123.193 42.5613 123.365 42.6722 123.443 42.883C123.547 43.1654 123.839 43.2148 124.094 43.3132C124.284 43.3863 124.402 43.4632 124.613 43.5024C124.748 43.5275 124.851 43.5222 124.913 43.645" stroke="#DD9E5E" stroke-linecap="round"/>
<path d="M126.682 37.6721C126.808 38.1606 126.948 38.5804 126.948 39.0879C126.948 39.4922 126.898 39.873 127.081 40.2382C127.319 40.7145 127.365 41.2794 127.602 41.7621C127.803 42.1717 128.09 42.5646 128.364 42.937C128.432 43.03 128.993 43.7493 129.126 43.6695C129.716 43.3153 129.886 42.6036 130.045 41.9981C130.216 41.3458 130.341 40.7152 130.576 40.0809C130.764 39.5715 131.13 39.1465 131.338 38.6553C131.469 38.3441 131.616 38.0695 131.716 37.736C131.809 37.4283 131.535 38.3554 131.397 38.6455C131.281 38.8891 131.235 39.1245 131.151 39.3779C131.047 39.6895 130.874 39.9705 130.728 40.2628C130.523 40.6733 130.207 41.0737 130.069 41.5065C130.015 41.678 129.902 41.8197 129.843 41.9882C129.792 42.1375 129.802 42.301 129.75 42.4503C129.665 42.6936 129.641 42.9965 129.538 43.227C129.432 43.4671 129.451 43.7262 129.362 43.9693C129.319 44.0832 129.324 44.2754 129.258 44.3626C129.111 44.5594 128.953 44.7564 128.772 44.9378C128.415 45.2943 128.13 45.7166 127.779 46.0684C127.554 46.2928 127.492 46.3437 127.179 46.3437C127.098 46.3437 126.898 46.3806 126.835 46.324C126.711 46.2141 126.727 45.9561 126.727 45.8128" stroke="#DD9E5E" stroke-linecap="round"/>
<path d="M133.673 37.4952C133.685 37.9309 133.806 38.3956 133.874 38.8274C133.944 39.2649 134.013 39.7191 134.115 40.1498C134.28 40.8493 134.469 41.5419 134.469 42.2636C134.469 42.9074 134.435 43.5453 134.425 44.1857C134.42 44.4836 134.248 44.6953 134.248 44.9722C134.248 45.1889 134.204 45.407 134.204 45.6162C134.204 45.6933 134.208 46.1267 134.204 45.8374C134.198 45.4419 134.12 45.0453 134.164 44.6478C134.213 44.2108 134.409 43.7958 134.425 43.3549C134.433 43.1264 134.433 42.811 134.513 42.5979C134.591 42.3924 134.742 41.7483 135.034 42.1161C135.221 42.3505 135.503 42.5766 135.639 42.8486C135.703 42.9757 135.83 43.0146 135.929 43.114C136.049 43.2338 136.125 43.3775 136.308 43.4213C136.936 43.572 137.435 43.5293 138.031 43.291C138.555 43.0812 139.032 42.7379 139.336 42.2488C139.563 41.8829 139.709 41.5288 139.857 41.1231C140.092 40.4791 139.999 39.6964 139.999 39.0289C139.999 37.559 138.002 36.9587 136.789 37.2125C136.414 37.2912 136.057 37.4303 135.683 37.5149C135.508 37.5544 135.325 37.646 135.152 37.7017C135.053 37.7335 134.833 37.8149 134.759 37.8958C134.56 38.1135 134.476 38.3955 134.415 38.6701C134.382 38.8171 134.367 38.9983 134.248 39.0879" stroke="#DD9E5E" stroke-linecap="round"/>
<path d="M146.326 39.088C146.303 38.6916 145.579 38.3554 145.313 38.1195C145.09 37.9205 144.872 37.7826 144.623 37.6255C144.397 37.4831 144.088 37.5447 143.829 37.4977C143.647 37.4646 143.48 37.4067 143.293 37.4067C142.966 37.4067 142.28 37.6553 142.059 37.8959C141.82 38.1572 141.902 38.5884 141.902 38.911C141.902 39.4314 141.99 39.9325 141.99 40.4595C141.99 40.944 142.147 41.303 142.3 41.7622C142.499 42.3592 142.809 42.851 143.372 43.178C143.724 43.3824 144.167 43.5076 144.576 43.5122C144.813 43.5149 145.05 43.5122 145.286 43.5122C145.519 43.5122 145.671 43.4043 145.874 43.3058C146.107 43.1926 146.713 42.8673 146.803 42.5979C146.877 42.376 146.857 42.0668 146.857 41.831" stroke="#DD9E5E" stroke-linecap="round"/>
<path d="M151.503 37.5394C151.342 37.7648 151.258 38.1046 151.203 38.3702C151.143 38.6546 151.024 38.9752 151.016 39.2649C151.002 39.7564 151.021 40.2334 150.95 40.7225C150.88 41.1932 150.735 41.6499 150.652 42.1161C150.58 42.5185 150.497 43.2524 150.731 43.6204C150.8 43.7285 150.943 44.0059 151.038 44.048C151.471 44.2405 151.788 44.1265 152.201 43.8465C152.799 43.4402 152.935 42.7736 153.095 42.121C153.171 41.8127 153.312 41.5754 153.452 41.2951C153.611 40.9775 153.724 40.64 153.892 40.3267C154.026 40.0764 154.277 39.885 154.501 39.7172C154.714 39.5576 154.886 39.3598 155.086 39.1862C155.383 38.9282 155.532 38.5127 155.838 38.2719C155.881 38.2384 156.038 38.0625 156.062 38.1269C156.175 38.4283 156.148 38.7359 156.148 39.0535C156.148 39.6197 156.148 40.1858 156.148 40.7519C156.148 41.1854 156.148 41.6188 156.148 42.0522C156.148 42.2968 156.071 42.5222 156.06 42.7601C156.051 42.9329 156.157 43.8661 155.883 43.8661" stroke="#DD9E5E" stroke-linecap="round"/>
<path d="M161.767 43.9104C161.915 43.8059 161.939 43.5662 161.998 43.4041C162.111 43.0941 162.181 42.7814 162.2 42.4504C162.247 41.6159 162.064 40.8227 161.978 40.0072C161.915 39.3982 161.703 38.8215 161.6 38.2228C161.539 37.8687 161.468 37.5733 161.742 37.2986C162.034 37.0068 162.176 37.0749 162.566 37.1437C162.862 37.196 163.104 37.3182 163.414 37.3182C163.773 37.3182 164.115 37.3285 164.466 37.2494C164.802 37.1735 165.355 37.1701 165.682 37.2961C166.039 37.4333 166.675 37.5368 166.877 37.918C166.965 38.0835 166.943 38.2642 166.943 38.4464C166.943 38.6919 166.825 38.7885 166.771 39.0044C166.637 39.5423 166.483 40.0779 166.358 40.6168C166.217 41.2305 166.147 41.8797 166.147 42.5168C166.147 42.9141 166.147 43.3115 166.147 43.7089C166.147 43.8908 166.137 44.0755 166.149 44.257C166.168 44.5359 166.235 44.2496 166.235 44.1316" stroke="#DD9E5E" stroke-linecap="round"/>
<path d="M169.908 37.7607C169.59 38.0518 169.175 38.2972 169.047 38.7341C168.904 39.2252 168.802 39.657 168.802 40.1695C168.802 40.5792 168.802 40.9888 168.802 41.3985C168.802 41.7941 168.945 42.1156 169.121 42.4701C169.318 42.867 169.478 43.2767 169.971 43.3255C170.589 43.3866 171.233 43.3353 171.854 43.3353C172.521 43.3353 173.067 42.9713 173.622 42.625C173.859 42.4767 174.039 42.1605 174.133 41.8999C174.274 41.5076 174.29 40.9961 174.219 40.5874C174.058 39.6666 173.929 38.4641 173.204 37.7853C172.812 37.4185 172.438 37.2941 171.903 37.2347C171.697 37.2118 171.458 37.1075 171.255 37.1463C171.092 37.1771 170.827 37.3035 170.684 37.3871C170.524 37.4813 170.354 37.5021 170.198 37.6034C170.046 37.7018 169.777 37.7955 169.731 37.982" stroke="#DD9E5E" stroke-linecap="round"/>
<path d="M176.102 43.6449C176.29 43.6449 176.19 42.4668 176.19 42.2832C176.19 41.5778 176.19 40.8724 176.19 40.1669C176.19 39.5249 176.146 38.8852 176.146 38.2448C176.146 37.9871 176.05 37.6739 176.352 37.5935C176.751 37.4874 177.211 37.5298 177.621 37.505C177.936 37.4859 178.253 37.4952 178.569 37.4952C179.074 37.4952 179.579 37.4952 180.083 37.4952C180.365 37.4952 180.576 37.7894 180.855 37.8049C181.05 37.8157 181.235 37.8491 181.433 37.8491C181.575 37.8491 181.65 38.0602 181.696 38.1834C181.894 38.7216 181.564 39.3385 181.543 39.8745C181.53 40.2103 181.455 40.5194 181.455 40.8675C181.455 41.0648 181.437 41.2425 181.413 41.4352C181.324 42.1457 180.855 42.7735 181.101 43.5122" stroke="#DD9E5E" stroke-linecap="round"/>
<path d="M184.242 46.1226C184.472 46.3268 184.371 45.5502 184.365 45.4639C184.323 44.7832 184.331 44.1031 184.331 43.4213C184.331 42.4675 184.46 41.5401 184.505 40.5898C184.535 39.9713 184.547 39.2445 184.35 38.6554C184.237 38.3156 184.242 37.8502 184.242 37.4952" stroke="#DD9E5E" stroke-linecap="round"/>
<path d="M184.286 38.5129C184.303 38.6491 185.213 38.2573 185.358 38.1737C185.648 38.0064 185.839 37.8547 186.179 37.8492C186.357 37.8464 186.585 37.8898 186.754 37.8296C186.891 37.7808 186.965 37.7607 187.118 37.7607C187.617 37.7607 188.274 37.7864 188.534 38.2917C188.824 38.856 188.711 39.5526 188.711 40.1744C188.711 40.5589 188.869 40.7791 188.996 41.1257C189.103 41.4176 189.109 41.7071 189.109 42.013C189.109 42.3747 189.088 42.6472 188.753 42.8487C188.426 43.0444 188.033 43.1998 187.669 43.3108C187.436 43.3815 187.141 43.3807 186.897 43.4214C186.743 43.447 186.593 43.5123 186.437 43.5123C186.271 43.5123 186.142 43.6869 185.987 43.5983C185.876 43.5349 185.786 43.5467 185.678 43.5074C185.582 43.4725 185.534 43.3695 185.437 43.328C185.253 43.2492 185.195 42.8863 185.127 42.7159" stroke="#DD9E5E" stroke-linecap="round"/>
<path d="M191.631 40.3268C191.622 40.4767 191.544 40.6118 191.518 40.7594C191.482 40.9562 191.486 41.1803 191.508 41.3788C191.545 41.7045 191.65 42.0172 191.827 42.2931C192.175 42.8335 192.509 43.2374 193.047 43.5909C193.206 43.6961 193.419 43.6886 193.602 43.7089C194.012 43.7545 194.464 43.8328 194.875 43.7581C195.272 43.6858 195.553 43.4196 195.844 43.1583C196.132 42.899 196.411 42.6256 196.674 42.3423C197.021 41.9696 197.178 41.256 197.203 40.7643C197.225 40.3231 197.214 39.7694 197.051 39.3559C196.925 39.0389 196.931 38.7002 196.738 38.4022C196.546 38.1057 196.395 37.7923 196.124 37.5493C195.837 37.292 195.402 37.2581 195.037 37.2126C194.279 37.1177 192.927 37.1256 192.518 37.9426C192.293 38.3926 192.221 38.876 192.154 39.3633C192.095 39.8003 191.675 40.1704 191.675 40.5922" stroke="#DD9E5E" stroke-linecap="round"/>
<path d="M203.665 34.6637C203.434 34.6637 203.248 34.8243 203.011 34.8407C202.84 34.8525 202.695 34.9292 202.507 34.9292C202.104 34.9292 201.69 34.9817 201.288 35.0152C201.006 35.0387 200.777 34.8924 200.499 34.8849C200.247 34.8781 200.111 34.9289 199.929 35.1061C199.792 35.2393 199.629 35.3525 199.511 35.5043C199.45 35.5823 199.316 35.7295 199.29 35.8165C199.208 36.0809 199.066 36.3494 198.95 36.6104C198.852 36.8318 198.982 37.1268 198.909 37.36C198.885 37.435 198.898 37.5096 198.877 37.5837C198.843 37.7018 198.754 37.7588 198.754 37.891C198.754 38.1752 198.754 38.452 198.719 38.734C198.677 39.0789 198.698 39.4367 198.621 39.7762C198.581 39.9535 198.559 40.038 198.663 40.194C198.794 40.3914 198.814 40.6476 198.877 40.8675C198.976 41.2168 199.03 41.5607 199.174 41.8974C199.261 42.1002 199.315 42.2762 199.417 42.4701C199.554 42.7293 199.789 42.798 200.039 42.9125C200.273 43.0195 200.545 42.9993 200.789 43.0944C201.012 43.1812 201.223 43.3193 201.462 43.3353C201.617 43.3456 201.741 43.4551 201.897 43.4655C202.049 43.4757 202.188 43.4701 202.337 43.5024C202.538 43.5458 202.774 43.5123 202.979 43.5123C203.45 43.5123 203.938 42.8928 204.107 42.4947C204.441 41.7101 204.516 40.8235 204.407 39.9728C204.38 39.76 204.271 39.569 204.245 39.3583C204.23 39.2387 204.24 39.1042 204.166 38.9995C204.077 38.872 203.977 38.7155 203.864 38.6087C203.752 38.5031 203.583 38.3216 203.439 38.2719C203.062 38.1424 202.682 37.9772 202.313 37.8295C202.15 37.7645 202.079 37.6722 201.897 37.6722C201.779 37.6722 201.66 37.6722 201.541 37.6722C201.226 37.6722 200.91 37.6722 200.595 37.6722C200.442 37.6722 200.424 37.7057 200.317 37.8246C200.116 38.0489 199.89 38.3156 199.639 38.4833C199.269 38.7296 199.092 39.0379 199.017 39.4862C198.988 39.6575 198.902 40.1498 198.665 40.1498" stroke="#DD9E5E" stroke-linecap="round"/>
<path d="M210.744 37.7607C210.537 37.7814 210.433 38.0562 210.323 38.1983C210.052 38.5479 209.794 38.8575 209.628 39.2748C209.452 39.7164 209.251 40.1585 209.178 40.6316C209.11 41.0689 209.107 41.5176 209.107 41.9589C209.107 42.5482 209.137 43.1981 208.93 43.7581C208.766 44.1994 208.54 44.6237 208.443 45.0854C208.333 45.606 208.046 46.0837 207.959 46.6093C207.885 47.049 207.656 47.086 207.268 47.0517C207.148 47.0411 206.983 46.7111 206.941 46.6068C206.879 46.4513 206.894 46.2867 206.894 46.1226C206.894 45.886 206.761 45.7219 206.673 45.5032" stroke="#DD9E5E" stroke-linecap="round"/>
<path d="M208.664 44.1758C208.664 43.9052 208.46 43.5636 208.33 43.3352C208.051 42.8451 207.753 42.3623 207.467 41.8752C207.269 41.5377 207.077 41.2654 206.914 40.9215C206.817 40.7165 206.835 40.4747 206.762 40.2628C206.7 40.0836 206.725 39.8975 206.693 39.7122C206.652 39.4781 206.584 39.2431 206.521 39.0142C206.49 38.9025 206.417 38.8209 206.383 38.7143C206.34 38.5794 206.373 38.4364 206.319 38.3014C206.249 38.1246 206.187 38.046 206.187 37.8491" stroke="#DD9E5E" stroke-linecap="round"/>
<path d="M212.956 37.5837C213.148 37.8097 213.272 38.342 213.307 38.6333C213.373 39.1712 213.398 39.6976 213.398 40.2383C213.398 40.9712 213.535 41.6376 213.642 42.3595C213.68 42.6239 213.67 42.9008 213.664 43.1682C213.662 43.2409 213.577 43.3546 213.654 43.3255C213.881 43.2389 214.096 42.9999 214.283 42.8486C214.732 42.4863 215.143 42.086 215.424 41.5754C215.793 40.9026 215.924 40.1236 216.274 39.4419C216.448 39.1028 216.79 38.7267 217.075 38.4735C217.287 38.2853 217.575 38.225 217.783 38.0262C217.795 38.015 217.962 37.7705 217.98 37.7705C218.227 37.7705 218.132 38.7961 218.132 38.9331C218.132 39.4092 217.968 39.8575 217.886 40.3219C217.818 40.7149 217.645 41.0598 217.645 41.4673C217.645 41.6541 217.645 41.8409 217.645 42.0277C217.645 42.5294 217.557 43.0091 217.557 43.5123" stroke="#DD9E5E" stroke-linecap="round"/>
<path d="M213.796 34.4424C213.914 34.768 214.114 35.0852 214.293 35.3814C214.527 35.7683 214.702 35.9582 215.195 36.013C215.72 36.0714 216.393 35.9388 216.871 35.7181C217.082 35.621 217.304 35.1249 217.37 34.9193C217.461 34.6353 217.452 34.2868 217.38 34" stroke="#DD9E5E" stroke-linecap="round"/>
<path d="M219.99 37.8492C221.315 37.8492 222.649 37.921 223.962 37.7386C224.645 37.6438 225.263 37.3625 225.963 37.3625" stroke="#DD9E5E" stroke-linecap="round"/>
<path d="M222.512 37.9376C222.512 39.174 222.424 40.4002 222.424 41.6368C222.424 42.1328 222.247 42.5915 222.247 43.0894C222.247 43.2009 222.247 43.3123 222.247 43.4237C222.247 43.7011 222.074 43.884 221.981 44.1316" stroke="#DD9E5E" stroke-linecap="round"/>
<path d="M226.14 40.6807C226.15 40.5252 226.392 40.5922 226.504 40.5922C226.99 40.5922 227.46 40.5504 227.944 40.5135C228.653 40.4594 229.341 40.476 230.051 40.371C230.325 40.3304 230.647 40.3183 230.901 40.2136C231.144 40.1137 231.518 40.2059 231.67 39.9629C231.977 39.4761 231.438 39.0438 231.12 38.734C230.952 38.5708 230.749 38.449 230.562 38.3112C230.294 38.114 230 37.8496 229.684 37.741C229.245 37.5899 228.715 37.6721 228.254 37.6721C227.903 37.6721 227.505 37.8849 227.295 38.1736C227.225 38.2704 227.184 38.4212 227.133 38.5324C227.097 38.6112 227.117 38.7101 227.113 38.793C227.103 39.0167 227.017 39.1854 226.944 39.3902C226.83 39.7087 226.683 40.0711 226.484 40.3464C226.2 40.7393 225.668 41.1489 225.653 41.6786C225.651 41.7761 225.618 41.9608 225.703 42.0276C225.94 42.2141 226.156 42.398 226.45 42.4922C226.799 42.6039 227.183 42.6813 227.546 42.7257C227.761 42.7518 228.007 42.7246 228.215 42.7822C228.351 42.82 228.491 42.786 228.628 42.824C228.88 42.8943 229.102 42.9775 229.37 42.9813C229.85 42.988 230.361 42.8678 230.803 42.6716C230.976 42.5945 231.145 42.5644 231.317 42.4504" stroke="#DD9E5E" stroke-linecap="round"/>
<path d="M237.112 36.2564C237.112 36.0032 237.469 35.5485 237.754 35.5485C237.923 35.5485 238.064 35.3715 238.265 35.3715C238.514 35.3715 238.787 35.3489 239.02 35.2585C239.409 35.1069 239.837 35.1061 240.254 35.1061C240.851 35.1061 241.293 35.122 241.669 35.6272C241.939 35.9895 242.068 36.376 242.068 36.8119C242.068 37.0063 242.008 37.1275 241.955 37.3084C241.909 37.4643 241.797 37.6102 241.765 37.7606C241.707 38.0313 241.54 37.958 241.298 38.0925C240.917 38.3042 240.552 38.5597 240.145 38.7094C240.059 38.7413 239.961 38.713 239.88 38.7536C239.736 38.8254 239.605 38.8943 239.457 38.9577C239.215 39.0617 239.06 39.0879 238.796 39.0879C238.747 39.0879 238.436 39.0549 238.494 39.1568C238.535 39.2304 238.932 39.1764 239.025 39.1764C239.343 39.1764 239.722 39.2357 240.032 39.1666C240.215 39.1261 240.33 39.0373 240.529 39.1174C240.993 39.3045 241.676 39.3322 242.023 39.7565C242.283 40.074 242.252 40.4531 242.399 40.8134C242.485 41.0235 242.611 41.26 242.662 41.4795C242.743 41.823 242.845 42.2398 242.721 42.5831C242.576 42.9853 242.275 43.1523 241.935 43.3647C241.549 43.606 241.182 43.7607 240.716 43.7777C240.289 43.7932 239.878 43.7633 239.457 43.699C239.134 43.6496 238.827 43.4397 238.508 43.3451C238.107 43.2258 237.752 42.9345 237.363 42.8142C237.279 42.7882 237.295 42.7158 237.201 42.7158C237.074 42.7158 236.935 42.6728 236.822 42.6175C236.578 42.4975 236.626 42.3366 236.626 42.0964" stroke="#DD9E5E" stroke-linecap="round"/>
<path d="M245.341 35.8141C245.341 35.9692 245.303 36.1142 245.297 36.2663C245.291 36.4484 245.107 36.591 245.051 36.7677C244.993 36.9534 244.947 37.1423 244.943 37.338C244.938 37.6335 244.8 37.9031 244.722 38.1835C244.582 38.6882 244.346 39.2524 244.422 39.7861C244.454 40.0108 244.547 40.2212 244.58 40.4497C244.614 40.694 244.648 40.9314 244.722 41.1674C244.889 41.6982 244.955 42.1668 245.297 42.6373C245.612 43.0701 245.997 43.4359 246.384 43.8023C246.463 43.8776 246.568 43.9903 246.669 44.0334C246.825 44.1005 247.133 44.0471 247.298 44.0432C247.887 44.0292 248.341 43.7321 248.827 43.4435C249.298 43.1638 249.553 42.5256 249.977 42.1604C250.287 41.8941 250.497 41.6232 250.705 41.2756C250.92 40.9152 251.179 40.6039 251.304 40.1941C251.614 39.1849 251.338 38.1365 251.073 37.1512C250.915 36.5628 250.698 35.772 250.233 35.3421C250.026 35.1512 249.914 34.9162 249.677 34.7522C249.423 34.5761 249.221 34.4171 248.905 34.354C248.567 34.2864 248.216 34.3098 247.873 34.3098C247.735 34.3098 247.53 34.2735 247.401 34.3393C246.955 34.5667 246.638 34.997 246.339 35.3815C246.139 35.6385 245.76 35.6812 245.504 35.8583C245.231 36.047 245.297 36.2742 245.297 36.6104" stroke="#DD9E5E" stroke-linecap="round"/>
<path d="M255.252 45.8128C255.411 45.8128 255.411 45.0443 255.451 44.8837C255.545 44.5067 255.683 44.1305 255.729 43.7432C255.771 43.381 255.705 43.4504 256.046 43.5073C256.385 43.5638 256.68 43.6007 257.031 43.6007C257.739 43.6007 258.44 43.5201 259.145 43.5122C259.431 43.509 259.682 43.4237 259.964 43.4237C260.19 43.4237 260.4 43.4918 260.625 43.5097C260.967 43.5371 261.274 43.6449 261.625 43.6449C261.752 43.6449 261.857 43.6692 261.977 43.6892C262.143 43.7169 262.084 44.0462 262.132 44.1513C262.275 44.4659 262.242 44.7907 262.242 45.1492C262.242 45.3133 262.242 45.4213 262.173 45.5719C262.091 45.753 262.226 45.8128 261.977 45.8128" stroke="#DD9E5E" stroke-linecap="round"/>
<path d="M260.561 43.3795C260.561 43.0288 260.527 42.7679 260.404 42.4406C260.307 42.1846 260.224 41.8151 260.205 41.5483C260.179 41.1994 260.03 40.88 260.03 40.5234C260.03 40.0875 259.97 39.6037 260.065 39.1764C260.136 38.8555 260.137 38.217 259.9 37.9794C259.749 37.8287 259.65 37.7143 259.416 37.682C258.883 37.6086 258.297 37.6722 257.759 37.6722C257.251 37.6722 257.154 38.1455 257.154 38.5767C257.154 38.7849 257.201 39.0625 257.145 39.2649C257.069 39.5365 256.909 39.794 256.815 40.0662C256.601 40.6885 256.42 41.3049 256.166 41.9096C256.005 42.295 255.96 42.7017 255.96 43.114" stroke="#DD9E5E" stroke-linecap="round"/>
<path d="M264.366 37.1412C264.366 37.7082 264.366 38.2752 264.366 38.8421C264.366 39.2418 264.372 39.642 264.366 40.0416C264.359 40.484 264.227 40.9065 264.179 41.3443C264.127 41.8257 264.145 42.3106 264.145 42.7945C264.145 43.1166 264.012 43.3697 264.012 43.6892" stroke="#DD9E5E" stroke-linecap="round"/>
<path d="M264.543 40.371C264.855 40.371 264.976 40.6638 265.251 40.7938C265.473 40.8988 265.798 40.9135 266.04 40.9437C266.215 40.9656 266.403 41.0101 266.581 40.988C266.791 40.9616 266.986 40.9462 267.202 40.9462C267.734 40.9462 267.924 40.5915 268.348 40.3464C268.455 40.2846 268.578 40.1661 268.702 40.1523C268.823 40.1388 268.923 40.1096 269.011 40.0171C269.256 39.7605 269.188 39.1467 269.188 38.825C269.188 38.3787 269.144 37.9332 269.144 37.4854C269.144 37.2282 269.1 37.1756 269.1 37.4977C269.1 38.0351 269.096 38.572 269.051 39.1076C269.012 39.5672 268.74 39.9812 268.702 40.4398C268.693 40.5453 268.613 40.6189 268.613 40.7274C268.613 40.8659 268.613 41.0043 268.613 41.1428C268.613 41.4613 268.532 41.8998 268.635 42.2095C268.694 42.3849 268.722 42.4877 268.812 42.6323C268.901 42.7743 268.79 43.076 268.79 43.237C268.79 43.5326 268.871 43.8502 268.613 44.0432" stroke="#DD9E5E" stroke-linecap="round"/>
<path d="M271.135 40.6807C271.555 40.6807 271.974 40.6807 272.394 40.6807C272.665 40.6807 272.94 40.7652 273.212 40.7913C273.504 40.8194 273.796 40.8135 274.09 40.8135C274.3 40.8135 274.501 40.7623 274.709 40.7348C274.961 40.7015 275.22 40.7358 275.473 40.7225C275.778 40.7065 276.074 40.6419 276.37 40.5726C276.608 40.5171 276.849 40.5237 277.073 40.4349C277.543 40.2494 276.127 38.9202 275.958 38.7242C275.243 37.8969 274.15 37.8934 273.126 37.8934C272.738 37.8934 272.41 37.9219 272.035 37.9819C271.92 38.0003 271.664 37.9821 271.602 38.0999C271.471 38.3511 271.38 38.6537 271.287 38.9208C271.176 39.241 271.132 39.5855 271.027 39.9089C270.917 40.2468 270.825 40.5631 270.825 40.9216C270.825 41.3304 270.87 41.7337 270.87 42.1457C270.87 43.3836 272.8 43.2468 273.647 43.2468C274.049 43.2468 274.45 43.2468 274.851 43.2468C275.073 43.2468 275.24 43.2442 275.444 43.1583C275.552 43.1128 275.589 42.9031 275.648 42.8044" stroke="#DD9E5E" stroke-linecap="round"/>
<path d="M279.079 37.4003C278.929 37.5204 278.932 37.9731 278.891 38.1501C278.795 38.566 278.753 38.9957 278.683 39.4166C278.619 39.8025 278.653 40.2252 278.621 40.6164C278.582 41.0882 278.516 41.5459 278.516 42.0204C278.516 42.4568 278.591 42.8875 278.591 43.3222C278.591 43.4605 278.559 43.8117 278.729 43.8117C279.271 43.8117 279.777 43.3511 279.977 42.8765C280.103 42.5765 280.128 42.2468 280.26 41.937C280.393 41.6246 280.48 41.284 280.674 41.0018C280.929 40.6335 281.189 40.275 281.478 39.9332C281.773 39.5859 282.047 39.2487 282.407 38.9667C282.613 38.8055 282.836 38.7129 283.053 38.5751C283.279 38.4322 283.428 38.3252 283.428 38.0627C283.428 37.9196 283.428 37.7766 283.428 37.6336C283.428 37.5963 283.428 37.9209 283.428 37.9877C283.428 38.9827 283.428 39.9776 283.428 40.9726C283.428 41.666 283.381 42.3488 283.559 43.0223C283.589 43.133 283.616 43.2268 283.616 43.341C283.616 43.4065 283.677 43.4447 283.691 43.5139C283.705 43.5844 283.784 44.0262 283.691 43.8867" stroke="#DD9E5E" stroke-linecap="round"/>
<path d="M279.379 34.4382C279.405 34.7526 279.766 35.1517 279.979 35.3756C280.151 35.5568 280.34 35.6562 280.541 35.7901C280.883 36.0183 281.483 35.7599 281.789 35.5714C282.339 35.2319 282.552 34.8648 282.603 34.2507" stroke="#DD9E5E" stroke-linecap="round"/>
<path d="M350.827 37.4377C350.827 37.6529 350.823 37.8618 350.788 38.0751C350.758 38.2514 350.715 38.4021 350.715 38.5834C350.715 38.6803 350.727 38.786 350.696 38.8792C350.634 39.0652 350.734 39.2439 350.769 39.4249C350.806 39.6174 350.789 39.8145 350.827 40.0082C350.858 40.1617 350.902 40.2912 350.902 40.4498C350.902 40.7822 350.93 41.1309 350.873 41.4579C350.833 41.6858 350.891 41.9181 350.836 42.1453C350.789 42.3386 350.715 42.5484 350.715 42.7452C350.715 43.1198 350.616 43.7318 350.921 44.0034C351 44.0737 351.036 44.1596 351.136 44.2158C351.315 44.3171 351.542 44.2991 351.74 44.2991C352.08 44.2991 352.42 44.2991 352.76 44.2991C352.817 44.2991 352.927 44.3197 352.983 44.295C353.263 44.1704 353.467 43.8447 353.733 43.6826C353.936 43.5588 354.125 43.485 354.318 43.3618C354.482 43.2576 354.748 43.1758 354.933 43.1347C355.03 43.1132 355.177 43.122 355.177 43.0077C355.177 42.7448 355.127 42.5835 355.01 42.3494C354.864 42.0579 354.667 41.9016 354.472 41.6537C354.289 41.4192 353.874 41.2421 353.589 41.158C353.515 41.1361 353.453 41.0545 353.377 41.0163C353.228 40.942 353.101 40.8332 352.956 40.7539C352.595 40.5556 351.348 40.4373 351.76 40.4373C352.294 40.4373 352.828 40.3998 353.36 40.3998C353.615 40.3998 353.848 40.3902 354.098 40.3414C354.202 40.321 354.351 40.3584 354.445 40.306C354.785 40.1174 355.174 40.0819 355.281 39.6332C355.374 39.2372 354.987 38.755 354.831 38.4251C354.603 37.945 354.246 37.5087 353.864 37.1378C353.501 36.7847 352.931 36.6548 352.439 36.6504C352.02 36.6466 351.585 36.6075 351.181 36.742C350.672 36.9116 350.862 37.5152 350.565 37.8127" stroke="#DD9E5E" stroke-linecap="round"/>
<path d="M362.413 39.0499C362.362 39.0371 362.354 38.9413 362.336 38.8999C362.276 38.7598 362.172 38.6552 362.073 38.5417C361.794 38.2215 361.502 38.011 361.157 37.7751C360.628 37.4137 360.085 37.2326 359.451 37.2502C359.01 37.2624 358.512 37.5897 358.401 38.0188C358.308 38.3792 358.031 38.654 357.937 39.0166C357.886 39.2097 357.827 39.4185 357.803 39.6165C357.78 39.8126 357.696 39.9675 357.657 40.1539C357.547 40.6857 357.246 41.3215 357.501 41.862C357.683 42.2454 357.907 42.647 358.193 42.9618C358.388 43.1765 358.688 43.5378 358.968 43.6388C359.255 43.7426 359.693 43.8135 359.993 43.7575C360.37 43.6869 360.722 43.3497 361.055 43.1618C361.171 43.0962 361.306 43.1152 361.421 43.0326C361.529 42.9557 361.627 42.8662 361.738 42.7993" stroke="#DD9E5E" stroke-linecap="round"/>
<path d="M364.813 40.2498C364.83 40.3471 364.945 40.3972 365.037 40.3998C365.31 40.4076 365.575 40.4565 365.848 40.4727C366.492 40.511 367.158 40.5583 367.8 40.4748C367.944 40.456 368.079 40.3998 368.224 40.3998C368.543 40.3998 368.821 40.3248 369.141 40.3248C369.228 40.3248 369.4 40.3711 369.378 40.2415C369.342 40.015 369.264 39.8412 369.181 39.6291C369.053 39.3067 368.87 38.8863 368.862 38.5334C368.857 38.2987 368.947 37.9231 368.749 37.7544C368.422 37.475 367.707 37.4982 367.308 37.4586C366.868 37.415 366.445 37.3605 366.012 37.2961C365.851 37.2722 365.312 37.1526 365.15 37.2753C364.948 37.4282 364.802 37.7753 364.717 38.0002C364.591 38.33 364.456 38.7313 364.406 39.0813C364.343 39.5212 364.325 39.9886 364.325 40.4331C364.325 40.9082 364.307 41.3875 364.327 41.8621C364.351 42.419 364.802 42.7167 365.204 43.0244C365.727 43.4251 366.342 43.3993 366.971 43.3993C367.428 43.3993 368.01 43.495 368.449 43.3743C368.965 43.2328 369.401 42.9433 369.866 42.7036C370.169 42.5471 370.249 42.5521 370.249 42.1995" stroke="#DD9E5E" stroke-linecap="round"/>
<path d="M371.899 44.1492C371.899 42.6809 371.974 41.214 371.974 39.7457C371.974 39.2889 371.974 38.832 371.974 38.3751C371.974 38.139 371.974 37.903 371.974 37.6669C371.974 37.4917 371.903 37.4353 372.103 37.4461C372.87 37.4874 373.635 37.5128 374.403 37.5128C374.653 37.5128 374.928 37.5431 375.173 37.494C375.497 37.4293 375.822 37.6252 376.136 37.6252" stroke="#DD9E5E" stroke-linecap="round"/>
<path d="M378.048 38.2252C377.673 38.252 377.234 38.2597 377.09 38.6668C376.857 39.3226 376.902 40.0833 376.998 40.7581C377.066 41.2393 377.073 41.706 377.073 42.1912C377.073 42.3827 377.039 42.5473 377.211 42.6745C377.712 43.0462 378.344 43.0896 378.948 43.0994C379.12 43.1022 379.527 43.1113 379.669 43.241C379.858 43.4147 380.037 43.5493 380.298 43.5493C380.685 43.5493 381.001 43.4258 381.339 43.2327C381.641 43.0603 381.852 42.7021 382.06 42.4328C382.343 42.0651 382.333 41.465 382.351 41.0206C382.372 40.5123 382.225 40.0058 382.174 39.502C382.141 39.1725 382.053 38.9308 381.872 38.6543C381.728 38.4333 381.608 38.1731 381.402 38.0044C381.206 37.8444 380.994 37.683 380.768 37.5669C380.236 37.2932 379.794 37.1003 379.189 37.1003C378.704 37.1003 378.385 37.3218 377.981 37.5586C377.789 37.6715 377.584 37.8052 377.469 38.0002C377.354 38.1958 377.159 38.3251 377.04 38.5209C376.958 38.6543 376.892 38.7633 376.773 38.8626" stroke="#DD9E5E" stroke-linecap="round"/>
<path d="M387.122 38.6751C387.246 38.6751 387.372 38.6793 387.496 38.6667C387.87 38.6289 388.139 38.4496 388.467 38.2855C388.756 38.1412 389.017 38.0014 389.255 37.7773C389.401 37.6388 389.567 37.4868 389.746 37.3919C390.26 37.1205 390.787 37.2779 391.263 37.5711C391.535 37.7392 391.798 37.8953 391.996 38.1502C392.127 38.3195 392.312 38.4628 392.406 38.6584C392.539 38.9349 392.192 39.3029 392.033 39.4916C391.764 39.8102 391.378 40.0064 391.046 40.2498C390.707 40.4975 390.291 40.8541 389.859 40.9205C389.632 40.9555 389.209 40.9599 389.017 40.8247C388.892 40.7366 388.594 40.3724 388.705 40.1915C388.748 40.1205 389.16 40.1768 389.23 40.1832C389.583 40.2153 389.817 40.393 390.138 40.5081C390.505 40.6401 390.856 40.8499 391.208 41.0164C391.372 41.0937 391.459 41.2874 391.604 41.3705C391.797 41.4809 391.775 41.7805 391.633 41.9558C391.25 42.4316 390.601 42.5962 390.092 42.8952C389.903 43.0061 389.799 43.0716 389.579 43.116C389.341 43.1642 389.073 43.2081 388.844 43.2889C388.705 43.3379 388.557 43.3711 388.413 43.3972C388.222 43.432 387.944 42.7933 387.871 42.6661C387.659 42.2945 387.567 41.9146 387.234 41.6371" stroke="#DD9E5E" stroke-linecap="round"/>
<path d="M393.983 38.825C393.983 38.7239 394.088 38.6725 394.162 38.6167C394.26 38.5423 394.315 38.4004 394.387 38.3001C394.491 38.1551 394.477 38.0122 394.516 37.8418C394.593 37.5053 395.052 37.5502 395.303 37.5502C395.576 37.5502 395.848 37.5502 396.12 37.5502C396.302 37.5502 396.416 37.5916 396.578 37.621C396.856 37.6716 397.14 37.6254 397.42 37.6814C397.711 37.7397 398.006 37.7708 398.255 37.9418C398.507 38.115 398.462 38.3546 398.501 38.6375C398.541 38.923 398.516 39.2135 398.549 39.4999C398.569 39.6763 398.523 39.7889 398.474 39.9498C398.444 40.0481 398.338 40.0972 398.332 40.1956C398.327 40.2896 398.345 40.3809 398.295 40.4664C398.251 40.5401 398.189 40.6121 398.182 40.6997C398.161 40.9481 398.107 41.1794 398.107 41.4329C398.107 41.5944 398.131 41.7291 398.147 41.8828C398.181 42.2055 398.183 42.6835 398.428 42.9285C398.52 43.0205 398.547 43.798 398.445 43.8492" stroke="#DD9E5E" stroke-linecap="round"/>
<path d="M397.732 40.5497C397.587 40.5134 397.499 40.3997 397.339 40.3997C397.211 40.3997 397.116 40.3302 396.991 40.3247C396.795 40.3162 396.528 40.3314 396.345 40.258C396.133 40.1734 395.761 40.2903 395.558 40.333C395.358 40.375 395.148 40.3719 394.987 40.5038C394.863 40.6054 394.683 40.6391 394.566 40.7559C394.494 40.8283 394.432 40.9048 394.349 40.9621C394.267 41.0192 393.995 41.2629 393.983 41.3662C393.963 41.5329 393.908 41.6706 393.908 41.8453C393.908 42.0239 394.02 42.1312 394.02 42.3119C394.02 42.423 394.057 42.6004 394.15 42.6535C394.198 42.6813 394.225 42.8467 394.237 42.8951C394.259 42.9828 394.344 43.0668 394.356 43.1388C394.372 43.238 394.607 43.3617 394.714 43.3617C394.944 43.3617 395.311 43.4338 395.522 43.3388C395.748 43.2373 395.98 43.1793 396.212 43.0951C396.298 43.0636 396.365 42.9874 396.466 42.9576C396.547 42.9334 396.646 42.8959 396.724 42.8785C397.129 42.7884 397.602 42.9301 397.995 42.7993" stroke="#DD9E5E" stroke-linecap="round"/>
<path d="M403.506 36.9503C403.348 36.7816 403.599 36.7112 403.756 36.6462C404.114 36.4983 404.446 36.2556 404.798 36.088C405.116 35.9365 405.409 35.9567 405.629 35.6693C405.808 35.4363 406.096 35.1045 406.168 34.8152C406.229 34.5728 406.525 35.3078 406.552 35.3672C406.721 35.7475 406.796 36.1123 406.862 36.5191C406.94 36.9993 406.932 37.6436 406.789 38.1126C406.444 39.2487 406.068 40.4197 406.26 41.6287C406.385 42.4145 406.618 43.1653 406.618 43.9617" stroke="#DD9E5E" stroke-linecap="round"/>
<path d="M409.543 39.9498C410.214 39.9498 410.884 39.9498 411.555 39.9498C411.815 39.9498 412.076 39.9498 412.336 39.9498C412.449 39.9498 412.561 39.9498 412.674 39.9498C412.814 39.9498 412.93 39.8824 413.067 39.8748C413.472 39.8523 413.874 39.7731 414.271 39.729C414.458 39.7083 414.64 39.6908 414.815 39.6519C414.868 39.6401 414.927 39.6608 414.98 39.6457C415.051 39.6253 415.1 39.5543 415.175 39.529C415.364 39.4661 415.559 39.354 415.692 39.2082C415.86 39.0244 416.132 38.8754 416.231 38.6333C416.336 38.3766 416.231 38.0121 416.256 37.7376C416.275 37.5323 416.292 37.337 416.292 37.1294C416.292 36.5881 416.013 36.1311 415.769 35.6734C415.674 35.4962 415.564 35.3574 415.434 35.211C415.386 35.1579 415.264 35.1393 415.2 35.111C414.974 35.0105 414.75 34.9395 414.513 34.8714C413.757 34.6546 412.995 34.7006 412.215 34.7006C411.848 34.7006 411.323 34.6413 411.193 35.0756C411.116 35.3294 411.095 35.5596 411.051 35.8171C411.006 36.0827 410.956 36.3665 410.928 36.6337C410.876 37.1309 410.773 37.6299 410.78 38.1292C410.784 38.3983 410.883 38.6529 410.893 38.9166C410.902 39.1802 410.93 39.4391 410.93 39.704C410.93 40.2867 410.957 40.8795 410.968 41.4662C410.978 42.0231 411.168 42.5063 411.324 43.0264C411.369 43.1771 411.46 43.292 411.511 43.4367C411.547 43.5352 411.648 43.5652 411.53 43.6242" stroke="#DD9E5E" stroke-linecap="round"/>
<path d="M409.58 42.4994C409.637 42.1972 409.783 42.2286 410.074 42.1974C410.46 42.1561 410.85 42.087 411.238 42.087C411.743 42.087 412.236 42.0909 412.736 42.0141C413.356 41.9187 414.103 41.9129 414.717 42.0495" stroke="#DD9E5E" stroke-linecap="round"/>
<path d="M289.071 43.7721C289.001 42.7983 288.95 41.817 288.843 40.85C288.81 40.5526 288.875 40.2596 288.879 39.9656C288.881 39.8237 288.871 39.6829 288.898 39.5427C288.933 39.3636 289.017 39.1848 289.031 39.0044C289.053 38.7131 289.033 38.4122 289.033 38.1201C289.033 38.0118 288.977 37.6598 289.039 37.5668C289.108 37.4638 289.711 37.5439 289.819 37.5433C290.147 37.5415 290.581 37.5824 290.9 37.4878C291.647 37.2663 292.503 37.3511 293.281 37.3511C293.703 37.3511 294.137 37.9313 294.243 38.3123C294.416 38.9362 294.075 39.6173 293.839 40.175C293.6 40.7375 293.608 41.4435 293.608 42.0462C293.608 42.6241 293.647 43.1959 293.647 43.7721" stroke="#DD9E5E" stroke-linecap="round"/>
<path d="M296.415 38.9659C295.999 39.3816 295.997 40.435 296.206 40.9568C296.364 41.3519 296.565 41.7252 296.748 42.1102C296.893 42.4152 297.152 42.6897 297.432 42.8707C297.56 42.9534 297.699 43.0546 297.818 43.1526C297.911 43.2288 298.192 43.2612 298.318 43.2744C298.668 43.3112 298.958 43.3311 299.292 43.2125C300.019 42.9544 300.783 42.7549 301.076 41.965C301.21 41.6031 301.221 41.2051 301.221 40.8201C301.221 40.3493 301.261 39.8573 301.213 39.3889C301.153 38.8122 300.863 38.179 300.521 37.7142C300.191 37.2676 299.314 37.4112 298.842 37.4301C298.65 37.4378 298.472 37.5049 298.28 37.5049C298.15 37.5049 298.082 37.6332 297.97 37.695C297.653 37.87 297.284 37.9525 297.032 38.2354C296.864 38.4243 296.655 38.5917 296.569 38.8292C296.509 38.9947 296.453 39.1581 296.377 39.312" stroke="#DD9E5E" stroke-linecap="round"/>
<path d="M302.721 45.8868C302.721 45.4283 302.721 44.9697 302.721 44.5112C302.721 44.3025 303.225 43.9257 303.413 43.8319C303.534 43.7711 303.669 43.7201 303.797 43.6653C304.085 43.5421 304.4 43.5391 304.699 43.4432C305.346 43.2356 305.972 43.2338 306.668 43.2338C307.285 43.2338 307.901 43.2338 308.518 43.2338C308.713 43.2338 308.905 43.336 309.103 43.347C309.311 43.3586 309.538 43.4186 309.699 43.5628C309.888 43.732 309.923 43.881 309.958 44.1182C309.99 44.3391 310.103 44.5433 310.103 44.7718C310.103 44.9455 310.103 45.1193 310.103 45.293C310.103 45.373 310.147 45.6214 310.026 45.5408" stroke="#DD9E5E" stroke-linecap="round"/>
<path d="M308.565 43.1185C308.549 42.9379 308.488 42.7857 308.488 42.5973C308.488 42.4637 308.484 42.3293 308.488 42.1957C308.492 42.0816 308.531 41.946 308.556 41.8326C308.593 41.6734 308.545 41.5021 308.574 41.3413C308.603 41.1762 308.675 41.0319 308.71 40.8713C308.768 40.6131 308.732 40.2571 308.71 39.9998C308.686 39.7137 308.597 39.462 308.535 39.1881C308.504 39.0507 308.488 38.8794 308.43 38.7523C308.308 38.4831 308.296 38.1238 308.296 37.8317C308.296 37.7367 308.332 37.5364 308.2 37.507C308.015 37.4659 307.86 37.3679 307.661 37.3532C307.501 37.3414 307.298 37.3263 307.138 37.3554C307.008 37.379 306.89 37.4532 306.76 37.4835C306.661 37.5066 306.565 37.499 306.472 37.5433C306.294 37.6277 306.064 37.5727 305.871 37.601C305.679 37.6294 305.483 37.6202 305.288 37.6202C305.216 37.6202 304.982 37.5799 304.921 37.6288C304.805 37.7215 304.883 38.0156 304.929 38.1201C305.107 38.5205 305.028 39.0295 305.028 39.4658C305.028 39.8934 304.88 40.3274 304.767 40.7346C304.694 40.9992 304.632 41.2955 304.509 41.5421C304.236 42.0877 303.977 42.6389 303.661 43.1356C303.611 43.213 303.526 43.266 303.473 43.3342C303.42 43.4022 303.41 43.5121 303.355 43.5777C303.309 43.6334 303.262 43.7389 303.203 43.7721C303.111 43.8248 303.008 43.8625 302.913 43.9259" stroke="#DD9E5E" stroke-linecap="round"/>
<path d="M311.641 43.9259C311.641 43.4121 311.502 42.8774 311.429 42.3687C311.376 41.9932 311.405 41.6102 311.363 41.2345C311.323 40.8718 311.384 40.5697 311.412 40.2134C311.425 40.0577 311.536 39.9377 311.573 39.7862C311.619 39.5928 311.679 39.3693 311.741 39.1817C311.862 38.8193 311.864 38.5213 311.872 38.1372C311.873 38.0354 311.86 37.6514 311.916 37.5668C311.975 37.4794 312.338 37.4773 312.412 37.4643C312.799 37.396 313.191 37.3554 313.585 37.3511C314.13 37.3452 314.657 37.4221 315.2 37.428C315.638 37.4328 316.076 37.5304 316.503 37.6202C316.806 37.6841 316.849 37.7141 316.994 37.9748C317.17 38.2922 317.101 38.6909 317.101 39.045C317.101 39.3804 317.095 39.716 317.043 40.0468C316.934 40.7464 316.868 41.4806 316.58 42.1359C316.37 42.6124 316.293 43.1383 316.293 43.6568" stroke="#DD9E5E" stroke-linecap="round"/>
<path d="M319.25 37.6838C319.092 37.7235 319.207 39.6515 319.207 40.0157C319.207 40.4735 319.163 40.9282 319.163 41.3887C319.163 41.7604 319.207 42.1201 319.207 42.4881C319.207 42.8655 319.25 43.2337 319.25 43.6116C319.25 43.6268 319.238 43.839 319.27 43.8344C319.426 43.812 319.659 43.4429 319.769 43.3404C320.018 43.1078 320.22 42.8908 320.401 42.6091C320.533 42.4036 320.654 42.2179 320.805 42.0183C321.099 41.6299 321.33 41.1778 321.667 40.8221C321.888 40.5891 322.114 40.3046 322.292 40.0375C322.472 39.7671 322.692 39.4035 322.933 39.1876C323.225 38.9267 323.658 38.4424 323.74 38.0543C323.865 37.4586 324.136 38.1112 324.21 38.3958C324.342 38.9077 324.266 39.48 324.185 39.9939C324.085 40.6313 323.976 41.2729 323.912 41.9142C323.854 42.4901 323.696 43.0289 323.696 43.6116" stroke="#DD9E5E" stroke-linecap="round"/>
<path d="M330.888 42.4348C330.853 42.6085 330.502 42.9027 330.384 43.0208C330.195 43.2102 329.986 43.3385 329.755 43.4542C329.346 43.6585 328.699 43.5244 328.249 43.5244C327.965 43.5244 327.705 43.3501 327.423 43.3501C326.414 43.3501 326.399 41.6003 326.399 40.8608C326.399 40.3918 326.473 39.9604 326.52 39.4951C326.548 39.2157 326.59 38.7196 326.757 38.4684C326.9 38.2533 326.875 37.9864 327.173 37.9453C327.258 37.9336 327.327 37.8465 327.401 37.8097C327.514 37.7543 327.643 37.732 327.759 37.6838C328.014 37.5784 328.277 37.4829 328.549 37.432C328.783 37.3881 329.072 37.4146 329.309 37.4223C329.742 37.4362 330.08 37.7757 330.394 38.0325C330.554 38.1633 330.718 38.3551 330.888 38.4587C331.049 38.5572 331.062 38.7298 331.28 38.7735" stroke="#DD9E5E" stroke-linecap="round"/>
<path d="M333.721 37.4223C333.704 37.7637 333.59 38.0829 333.59 38.4272C333.59 38.7012 333.606 38.9589 333.632 39.2287C333.687 39.8083 333.678 40.3914 333.678 40.977C333.678 41.5438 333.66 42.0986 333.537 42.6527C333.492 42.8566 333.388 43.0538 333.319 43.2532C333.273 43.3861 333.155 43.5622 333.155 43.6988" stroke="#DD9E5E" stroke-linecap="round"/>
<path d="M333.678 40.7349C333.855 40.6141 333.932 40.4431 334.089 40.299C334.282 40.122 334.542 40.0241 334.75 39.8801C334.92 39.7626 335.126 39.6571 335.31 39.5581C335.448 39.4836 335.571 39.4081 335.683 39.2966C335.771 39.2086 335.882 39.1816 335.966 39.098C336.154 38.9098 336.381 38.7496 336.583 38.5798C336.72 38.465 336.88 38.4239 337.01 38.2941C337.096 38.2081 337.175 38.0475 337.286 37.9986C337.438 37.9314 337.589 37.739 337.707 37.6209C337.818 37.5095 338.036 37.4247 338.036 37.2916" stroke="#DD9E5E" stroke-linecap="round"/>
<path d="M334.68 40.0375C334.68 40.3914 334.971 40.5153 335.082 40.8221C335.179 41.0907 335.482 41.3644 335.675 41.5582C335.873 41.7559 335.994 42.0385 336.181 42.2508C336.461 42.5667 336.75 42.8122 337.102 43.0208C337.192 43.0745 337.268 43.2499 337.366 43.3259C337.436 43.3804 337.604 43.3501 337.688 43.3501" stroke="#DD9E5E" stroke-linecap="round"/>
<path d="M345.141 43.7859C345.141 42.987 345.184 42.1888 345.184 41.3887C345.184 40.7836 345.177 40.1907 345.332 39.604C345.393 39.3745 345.353 39.1151 345.359 38.88C345.364 38.6782 345.533 38.5412 345.533 38.3352C345.533 38.13 345.619 37.7516 345.422 37.662C344.716 37.3414 343.969 38.0403 343.703 38.6524C343.401 39.3459 343.263 40.0949 342.865 40.7446C342.652 41.0915 342.369 41.3699 342.124 41.6938C341.893 41.9982 341.707 42.2852 341.501 42.6043C341.401 42.7603 341.305 42.9184 341.208 43.0789C341.149 43.1784 340.99 43.2953 340.957 43.3961C340.929 43.4792 340.671 43.8024 340.586 43.7835C340.2 43.6977 340.216 42.9779 340.216 42.6939C340.216 42.1022 340.216 41.5106 340.216 40.9189C340.216 40.3845 340.303 39.8543 340.303 39.3207C340.303 38.9687 340.307 38.6262 340.346 38.2843C340.36 38.1664 340.477 38.0993 340.477 37.9647C340.477 37.779 340.608 37.6433 340.608 37.4659" stroke="#DD9E5E" stroke-linecap="round"/>
</svg>
