<svg width="728" height="113" viewBox="0 0 728 113" fill="none" xmlns="http://www.w3.org/2000/svg">
<path d="M1.78503 57.8489C16.2025 44.5696 38.2644 42.4173 57.0817 42.4173C72.9199 42.4173 87.6295 45.5481 103.162 47.4897C112.928 48.7104 122.248 49.6522 131.668 52.705C142.706 56.2822 154.357 58.4181 165.032 62.9927C174.219 66.9301 183.638 71.0846 193.108 74.2807C215.568 81.8608 239.312 90.7521 262.837 93.856C300.39 98.8109 337.189 96.3915 374.001 87.1404C399.308 80.7806 424.374 71.7896 440.014 50.1331C441.996 47.3896 443.625 38.9323 442.586 35.7016C438.467 22.8863 413.712 18.6409 402.293 18.0553C392.357 17.5458 382.881 16.7777 374.144 21.7703C365.89 26.487 358.507 31.7029 352.283 39.0595C344.42 48.3524 343.853 53.3988 343.853 65.5647C343.853 70.8955 347.214 77.863 351.854 80.7105C365.847 89.2974 378.407 98.8699 394.291 104.429C411.538 110.466 431.381 114.993 448.587 106.144C467.098 96.6247 473.226 73.5025 472.378 53.991C471.303 29.2789 442.111 28.2716 423.583 28.2716C415.03 28.2716 405.022 26.8766 396.863 29.8434C389.835 32.3991 382.948 35.6124 375.859 37.9164C363.181 42.0367 351.547 41.9433 345.853 55.9199C344.347 59.6168 343.548 65.5647 338.423 65.5647C330.207 65.5647 322.791 56.5686 318.419 50.7761C314.41 45.4643 291.952 5.18297 309.989 2.69514C321.136 1.15761 332.033 4.43796 342.424 7.98189C354.906 12.2393 369.499 14.484 379.074 24.4137C383.016 28.5018 388.321 32.8081 391.433 37.5592C395.096 43.1499 396.451 51.0597 399.149 57.2059C404.577 69.5704 410.093 82.2237 419.725 91.8556C438.683 110.814 477.665 116.363 498.169 96.4279C502.374 92.3396 506.138 87.7855 511.243 84.7828C515.146 82.4868 519.302 80.6222 523.174 78.2815C527.977 75.3769 531.258 70.6071 536.319 68.1366C553.728 59.6394 572.222 52.6886 590.687 46.9181C599.545 44.1501 613.096 45.6674 622.265 46.3466C627.786 46.7556 632.119 49.9985 637.339 51.1333C643.629 52.5007 649.564 53.8747 655.7 55.9199C676.886 62.9819 707.695 73.3666 725.785 55.2769" stroke="#DD9E5E" stroke-width="3" stroke-linecap="round"/>
</svg>
